<?xml version="1.0" encoding="utf-8"?>
<!-- Generator: Adobe Illustrator 28.2.0, SVG Export Plug-In . SVG Version: 6.00 Build 0)  -->
<svg version="1.1" id="Layer_1" xmlns="http://www.w3.org/2000/svg" xmlns:xlink="http://www.w3.org/1999/xlink" x="0px" y="0px"
	 viewBox="0 0 50 50" style="enable-background:new 0 0 50 50;" xml:space="preserve">
<style type="text/css">
	.st0{fill:#FFFFFF;}
</style>
<path d="M21.2,17.2c0.3-1.2-0.3-2.5-1.3-3.1c-0.7-0.4-1.5-0.8-2.4-0.9c-1.4-0.3-2.9-0.4-4.4-0.5c-0.6,0-0.7,0.2-0.5,0.7
	c1,2.2,2.1,4.3,4.1,5.8c0.6,0.4,1.2,0.6,1.9,0.6c0.2,0,0.4,0,0.6,0c0.5,0,0.9,0.2,0.9,0.8c0,0.5-0.3,0.8-0.9,0.8
	c-0.7,0-1.4-0.1-2.1-0.3c-1.3-0.5-2.4-1.3-3.3-2.4c-1.5-1.8-2.5-3.9-3.2-6.1c-0.3-0.9-0.1-1.1,0.8-1.3c2-0.3,4-0.2,6,0.3
	c0.8,0.2,1.6,0.4,2.3,0.7c2.3,1.1,3.3,2.9,3,5.4c-0.1,1.2,0,1.5,1.2,2.5c0-0.6,0-1.1,0-1.6c0-2.1,0.1-4.1,0.8-6
	c0.8-2.3,2.1-4.4,3.8-6.2c0.1-0.1,0.2-0.2,0.3-0.3c0.4-0.3,0.7-0.5,1.1,0c0.4,0.4,0.2,0.8-0.1,1.2c-1.2,1.2-2.2,2.6-3,4.2
	c0,0.1-0.1,0.1-0.1,0.2c-0.4,1-0.3,1.1,0.8,1c2.8-0.1,4.1-2,4.7-4.7c0.4-1.8,0.4-3.5,0.1-5.3c-0.1-0.5-0.2-0.5-0.7-0.4
	c-2,0.6-3.8,1.5-5.3,2.8c-1.5,1.2-2.3,2.8-2,4.8c0,0.1,0,0.2,0,0.3c0,0.5-0.2,0.8-0.7,0.8c-0.5,0.1-0.8-0.3-0.8-0.7
	c0-0.9-0.1-1.8,0.1-2.7c0.4-1.9,1.7-3.3,3.3-4.4c1.9-1.3,4.1-2.2,6.3-2.8c0.6-0.2,0.9,0.1,1,0.6c0.2,0.6,0.3,1.2,0.4,1.9
	c0.3,2.6,0.2,5.2-0.9,7.7c-1.1,2.4-3,3.6-5.5,3.6c-1.7,0.1-1.8,0-1.8,1.8c-0.1,2.8-0.1,5.6-0.1,8.4c0,0.9,0,1.7,0,2.6
	c0,0.5,0.2,0.8,0.7,0.7c0.9,0,1.9,0,2.8,0c0.1,0,0.2,0,0.3,0c0.7,0,1.1,0.3,1.1,0.7c0,0.5-0.4,0.8-1.1,0.8c-2.8,0-5.6,0-8.5,0
	c-1.8,0-3.5,0-5.3,0c-0.5,0-0.8,0.2-0.7,0.7c0,0.3,0.1,0.6,0,0.8c-0.1,0.2-0.4,0.4-0.6,0.5c-0.1,0-0.4-0.3-0.4-0.5
	c-0.1-0.2,0-0.5-0.1-0.7c0-0.3-0.1-0.7-0.2-0.7c-0.3-0.1-0.7-0.1-1.1,0c-0.1,0-0.2,0.2-0.2,0.4c0,0.2,0,0.4,0,0.6
	c-0.1,0.4,0,1-0.6,1c-0.5,0-0.5-0.5-0.6-1c0-0.2,0-0.3,0-0.5c0-0.3,0-0.6-0.4-0.5c-0.4,0-0.4,0.3-0.4,0.6c0,0.7,0,1.4,0,2.2
	c0,0.4,0.2,0.5,0.5,0.5c1.6,0,3.3,0,4.9,0c0.4,0,0.6-0.2,0.6-0.6c0-0.4,0-0.8,0.1-1.2c0.1-0.2,0.3-0.5,0.5-0.5
	c0.2,0,0.5,0.3,0.5,0.5c0.1,0.3,0.1,0.7,0,1c-0.1,0.5,0.1,0.7,0.7,0.7c2.1,0,4.1,0,6.2,0c0.9,0,1.2,0.2,1.3,0.7
	c0,0.6-0.4,0.9-1.2,0.9c-5,0-10,0-15,0c-1.9,0-1.5-0.1-1.5,1.5c0,0.4,0,0.8,0,1.2c0,0.4,0.1,0.6,0.6,0.6c1.4,0,2.8,0,4.2,0
	c3.3,0,6.6,0,9.9,0c0.1,0,0.2,0,0.2,0c0.5,0,0.8,0.2,0.8,0.7c0,0.5-0.4,0.7-0.8,0.8c-0.4,0-0.8,0-1.2,0c-3.6,0-7.2,0-10.8,0
	c-0.4,0-0.7,0.1-0.6,0.6c0,0.7,0,1.5,0,2.2c0,0.4,0.1,0.5,0.5,0.5c2.9,0,5.9,0,8.8,0c1.1,0,2.3,0,3.4,0c0.2,0,0.5,0.1,0.7,0.2
	c0.5,0.3,0.5,0.9,0,1.2c-0.2,0.1-0.5,0.2-0.7,0.2c-3.9,0-7.8,0-11.8,0c-0.9,0-0.9,0-0.9,0.8c0,0.6,0,1.3,0,1.9
	c0,0.6,0.2,0.7,0.7,0.7c3.4,0,6.7,0,10.1,0c1.6,0,3.3,0,4.9,0c0.7,0,1,0.2,1,0.7c0,0.6-0.4,0.7-0.9,0.7c-2.2,0-4.4,0-6.5,0
	c-3.1,0-6.1,0-9.2,0c-0.2,0-0.3,0-0.5,0c-0.9,0-1.1-0.3-1.1-1.1c0-2.6,0-5.2,0-7.8c0-0.8,0-0.8-0.9-0.9c-0.2,0-0.4,0-0.7,0
	c-0.6,0-0.9-0.3-0.9-0.9c0-1.5,0-3.1,0-4.6c0-0.6,0.3-0.8,0.9-0.9c1.6-0.2,1.6-0.2,1.6-1.8c0-0.7,0-1.4,0-2.1c0-0.7,0.2-0.9,0.9-1
	c0.2,0,0.4,0,0.6,0c4.4,0,8.8,0,13.2,0c0.5,0,0.7-0.1,0.7-0.7c0-1,0-1.9,0-2.9c0-0.4-0.1-0.9-0.3-1.2c-1.3-2.3-3-4.3-5.2-5.8
	c-0.2-0.1-0.3-0.3-0.5-0.4c-0.3-0.2-0.4-0.5-0.2-0.9c0.2-0.3,0.5-0.5,0.9-0.3c0.5,0.3,1.1,0.7,1.6,1C20.6,16.7,20.8,16.9,21.2,17.2z
	"/>
<path d="M45.7,30.6c0-0.5,0.4-0.9,0.9-1c0.5,0,0.9,0.4,0.9,1c0,0.5-0.4,1-0.9,1C46.1,31.5,45.7,31.1,45.7,30.6z"/>
<path d="M4.5,12.8c-0.5,0-1-0.4-1-0.9c0-0.5,0.4-0.9,0.9-1c0.5,0,1,0.5,1,0.9C5.4,12.4,5,12.8,4.5,12.8z"/>
<path d="M46.4,21c0.5,0,1,0.4,1,0.9c0,0.5-0.5,1-0.9,1c-0.5,0-0.9-0.4-0.9-1C45.5,21.4,45.9,21,46.4,21z"/>
<path d="M2.2,21.5c0.7,0,1.1,0.3,1.1,0.8c0,0.4-0.4,0.7-1,0.8c-0.6,0-1.1-0.3-1.1-0.8C1.2,21.7,1.5,21.5,2.2,21.5z"/>
<path d="M34.9,22.1c0.6,0,1.1,0.3,1,0.8c0,0.5-0.4,0.8-1.1,0.8c-0.6,0-1-0.3-1-0.8C33.8,22.4,34.2,22.1,34.9,22.1z"/>
<path d="M39.3,23.7c-0.7,0-1.1-0.3-1.1-0.8c0-0.5,0.3-0.7,1.1-0.7c0.6,0,1,0.3,1,0.8C40.3,23.4,39.9,23.7,39.3,23.7z"/>
<path d="M46.6,11.8c-0.7,0-1.1-0.3-1.1-0.8c0-0.5,0.4-0.7,1.1-0.7c0.7,0,1,0.2,1,0.7C47.6,11.5,47.2,11.8,46.6,11.8z"/>
<path d="M5.1,20c0,0.7-0.2,1.1-0.7,1c-0.4,0-0.8-0.5-0.8-1.1c0-0.6,0.3-1,0.8-1C4.9,18.9,5.1,19.3,5.1,20z"/>
<path d="M5.1,24.4c0,0.7-0.3,1.1-0.8,1c-0.5,0-0.8-0.4-0.8-1c0-0.6,0.3-1.1,0.8-1C4.9,23.4,5.2,23.7,5.1,24.4z"/>
<path d="M43.7,8.7c0-0.7,0.2-1,0.7-1c0.5,0,0.8,0.4,0.8,1c0,0.6-0.4,1.1-0.8,1.1C43.9,9.8,43.7,9.5,43.7,8.7z"/>
<path d="M42.2,11.8c-0.6,0-1-0.4-1-0.9c0-0.6,0.5-0.6,1-0.7c0.6,0,1.1,0.3,1,0.8C43.2,11.5,42.7,11.8,42.2,11.8z"/>
<path d="M43.7,13.2c0-0.7,0.3-1,0.8-1c0.4,0,0.7,0.5,0.7,1c0,0.6-0.3,1-0.9,1C43.8,14.2,43.7,13.9,43.7,13.2z"/>
<path d="M37.8,20.8c0,0.6-0.3,0.9-0.8,0.9c-0.5,0-0.8-0.5-0.7-1.1c0-0.6,0.3-0.9,0.8-0.9C37.6,19.8,37.8,20.1,37.8,20.8z"/>
<path d="M37.8,25.2c0,0.6-0.3,1-0.8,0.9c-0.4,0-0.7-0.4-0.7-1c0-0.7,0.3-1,0.7-1C37.6,24,37.8,24.4,37.8,25.2z"/>
<path d="M6.7,21.5c0.7,0,1,0.2,0.9,0.7c0,0.5-0.4,0.8-1.1,0.8c-0.7,0-1-0.3-1-0.8C5.6,21.7,5.8,21.5,6.7,21.5z"/>
<path d="M12,35.7c0-0.3,0-0.8,0.6-0.8c0.6,0,0.6,0.5,0.6,0.9c0,0.4-0.1,0.9-0.6,0.9C12.1,36.6,12,36.2,12,35.7z"/>
<path d="M10.7,35.8c0,0.4,0,0.8-0.6,0.8c-0.5,0-0.5-0.4-0.6-0.8c0-0.2,0-0.4,0-0.5c0.2-0.2,0.4-0.4,0.6-0.5c0.2,0.2,0.3,0.4,0.5,0.6
	C10.7,35.5,10.7,35.7,10.7,35.8z"/>
<path d="M20.1,30.6c-0.2,0.2-0.4,0.6-0.7,0.6c-0.5,0.1-0.5-0.4-0.5-0.8c0-0.3,0.1-0.7,0.5-0.7C19.9,29.7,20,30.1,20.1,30.6z"/>
<path d="M15.4,36.1c-0.5,0-0.7-0.3-0.6-0.7c0.1-0.2,0.3-0.5,0.5-0.6c0.3-0.1,0.5,0.2,0.6,0.6C15.9,35.8,15.7,36.1,15.4,36.1z"/>
<g>
	<path d="M26.3,38.8c0-5.6,4.5-10.2,10.2-10.3c5.7,0,10.3,4.6,10.3,10.2c0,5.7-4.6,10.3-10.2,10.3C31.1,49.1,26.2,44.6,26.3,38.8z
		 M36.5,47.5c4.8,0.1,8.8-3.9,8.7-8.9c-0.1-4.6-3.9-8.6-8.8-8.6c-4.8,0-8.6,3.9-8.6,8.7C27.8,43.7,31.6,47.5,36.5,47.5z"/>
	<g>
		<path d="M42.2,34.1c-1.9-1.1-3.8-2.2-5.7-3.3c-0.4,0.2-0.8,0.4-1.1,0.7c-1.9,1.1-3.8,2.2-5.7,3.3c2.3,1.3,4.5,2.6,6.8,3.9
			c0,0,0.1,0,0.1,0c2.3-1.3,4.5-2.6,6.8-3.9C43,34.6,42.6,34.4,42.2,34.1z M41.7,34.8c-1.7,1-3.3,1.9-5,2.9c-0.1,0-0.1,0.1-0.2,0.1
			c-1.7-1-3.4-2-5.1-2.9c0,0,0-0.1,0.1-0.1c1.5-0.9,3-1.8,4.6-2.6v0c0,0,0,0,0.1,0l0.5-0.3l0,0l0.4,0.2C38.5,33,40.1,33.9,41.7,34.8
			C41.7,34.8,41.7,34.8,41.7,34.8L41.7,34.8z"/>
		<path d="M35.9,32.3c0.2-0.1,0.4-0.2,0.6-0.3c0,0.3,0,0.6,0,0.9c-0.8,0.5-1.6,0.9-2.4,1.4c-0.6,0.3-1.1,0.6-1.7,1
			c-0.3-0.2-0.5-0.3-0.8-0.5C33,34,34.5,33.2,35.9,32.3z"/>
		<path d="M36.6,32c1.6,0.9,3.3,1.9,4.9,2.8c-0.3,0.2-0.5,0.3-0.8,0.5c-1.4-0.8-2.7-1.6-4.1-2.4C36.6,32.6,36.6,32.3,36.6,32z"/>
		<path d="M36.5,33.1c0,1.5,0,3.1,0,4.6c-0.3-0.2-0.6-0.4-0.9-0.5c0-1.2,0-2.3,0-3.5C35.9,33.4,36.2,33.2,36.5,33.1z"/>
		<path d="M36.6,33.1c0.3,0.2,0.6,0.4,0.9,0.5c0,1.2,0,2.3,0,3.5c-0.3,0.2-0.6,0.4-0.9,0.5C36.6,36.1,36.6,34.6,36.6,33.1L36.6,33.1
			z"/>
		<path d="M33.6,36c0.6-0.4,1.2-0.7,1.9-1.1c0,0.2,0,0.3,0,0.5c-0.5,0.3-0.9,0.5-1.4,0.8c0,0-0.1,0-0.1,0C33.8,36.1,33.7,36,33.6,36
			L33.6,36z"/>
		<path d="M37.6,34.9c0.4,0.2,0.9,0.5,1.3,0.7c0.2,0.1,0.4,0.2,0.6,0.3c-0.1,0.1-0.3,0.2-0.4,0.2c0,0-0.1,0-0.1,0
			c-0.5-0.3-0.9-0.5-1.4-0.8C37.6,35.2,37.6,35,37.6,34.9L37.6,34.9z"/>
		<path d="M36.5,38.9c-1.8-1-3.5-2-5.3-3.1c-0.3-0.2-0.6-0.4-0.9-0.5c-0.2-0.1-0.4-0.2-0.6-0.4c0,2.6,0,5.3,0,7.9
			c0.3,0.2,0.6,0.3,0.9,0.5c2,1.2,4,2.3,6,3.5C36.5,44.1,36.5,41.5,36.5,38.9L36.5,38.9z M35.6,45.3c-0.7-0.4-1.5-0.8-2.2-1.3
			c-1-0.6-2-1.1-3-1.7c0-2,0-4,0-6c0.3,0.2,0.6,0.4,0.9,0.5c1.4,0.8,2.8,1.6,4.2,2.4C35.6,41.3,35.6,43.3,35.6,45.3L35.6,45.3z"/>
		<path d="M43.4,34.9c-0.5,0.3-1,0.6-1.4,0.8c-1.8,1-3.6,2.1-5.3,3.1c0,2.6,0,5.3,0,7.9c2.3-1.3,4.5-2.6,6.8-3.9
			C43.4,40.2,43.4,37.6,43.4,34.9L43.4,34.9z M42.5,42.4c-1.6,0.9-3.1,1.8-4.6,2.7c-0.2,0.1-0.3,0.2-0.5,0.3c0-2,0-4,0-6
			c1.7-1,3.4-2,5.2-3C42.5,38.4,42.5,40.4,42.5,42.4z"/>
		<path d="M34.1,36.3c0.4-0.3,0.9-0.5,1.3-0.8c0,0.2,0,0.3,0,0.5c-0.3,0.2-0.6,0.3-0.9,0.5C34.4,36.4,34.2,36.4,34.1,36.3z"/>
		<path d="M37.6,35.5c0.4,0.3,0.9,0.5,1.3,0.8c-0.1,0.1-0.3,0.2-0.4,0.3c-0.3-0.2-0.6-0.3-0.9-0.5C37.6,35.8,37.6,35.7,37.6,35.5
			L37.6,35.5z"/>
		<path d="M30.6,36.5c0.3,0.2,0.5,0.3,0.8,0.5c0,1.6,0,3.1,0,4.7c-0.3,0.2-0.6,0.3-0.8,0.5c0-1.1,0-2.2,0-3.2
			C30.6,38.2,30.6,37.4,30.6,36.5L30.6,36.5z"/>
		<path d="M41.6,37.1c0.3-0.2,0.5-0.3,0.8-0.5c0,0.7,0,1.4,0,2.1c0,0.4,0,0.8,0,1.2c0,0.8,0,1.6,0,2.4c-0.3-0.2-0.6-0.3-0.8-0.5
			C41.6,40.2,41.6,38.6,41.6,37.1z"/>
		<path d="M32.5,37.7c0.1,0.1,0.3,0.2,0.4,0.2c0,0.6,0,1.1,0,1.7c-0.1,0.1-0.3,0.2-0.4,0.3C32.5,39.1,32.5,38.4,32.5,37.7z"/>
		<path d="M40,38c0.1-0.1,0.3-0.2,0.4-0.2c0,0.7,0,1.5,0,2.2c-0.1-0.1-0.3-0.2-0.4-0.2C40,39.1,40,38.5,40,38z"/>
		<path d="M33.1,38c0.1,0.1,0.3,0.2,0.4,0.2c0,0.4,0,0.7,0,1.1c-0.1,0.1-0.3,0.2-0.4,0.2C33.1,39,33.1,38.5,33.1,38z"/>
		<path d="M39.5,38.3c0.1-0.1,0.3-0.2,0.4-0.2c0,0.5,0,1,0,1.6c-0.1-0.1-0.3-0.1-0.4-0.2C39.5,39,39.5,38.6,39.5,38.3L39.5,38.3z"/>
		<path d="M34.5,38.8c0.3,0.2,0.6,0.4,0.9,0.5c-0.4,0.2-0.8,0.5-1.2,0.7c-0.6,0.3-1.2,0.7-1.7,1c-0.4,0.2-0.7,0.4-1.1,0.6
			c0-0.4,0-0.7,0-1.1c0.8-0.5,1.6-0.9,2.4-1.4C34.1,39.1,34.3,39,34.5,38.8L34.5,38.8z"/>
		<path d="M38.4,38.9C38.4,38.9,38.4,38.9,38.4,38.9c0.2,0,0.3,0.1,0.4,0.1c0.9,0.5,1.9,1.1,2.8,1.6c0,0.4,0,0.7,0,1.1
			c-0.9-0.5-1.7-1-2.6-1.5c-0.5-0.3-1-0.5-1.4-0.8C37.8,39.3,38.1,39.1,38.4,38.9L38.4,38.9z"/>
		<path d="M31.6,41.8c1.3-0.8,2.6-1.5,4-2.3c0,0.4,0,0.7,0,1.1c-0.7,0.4-1.4,0.8-2.2,1.2c-0.3,0.1-0.5,0.3-0.8,0.4
			c0,0-0.1,0.1-0.1,0C32.2,42.1,31.9,41.9,31.6,41.8z"/>
		<path d="M37.5,39.5c1.3,0.8,2.7,1.5,4,2.3c-0.3,0.2-0.6,0.3-0.9,0.5c0,0-0.1,0.1-0.1,0c-1-0.6-2-1.1-3-1.7
			C37.5,40.3,37.5,39.9,37.5,39.5L37.5,39.5z"/>
		<path d="M34.2,41.5c0.1-0.1,0.3-0.2,0.4-0.2c0.3,0.2,0.6,0.3,0.9,0.5c0,0.2,0,0.3,0,0.5C35.1,42,34.6,41.7,34.2,41.5z"/>
		<path d="M38.3,41.3c0,0,0.1,0,0.1,0c0.1,0.1,0.2,0.1,0.4,0.2c0,0,0,0,0,0c-0.4,0.2-0.9,0.5-1.3,0.7c0-0.2,0-0.3,0-0.5
			C37.8,41.6,38,41.4,38.3,41.3z"/>
		<path d="M33.7,41.8c0.1-0.1,0.3-0.2,0.4-0.3c0.5,0.3,0.9,0.6,1.4,0.8c0,0.2,0,0.3,0,0.5c-0.3-0.2-0.7-0.4-1-0.6
			C34.2,42.1,33.9,41.9,33.7,41.8L33.7,41.8z"/>
		<path d="M38.9,41.6c0.2,0.1,0.3,0.2,0.5,0.3c-0.6,0.4-1.2,0.7-1.9,1.1c0-0.2,0-0.3,0-0.5C38,42.1,38.4,41.8,38.9,41.6z"/>
		<path d="M31.2,42c0.1,0,0.2-0.1,0.3-0.1c0.1,0,0.2,0.1,0.3,0.1c1.3,0.7,2.5,1.5,3.8,2.2c0,0.3,0,0.6,0,1c-1.6-0.9-3.2-1.9-4.8-2.8
			c0,0-0.1,0-0.1,0C30.8,42.2,31,42.1,31.2,42L31.2,42z"/>
		<path d="M41.4,42c0.1,0,0.1-0.1,0.2-0.1c0.1,0,0.1,0,0.1,0.1c0.2,0.1,0.4,0.3,0.7,0.4c-1.6,0.9-3.3,1.9-4.9,2.8c0-0.3,0-0.6,0-1
			C38.8,43.5,40.1,42.7,41.4,42L41.4,42z"/>
		<path class="st0" d="M43,34.4c-2.2-1.2-4.3-2.5-6.5-3.7h0c-0.4,0.2-0.7,0.4-1.1,0.6c-2,1.1-3.9,2.3-5.9,3.4v8.1
			c0.2,0.1,0.4,0.3,0.7,0.4c2.1,1.2,4.2,2.4,6.3,3.6c0,0,0.1,0,0.1,0c2.3-1.3,4.6-2.7,6.9-4v-8.2C43.3,34.6,43.2,34.5,43,34.4
			L43,34.4z M36.5,46.8c-2-1.2-4-2.3-6-3.5c-0.3-0.2-0.6-0.3-0.9-0.5c0-2.6,0-5.3,0-7.9c0.2,0.1,0.4,0.2,0.6,0.4
			c0.3,0.2,0.6,0.4,0.9,0.5c1.8,1,3.5,2,5.3,3.1C36.5,41.5,36.5,44.1,36.5,46.8L36.5,46.8z M43.4,42.8c-2.3,1.3-4.5,2.6-6.8,3.9
			c0-2.6,0-5.3,0-7.9c1.8-1,3.6-2.1,5.3-3.1c0.5-0.3,1-0.6,1.4-0.8C43.4,37.6,43.4,40.2,43.4,42.8L43.4,42.8z M36.6,38.7
			C36.6,38.8,36.5,38.8,36.6,38.7c-2.4-1.3-4.6-2.6-6.9-3.9c1.9-1.1,3.8-2.2,5.7-3.3c0.4-0.2,0.8-0.4,1.1-0.7
			c1.9,1.1,3.8,2.2,5.7,3.3c0.4,0.2,0.8,0.4,1.2,0.7C41.1,36.1,38.9,37.4,36.6,38.7z"/>
		<path class="st0" d="M41.7,34.8c-1.6-0.9-3.2-1.8-4.8-2.8l0,0c0,0-0.1-0.1-0.1-0.1l0,0l-0.1-0.1l0,0l0,0l-0.1,0l0,0l0,0l0,0l0,0
			l-0.1,0c-1.6,0.9-3.2,1.9-4.9,2.8c0,0,0,0-0.1,0.1c1.7,1,3.4,2,5.1,2.9c0.1,0,0.1,0,0.2-0.1C38.3,36.7,40,35.8,41.7,34.8
			C41.7,34.8,41.7,34.8,41.7,34.8L41.7,34.8z M33.4,35.9c-0.2-0.1-0.3-0.2-0.5-0.3c-0.1-0.1-0.2-0.1-0.4-0.2c1-0.6,1.9-1.1,2.9-1.7
			c0,0.4,0,0.7,0,1.1c-0.6,0.3-1.2,0.7-1.8,1C33.6,35.8,33.5,35.8,33.4,35.9C33.4,35.9,33.4,35.9,33.4,35.9z M34,36.2
			c-0.1-0.1-0.3-0.2-0.4-0.2c0.6-0.4,1.2-0.7,1.9-1.1c0,0.2,0,0.3,0,0.5C35,35.6,34.5,35.9,34,36.2C34,36.2,34,36.2,34,36.2L34,36.2
			z M35.4,37c-0.1-0.1-0.2-0.1-0.3-0.2c-0.2-0.1-0.3-0.2-0.5-0.3c0.3-0.2,0.5-0.3,0.8-0.5C35.4,36.4,35.4,36.7,35.4,37z M35.4,36
			c-0.3,0.2-0.6,0.3-0.9,0.5c-0.1-0.1-0.3-0.2-0.4-0.3c0.4-0.3,0.9-0.5,1.3-0.8C35.4,35.7,35.4,35.8,35.4,36z M36.5,37.6
			c-0.3-0.2-0.6-0.4-0.9-0.5c0-1.2,0-2.3,0-3.5c0.3-0.2,0.6-0.4,0.9-0.5C36.5,34.6,36.5,36.1,36.5,37.6z M36.5,32.9
			c-0.8,0.5-1.6,0.9-2.4,1.4c-0.6,0.3-1.1,0.6-1.7,1c-0.3-0.2-0.5-0.3-0.8-0.5c1.4-0.8,2.9-1.7,4.3-2.5c0.2-0.1,0.4-0.2,0.6-0.3
			C36.5,32.3,36.5,32.6,36.5,32.9z M37.5,37.1c-0.3,0.2-0.6,0.4-0.9,0.5c0-1.5,0-3,0-4.6c0.3,0.2,0.6,0.4,0.9,0.5
			C37.5,34.8,37.5,35.9,37.5,37.1L37.5,37.1z M37.6,37c0-0.3,0-0.6,0-0.9c0.3,0.1,0.5,0.3,0.8,0.4C38.2,36.7,37.9,36.9,37.6,37z
			 M38.5,36.5c-0.3-0.2-0.6-0.3-0.9-0.5c0-0.2,0-0.3,0-0.5c0.4,0.3,0.9,0.5,1.3,0.8C38.8,36.4,38.7,36.4,38.5,36.5L38.5,36.5z
			 M39.1,36.2C39.1,36.2,39,36.2,39.1,36.2c-0.5-0.3-1-0.5-1.5-0.8c0-0.2,0-0.3,0-0.5c0.4,0.2,0.9,0.5,1.3,0.7
			c0.2,0.1,0.4,0.2,0.6,0.3C39.4,36,39.2,36.1,39.1,36.2z M40.5,35.4c-0.3,0.2-0.6,0.3-0.9,0.5c0,0-0.1,0-0.1,0
			c-0.5-0.3-0.9-0.5-1.4-0.8c-0.2-0.1-0.3-0.2-0.5-0.3c0-0.4,0-0.7,0-1.1c0.5,0.3,0.9,0.5,1.4,0.8C39.5,34.8,40,35,40.5,35.4
			C40.5,35.4,40.5,35.4,40.5,35.4L40.5,35.4z M40.7,35.3c-1.4-0.8-2.7-1.6-4.1-2.4c0-0.3,0-0.6,0-1c1.6,0.9,3.3,1.9,4.9,2.8
			C41.2,35,40.9,35.1,40.7,35.3z"/>
		<path class="st0" d="M36.5,31.8C36.5,31.9,36.4,31.9,36.5,31.8C36.4,31.9,36.4,31.9,36.5,31.8c-0.1,0.1-0.1,0.1-0.2,0.1L36.5,31.8
			L36.5,31.8L36.5,31.8C36.4,31.9,36.5,31.8,36.5,31.8z"/>
		<path class="st0" d="M35.6,39.3c-1.4-0.8-2.8-1.6-4.2-2.4c-0.3-0.2-0.6-0.4-0.9-0.5c0,2,0,4,0,6c1,0.6,2,1.1,3,1.7
			c0.7,0.4,1.5,0.8,2.2,1.3C35.6,43.3,35.6,41.3,35.6,39.3L35.6,39.3z M35.5,44.1c-1-0.6-1.9-1.1-2.9-1.7c0,0,0.1-0.1,0.1-0.1
			c0.3-0.1,0.5-0.3,0.8-0.5c0.7,0.4,1.3,0.8,2,1.1C35.5,43.3,35.5,43.7,35.5,44.1L35.5,44.1z M35.5,42.3c0,0.2,0,0.3,0,0.5
			c-0.3-0.2-0.7-0.4-1-0.6c-0.3-0.2-0.6-0.3-0.8-0.5c0.1-0.1,0.3-0.2,0.4-0.3C34.6,41.8,35.1,42.1,35.5,42.3L35.5,42.3z M34.2,41.5
			c0.1-0.1,0.3-0.2,0.4-0.2c0.3,0.2,0.6,0.3,0.9,0.5c0,0.2,0,0.3,0,0.5C35.1,42,34.6,41.7,34.2,41.5L34.2,41.5z M35.5,41.6
			c-0.3-0.1-0.5-0.3-0.8-0.4c0,0-0.1,0-0.1,0c0.3-0.2,0.5-0.3,0.8-0.5C35.5,41,35.5,41.3,35.5,41.6L35.5,41.6z M35.5,40.6
			c-0.7,0.4-1.4,0.8-2.2,1.2c-0.3,0.1-0.5,0.3-0.8,0.4c0,0-0.1,0.1-0.1,0c-0.3-0.2-0.6-0.4-0.9-0.5c1.3-0.8,2.6-1.5,4-2.3
			C35.5,39.8,35.5,40.2,35.5,40.6z M35.5,39.4c-0.4,0.2-0.8,0.5-1.2,0.7c-0.6,0.3-1.2,0.7-1.7,1c-0.4,0.2-0.7,0.4-1.1,0.6
			c0-0.4,0-0.7,0-1.1c0.8-0.5,1.6-0.9,2.4-1.4c0.2-0.1,0.4-0.3,0.7-0.4C34.9,39,35.2,39.2,35.5,39.4L35.5,39.4z M33.6,38.3
			c0.2,0.1,0.4,0.2,0.6,0.4c0.1,0,0.1,0.1,0.2,0.1c-0.3,0.2-0.5,0.3-0.8,0.5C33.6,38.9,33.6,38.6,33.6,38.3L33.6,38.3z M33.1,38
			c0.1,0.1,0.3,0.2,0.4,0.2c0,0.4,0,0.7,0,1.1c-0.1,0.1-0.3,0.2-0.4,0.2C33.1,39,33.1,38.5,33.1,38z M32.6,37.7
			c0.1,0.1,0.3,0.2,0.4,0.2c0,0.6,0,1.1,0,1.7c-0.1,0.1-0.3,0.2-0.4,0.3C32.6,39.1,32.6,38.4,32.6,37.7z M31.5,38.8
			c0-0.6,0-1.1,0-1.7c0.3,0.2,0.6,0.4,0.9,0.5c0,0.8,0,1.5,0,2.3c-0.3,0.2-0.6,0.4-0.9,0.5C31.5,39.9,31.5,39.3,31.5,38.8L31.5,38.8
			z M30.6,39c0-0.8,0-1.6,0-2.4c0.3,0.2,0.5,0.3,0.8,0.5c0,1.6,0,3.1,0,4.7c-0.3,0.2-0.6,0.3-0.8,0.5C30.6,41.1,30.6,40,30.6,39
			L30.6,39z M35.5,45.1c-1.6-0.9-3.2-1.9-4.8-2.8c0,0-0.1,0-0.1,0c0.2-0.1,0.4-0.2,0.6-0.3c0.1,0,0.2-0.1,0.3-0.1
			c0.1,0,0.2,0.1,0.3,0.1c1.3,0.7,2.5,1.5,3.8,2.2C35.5,44.5,35.5,44.8,35.5,45.1L35.5,45.1z"/>
		<path class="st0" d="M42.5,36.4c-1.7,1-3.4,2-5.2,3c0,2,0,4,0,6c0.2-0.1,0.3-0.2,0.5-0.3c1.5-0.9,3.1-1.8,4.6-2.7
			C42.5,40.4,42.6,38.4,42.5,36.4z M40.6,37.6c0.3-0.2,0.6-0.4,0.9-0.5c0,0.8,0,1.5,0,2.3c0,0.4,0,0.7,0,1.1
			c-0.3-0.2-0.6-0.4-0.9-0.5C40.6,39.2,40.6,38.4,40.6,37.6L40.6,37.6z M40,38c0.1-0.1,0.3-0.2,0.4-0.2c0,0.7,0,1.5,0,2.2
			c-0.1-0.1-0.3-0.2-0.4-0.2C40,39.1,40,38.5,40,38z M39.5,38.2c0.1-0.1,0.3-0.2,0.4-0.2c0,0.5,0,1,0,1.6c-0.1-0.1-0.3-0.1-0.4-0.2
			C39.5,39,39.5,38.6,39.5,38.2L39.5,38.2z M39.4,38.3c0,0.3,0,0.7,0,1c-0.3-0.2-0.6-0.3-0.9-0.5C38.9,38.6,39.2,38.5,39.4,38.3
			L39.4,38.3z M38.4,38.9C38.4,38.9,38.4,38.9,38.4,38.9c0.2,0,0.3,0.1,0.4,0.1c0.9,0.5,1.9,1.1,2.8,1.6c0,0.4,0,0.7,0,1.1
			c-0.9-0.5-1.7-1-2.6-1.5c-0.5-0.3-1-0.5-1.4-0.8C37.8,39.2,38.1,39.1,38.4,38.9z M37.5,39.5c1.3,0.8,2.7,1.5,4,2.3
			c-0.3,0.2-0.6,0.3-0.9,0.5c0,0-0.1,0.1-0.1,0c-1-0.6-2-1.1-3-1.7C37.5,40.3,37.5,39.9,37.5,39.5L37.5,39.5z M40.4,42.4
			c-0.7,0.4-1.4,0.8-2.1,1.2c-0.3,0.1-0.5,0.3-0.8,0.4c0-0.4,0-0.7,0-1.1c0.7-0.4,1.3-0.8,2-1.1C39.8,42,40.1,42.2,40.4,42.4
			L40.4,42.4z M38.8,41.5c-0.4,0.2-0.9,0.5-1.3,0.7c0-0.2,0-0.3,0-0.5c0.3-0.2,0.5-0.3,0.8-0.5c0,0,0.1,0,0.1,0
			C38.5,41.3,38.6,41.4,38.8,41.5C38.8,41.5,38.8,41.5,38.8,41.5L38.8,41.5z M37.5,40.7c0.3,0.1,0.5,0.3,0.8,0.4
			c-0.3,0.1-0.5,0.3-0.8,0.4C37.5,41.3,37.5,41,37.5,40.7z M37.5,42.4c0.5-0.3,0.9-0.5,1.4-0.8c0.2,0.1,0.3,0.2,0.5,0.3
			c-0.6,0.4-1.2,0.7-1.9,1.1C37.5,42.7,37.5,42.5,37.5,42.4z M37.5,45.2c0-0.3,0-0.6,0-1c1.3-0.8,2.6-1.5,3.9-2.3
			c0.1,0,0.1-0.1,0.2-0.1c0.1,0,0.1,0,0.1,0.1c0.2,0.1,0.4,0.3,0.7,0.4C40.8,43.3,39.1,44.2,37.5,45.2L37.5,45.2z M42.5,42.2
			c-0.3-0.2-0.6-0.3-0.8-0.5c0-1.6,0-3.1,0-4.7c0.3-0.2,0.5-0.3,0.8-0.5c0,0.7,0,1.4,0,2.1c0,0.4,0,0.8,0,1.2
			C42.5,40.6,42.4,41.4,42.5,42.2z"/>
	</g>
</g>
</svg>
