<?xml version="1.0" encoding="utf-8"?>
<!-- Generator: Adobe Illustrator 27.9.0, SVG Export Plug-In . SVG Version: 6.00 Build 0)  -->
<svg version="1.1" xmlns="http://www.w3.org/2000/svg" xmlns:xlink="http://www.w3.org/1999/xlink" x="0px" y="0px"
	 viewBox="0 0 150 150" style="enable-background:new 0 0 150 150;" xml:space="preserve">
<style type="text/css">
	.st0{display:none;}
	.st1{display:inline;}
	.st2{fill:#000101;}
	.st3{stroke:#FFFFFF;stroke-width:0.25;stroke-miterlimit:10;}
</style>
<g id="Layer_1" class="st0">
	<g class="st1">
		<path class="st2" d="M91,62.4c-0.3-0.1-0.6-0.1-0.9-0.1c-0.4,0-0.9,0.1-1.3,0.2c-1.7,0.5-3,2.1-3,3.9c0,0.9,0.3,1.7,0.8,2.4
			c0.5,0.6,1.1,1.1,1.8,1.4c0.5,0.2,1.1,0.3,1.7,0.3c2.3,0,4.2-1.8,4.2-4.1C94.3,64.5,92.9,62.8,91,62.4L91,62.4L91,62.4z M87,66.4
			c0-1.7,1.4-3,3.1-3s3.1,1.3,3.1,3c0,1.7-1.4,3-3.1,3C88.4,69.4,87,68.1,87,66.4z"/>
		<g>
			<g>
				<path class="st2" d="M103.3,139.9v-1.6C103.2,138.9,103.2,139.4,103.3,139.9z M103.3,139.9v-1.6
					C103.2,138.9,103.2,139.4,103.3,139.9z M64.7,28.8C64.7,28.8,64.7,28.8,64.7,28.8l-1.9,0V31h1.9c0-0.7,0-1.4,0-2c0,0,0,0,0,0
					c0,0,0,0,0,0C64.7,28.9,64.7,28.9,64.7,28.8C64.7,28.9,64.7,28.8,64.7,28.8L64.7,28.8L64.7,28.8z M103.3,132.3v1.7
					c0.7,0,1.4-0.1,2.1-0.1v-1.6L103.3,132.3L103.3,132.3z M105.4,137.5c0-0.8-1.2-1.2-1.7-0.5c-0.2,0.2-0.3,0.6-0.4,0.9
					c0,0.1,0,0.3,0,0.4c0,0.5,0,1.1,0,1.6c0,1.2,0.1,2.4,0.1,3.7c0,0,0,0-0.1,0v0.7h2.1v-6C105.4,138.1,105.4,137.8,105.4,137.5
					L105.4,137.5L105.4,137.5z M108.8,110.1c-0.1-1-1.6-1.2-1.9-0.2c-0.1,0.9,0,1.9,0,2.8l0,0c0.2,0.6,0.5,0.8,0.8,1.2
					c0.4-0.4,1-0.7,1.1-1.7c0-0.5,0-1,0-1.6c0,0,0,0,0,0C108.9,110.4,108.9,110.2,108.8,110.1L108.8,110.1L108.8,110.1z M107,132.3
					v1.5c0.7,0,1.4-0.1,2.1-0.2v-1.4L107,132.3L107,132.3z M109,143.5c0-1.9,0-3.9,0-5.8c0.1-0.5-0.2-0.9-0.7-1
					c-0.6-0.3-1.3,0.1-1.4,0.8v0.1c0,1.5,0,3,0,4.5v2.2h2.1L109,143.5C109.1,143.5,109.1,143.5,109,143.5L109,143.5L109,143.5z
					 M112.4,110v-0.1c0-0.6-0.6-1.1-1.2-1c-0.4,0.1-0.8,0.5-0.8,1c0,1.3,0,2.5,0.1,3.8c0,0,0,0,0,0c0.2,0.8,0.6,1.2,0.9,1.6
					c0.4-0.5,1-0.8,1.1-2C112.5,112.2,112.4,111.1,112.4,110L112.4,110L112.4,110z M110.5,132.2v1.3c0.7-0.1,1.4-0.2,2.1-0.3h0v-1
					H110.5L110.5,132.2z M112.6,143.3C112.6,143.3,112.6,143.3,112.6,143.3c0-1.8,0-3.6,0-5.3c0-0.3,0-0.6,0-0.9c0,0,0,0,0,0v-0.1
					c0-0.6-0.8-1.1-1.4-0.7c-0.5,0.2-0.7,0.7-0.7,1.2c0,2,0,4.1,0,6.1c0,0,0,0-0.1,0v0.7h2.1L112.6,143.3L112.6,143.3L112.6,143.3z
					 M116,108.7L116,108.7c-0.1-0.5-0.6-0.9-1.1-0.8c-0.4,0.1-0.8,0.5-0.8,0.9c0,1.1,0,2.1,0,3.2c0.2,0.7,0.5,1,0.8,1.3
					c0.4-0.5,1-0.8,1.1-1.9C116,110.5,116,109.6,116,108.7L116,108.7L116,108.7z M114,131.5v1.5c0,0,0,0,0,0
					c0.7-0.1,1.4-0.2,2.1-0.4c0,0,0,0,0,0v-1.1H114L114,131.5z M116.2,142.8C116.2,142.8,116.2,142.8,116.2,142.8
					c0-2.1-0.1-4.3,0-6.5c0.1-0.6-0.7-1.2-1.3-1c-0.5,0.1-0.8,0.6-0.8,1.1c0,2.2,0,4.4,0,6.6c0,0,0,0,0,0c0,0,0,0,0,0v0.4h2.2
					L116.2,142.8C116.2,142.8,116.2,142.8,116.2,142.8L116.2,142.8L116.2,142.8z M117.6,129.8v2.5c0.2,0,0.4-0.1,0.6-0.1
					c0.5-0.1,0.9-0.3,1.4-0.5v-1.9H117.6L117.6,129.8z M119.6,135.4c0-0.2-0.1-0.5-0.2-0.7c-0.3-0.1-0.7-0.3-1.1-0.2
					c-0.4,0.2-0.7,0.5-0.7,0.9c0,0.1,0,0.1,0,0.2c0,2.3,0,4.6,0,6.9c0,0,0,0,0,0v0.2h2V142h0c0-0.7,0-1.3,0-2L119.6,135.4
					L119.6,135.4L119.6,135.4z M121.2,129.4v1.6c0.3-0.1,0.6-0.3,0.9-0.5c0.2,0.4,0.6,0.8,0.5,1.4c-0.2,0.8-0.9,1.2-1.4,1.8v8.7h2
					v-13H121.2L121.2,129.4z M103.3,139.9v-1.6C103.2,138.9,103.2,139.4,103.3,139.9z M103.3,139.9v-1.6
					C103.2,138.9,103.2,139.4,103.3,139.9z"/>
				<path class="st2" d="M117.6,135.6v-0.2C117.6,135.5,117.6,135.5,117.6,135.6z"/>
				<path class="st2" d="M117.6,135.6v-0.2C117.6,135.5,117.6,135.5,117.6,135.6z"/>
				<path class="st2" d="M117.6,135.6v-0.2C117.6,135.5,117.6,135.5,117.6,135.6z"/>
			</g>
			<path class="st2" d="M45.4,14.4c1-0.4,2.1,0.7,1.7,1.7c-0.3,0.8-1.4,1.1-2,0.4C44.4,16,44.6,14.8,45.4,14.4L45.4,14.4L45.4,14.4z
				"/>
			<path class="st2" d="M73.3,15c0.6-0.3,1.5,0.2,1.3,1c0,0.6-0.8,1.1-1.3,0.7C72.7,16.3,72.7,15.3,73.3,15z"/>
			<path class="st2" d="M76.5,14.9c0.6-0.3,1.4-0.1,2.1-0.1c0.7,0.1,1.6-0.2,2.2,0.3c0.5,0.5,0.1,1.4-0.4,1.7c-0.7,0.1-1.5,0-2.3,0
				c-0.6,0-1.4,0.2-1.8-0.4C75.8,16,76,15.3,76.5,14.9L76.5,14.9L76.5,14.9z"/>
			<path class="st2" d="M93.1,16c0.1-0.5,0.6-0.9,1.1-1c0.4,0.1,0.9,0.3,1.2,0.7c0.5,0.8-0.1,2-1,2C93.5,17.8,92.9,16.8,93.1,16
				L93.1,16z"/>
			<path class="st2" d="M32.6,24.5c0.2,0.1,0.5,0.1,0.7,0.3c0.9,0.8,1.7,1.6,2.5,2.6c-1,0.1-2.1,0.3-3.1,0.4
				C32.6,26.7,32.3,25.6,32.6,24.5z"/>
			<path class="st2" d="M125.7,46.9c-0.8,2.9-2.2,5.7-4.3,7.9c-1.1,1.1-2.2,2.3-3.6,3c-3.2,1.9-7,2.7-10.7,2.5
				c-2.6-0.2-5.1-1-7.4-2.3c-3.3-1.9-5.9-5-7.5-8.5c-0.7-1.8-1.4-3.7-1.4-5.7c-0.2-2.5,0.1-5.1,0.9-7.5c1.9-5.2,6.3-9.5,11.7-11
				c1.4-0.4,2.8-0.6,4.2-0.7c5.1-0.3,10.1,1.8,13.7,5.3c1.9,2,3.4,4.4,4.2,7.1C126.5,40.3,126.6,43.7,125.7,46.9L125.7,46.9z"/>
			<path class="st2" d="M37.1,24.9c1.3,0.2,2.6,0.6,3.9,0.9c1.1,0.4,2.3,0.7,3.3,1.4c0,1.9,0,3.8,0,5.6c-0.7-0.5-1.4-1.2-2-1.8
				c-1.6-1.6-3.5-3-4.9-4.7C37,26,36.9,25.4,37.1,24.9L37.1,24.9L37.1,24.9z"/>
			<path class="st2" d="M45.8,27.9c2.3,1.3,4.4,3.2,5.3,5.7c0.7,1.8,0.6,3.7,0.3,5.5c-1.1-0.9-2.3-1.9-3.4-2.8
				c-0.8-0.6-1.4-1.3-2.2-1.9C45.9,32.2,45.8,30.1,45.8,27.9L45.8,27.9z"/>
			<path class="st2" d="M33,29.5c1.3-0.3,2.7-0.5,4-0.6c0.4,0.2,0.8,0.6,1.2,0.9c1,0.9,2,1.7,3,2.6c-2.2,0.5-4.4,0.9-6.5,1.4
				C34,32.4,33.4,31,33,29.5L33,29.5L33,29.5z"/>
			<path class="st2" d="M35.3,35.4c2.1-0.6,4.2-0.9,6.3-1.4c0.4-0.1,1-0.3,1.3,0.1c1,0.9,2.2,1.7,3.1,2.7c-2.9,0.8-5.8,1.3-8.7,1.9
				C36.5,37.7,35.8,36.6,35.3,35.4L35.3,35.4L35.3,35.4z"/>
			<path class="st2" d="M27.2,42.7c0.1-0.6,0.9-1.1,1.4-0.6c0.7,0.5,0.1,1.6-0.6,1.4C27.6,43.5,27.4,43,27.2,42.7L27.2,42.7
				L27.2,42.7z"/>
			<path class="st2" d="M27.9,48.2c0.9-0.4,2,0.4,1.8,1.3c-0.1,1-1.4,1.5-2.1,0.7C26.9,49.7,27.2,48.6,27.9,48.2L27.9,48.2z"/>
			<path class="st2" d="M73.5,71.8c0.2-0.4,0.5-0.9,1-1c0.9-0.3,1.9,0.7,1.6,1.6c-0.2,0.8-1.3,1.1-1.9,0.6
				C73.7,72.8,73.6,72.3,73.5,71.8L73.5,71.8z"/>
			<path class="st2" d="M132.3,72.7c0.8-0.1,1.5,0.8,1.1,1.5c-0.3,0.7-1.2,0.8-1.6,0.2C131.2,73.8,131.6,72.8,132.3,72.7z"/>
			<path class="st2" d="M132.2,76.1c0.6-0.2,1.3,0.4,1.3,1c0,1.7,0,3.4,0,5.1c0,0.6-0.4,1.1-1,1.1c-0.6,0.1-1.2-0.5-1.2-1.1
				c0-1.6,0-3.3,0-4.9C131.4,76.8,131.7,76.3,132.2,76.1L132.2,76.1z"/>
			<path class="st2" d="M22.5,78.2c0.6-0.4,1.4,0,1.6,0.6c0.1,0.7,0,1.4,0,2.1c0,0.8,0.1,1.5,0,2.3c-0.1,0.7-1.2,1-1.7,0.5
				C22,83.3,22,82.8,22,82.3c0-1.1,0-2.1,0-3.2C22,78.7,22.2,78.4,22.5,78.2L22.5,78.2L22.5,78.2z"/>
			<path class="st2" d="M89,83.5c-0.3-1.4-1.9-2.6-3.4-2.1c-1.3,0.4-2.1,1.8-1.9,3.1c0.3,1.2,1.4,2,2.5,2.1
				C87.9,86.7,89.3,85.1,89,83.5L89,83.5L89,83.5z M86.3,84.5c-0.5,0-0.7-0.8-0.3-1.1c0.4-0.2,0.9,0,0.9,0.5
				C87,84.3,86.7,84.6,86.3,84.5L86.3,84.5z"/>
			<path class="st2" d="M96,82.9c1-0.5,2.1,0.7,1.7,1.7c-0.2,0.8-1.3,1.1-2,0.6C95,84.6,95.2,83.3,96,82.9L96,82.9z"/>
			<path class="st2" d="M116.9,85.5c0.6-0.3,1.4,0.1,1.7,0.7c0.3,0.5,0.1,1.3-0.4,1.6c-0.8,0.6-2.1-0.3-1.9-1.3
				C116.2,86,116.6,85.7,116.9,85.5z"/>
			<path class="st2" d="M34.3,86.8c0.6-0.2,1.4,0.1,1.6,0.8c0.4,0.9-0.6,2.1-1.5,1.6C33.4,88.8,33.2,87.2,34.3,86.8z"/>
			<path class="st2" d="M51,89.6c0.8-0.4,1.8,0.3,1.6,1.2c0,0.5-0.4,1.1-1,1.1c-0.7,0.1-1.3-0.5-1.3-1.1
				C50.2,90.2,50.5,89.8,51,89.6L51,89.6L51,89.6z"/>
			<path class="st2" d="M32.8,95.1c-0.1-1-0.7-2-1.6-2.5c-0.7-0.4-1.5-0.5-2.3-0.2c-1.6,0.5-2.6,2.5-1.9,4c0.4,1.2,1.7,2,2.9,1.9
				C31.6,98.2,32.9,96.7,32.8,95.1L32.8,95.1L32.8,95.1z M30.5,95.7c-0.3,0.6-1.4,0.5-1.5-0.2c0-0.4,0.1-0.8,0.5-1
				C30.2,94.1,30.9,95,30.5,95.7L30.5,95.7z"/>
			<path class="st2" d="M97.5,95.8c4.5-0.2,9,0.1,13.5,0.6c0.6,0,1.4,0.3,1.5,1c0.1,0.6-0.4,1-0.9,1.1c-0.6,0.1-1.3,0-1.9-0.1
				c-3.6-0.3-7.3-0.6-10.9-0.5c-3.4,0.1-6.7,0.3-10.1,0.6c-0.6,0.1-1.3-0.3-1.3-1c0-0.7,0.7-1.1,1.3-1.1
				C91.5,96.1,94.5,95.9,97.5,95.8L97.5,95.8L97.5,95.8z"/>
			<path class="st2" d="M37.4,126c-1.5,0.1-3,0.1-4.6,0.2c-0.6,0-1.3,0.2-1.3,0.6c0,0.3,0.7,0.5,1.3,0.5c1.5-0.1,3.1-0.1,4.6-0.2
				C37.4,126.8,37.4,126.4,37.4,126L37.4,126L37.4,126z"/>
			<path class="st2" d="M38.4,98.5c-0.1-0.6,0.5-1.2,1.1-1.2c1.2,0,2.5,0,3.7,0c0.6-0.1,1.2,0.4,1.3,1c0.1,0.5-0.3,0.9-0.7,1.2
				c-1.4,0-2.7,0-4.1,0C39.1,99.4,38.5,99,38.4,98.5L38.4,98.5L38.4,98.5z"/>
			<path class="st2" d="M46.7,99.2c-0.6-0.6-0.1-1.7,0.7-1.8c0.6,0.2,1.4,0.8,1,1.5C48.2,99.5,47.2,99.8,46.7,99.2L46.7,99.2
				L46.7,99.2z"/>
			<path class="st2" d="M94.3,100.3c0.6,0,1,0.5,1.2,1c-0.1,0.8-1.2,1.2-1.7,0.5C93.4,101.3,93.8,100.6,94.3,100.3L94.3,100.3
				L94.3,100.3z"/>
			<path class="st2" d="M96.8,100.5c0.6-0.5,1.5,0,1.5,0.8c0.1,1-1.5,1.2-1.8,0.4C96.3,101.2,96.5,100.8,96.8,100.5L96.8,100.5z"/>
			<path class="st2" d="M99.9,100.5c0.7-0.5,1.7,0.2,1.6,1c-0.2,0.7-1.2,1-1.7,0.5C99.3,101.6,99.4,100.8,99.9,100.5L99.9,100.5z"/>
			<path class="st2" d="M98.9,110.3c0.7-0.5,1.7,0.2,1.6,1c-0.2,0.7-1.2,1-1.7,0.5C98.3,111.5,98.4,110.7,98.9,110.3L98.9,110.3
				L98.9,110.3z"/>
			<path class="st2" d="M94.8,110.3c0.7-0.5,1.7,0.2,1.6,1c-0.2,0.7-1.2,1-1.7,0.5C94.2,111.5,94.3,110.7,94.8,110.3L94.8,110.3z"/>
			<path class="st2" d="M90.4,110.1c0.7-0.5,1.7,0.2,1.6,1c-0.2,0.7-1.2,1-1.7,0.5C89.8,111.3,89.9,110.4,90.4,110.1L90.4,110.1z"/>
			<path class="st2" d="M86.3,109.8c0.7-0.5,1.7,0.2,1.6,1c-0.2,0.7-1.2,1-1.7,0.5C85.7,110.9,85.8,110.1,86.3,109.8L86.3,109.8z"/>
			<path class="st2" d="M98.7,118.9c0.7-0.5,1.7,0.2,1.6,1c-0.2,0.7-1.2,1-1.7,0.5C98.1,120.1,98.2,119.2,98.7,118.9L98.7,118.9
				L98.7,118.9z"/>
			<path class="st2" d="M94.6,118.9c0.7-0.5,1.7,0.2,1.6,1c-0.2,0.7-1.2,1-1.7,0.5C94,120.1,94.1,119.2,94.6,118.9L94.6,118.9z"/>
			<path class="st2" d="M90.2,118.7c0.7-0.5,1.7,0.2,1.6,1c-0.2,0.7-1.2,1-1.7,0.5C89.6,119.8,89.7,119,90.2,118.7L90.2,118.7z"/>
			<path class="st2" d="M86.1,118.3c0.7-0.5,1.7,0.2,1.6,1c-0.2,0.7-1.2,1-1.7,0.5C85.5,119.5,85.6,118.7,86.1,118.3L86.1,118.3z"/>
			<path class="st2" d="M99.9,127.9c0.7-0.5,1.7,0.2,1.6,1c-0.2,0.7-1.2,1-1.7,0.5C99.3,129.1,99.4,128.3,99.9,127.9L99.9,127.9z"/>
			<path class="st2" d="M95.8,127.9c0.7-0.5,1.7,0.2,1.6,1c-0.2,0.7-1.2,1-1.7,0.5C95.2,129.1,95.3,128.3,95.8,127.9L95.8,127.9z"/>
			<path class="st2" d="M91.4,127.7c0.7-0.5,1.7,0.2,1.6,1c-0.2,0.7-1.2,1-1.7,0.5C90.8,128.9,90.9,128.1,91.4,127.7L91.4,127.7z"/>
			<path class="st2" d="M99.9,141c0.7-0.5,1.7,0.2,1.6,1c-0.2,0.7-1.2,1-1.7,0.5C99.3,142.1,99.4,141.3,99.9,141L99.9,141z"/>
			<path class="st2" d="M95.8,141c0.7-0.5,1.7,0.2,1.6,1c-0.2,0.7-1.2,1-1.7,0.5C95.2,142.1,95.3,141.3,95.8,141L95.8,141z"/>
			<path class="st2" d="M91.4,140.8c0.7-0.5,1.7,0.2,1.6,1c-0.2,0.7-1.2,1-1.7,0.5C90.8,141.9,90.9,141.1,91.4,140.8L91.4,140.8z"/>
			<path class="st2" d="M110.3,104.3c0.1-0.8,1.2-1,1.8-0.6c0.4,0.3,0.3,0.7,0.3,1.1c0,0.6,0,1.3,0,1.9c-0.1,0.5-0.7,0.6-1.1,0.8
				c-0.4-0.2-0.9-0.3-0.9-0.8C110.3,105.9,110.3,105.1,110.3,104.3L110.3,104.3z"/>
			<path class="st2" d="M106.8,104.9c0.1-0.8,1.2-1,1.8-0.6c0.4,0.3,0.3,0.7,0.3,1.1c0,0.6,0,1.3,0,1.9c-0.1,0.5-0.7,0.6-1.1,0.8
				c-0.4-0.2-0.9-0.3-0.9-0.8C106.7,106.6,106.7,105.7,106.8,104.9L106.8,104.9z"/>
			<path class="st2" d="M108.9,108c0,0.8,0,1.7,0,2.5c0,0,0,0,0,0c0,0.5,0,1,0,1.6c-0.1,1-0.7,1.3-1.1,1.7c-0.3-0.3-0.7-0.6-0.8-1.1
				l0,0c0-0.2-0.1-0.3-0.1-0.5c-0.1-1.7-0.1-3.4,0-5.1c0-0.1,0-0.2,0-0.2c0.1-1.6,1.2-2.1,1.8-1.2c0.2,0.3,0.3,0.7,0.3,1.2v0
				C108.9,107.2,108.9,107.7,108.9,108L108.9,108L108.9,108z"/>
			<path class="st2" d="M113.9,103.5c0.1-0.8,1.2-1,1.8-0.6c0.4,0.3,0.3,0.7,0.3,1.1c0,0.6,0,1.3,0,1.9c-0.1,0.5-0.7,0.6-1.1,0.8
				c-0.4-0.2-0.9-0.3-0.9-0.8C113.8,105.2,113.9,104.4,113.9,103.5L113.9,103.5z"/>
			<path class="st2" d="M116,108.7c0,0.9,0,1.8,0,2.7c-0.1,1.2-0.7,1.5-1.1,1.9c-0.3-0.4-0.7-0.7-0.8-1.3c0-0.2-0.1-0.4-0.1-0.6
				c-0.1-1.9-0.1-3.8,0-5.7c0-0.1,0-0.2,0-0.3c0.1-1.9,1.2-2.4,1.8-1.4c0.2,0.4,0.3,0.9,0.3,1.5c0,0.4,0,0.8,0,1.2
				C116,107.4,116,108,116,108.7L116,108.7L116,108.7L116,108.7z"/>
			<path class="st2" d="M112.4,110c0,1.1,0,2.2,0,3.3c-0.1,1.2-0.7,1.5-1.1,2c-0.3-0.4-0.7-0.7-0.9-1.6c0-0.1,0-0.3-0.1-0.4
				c-0.1-2.1-0.1-4.2,0-6.4c0-0.1,0-0.2,0-0.3c0.2-1.7,1.2-2.2,1.8-1.1c0.2,0.3,0.2,0.7,0.3,1.1c0,0.6,0,1.2,0,1.8c0,0.5,0,1,0,1.5
				L112.4,110L112.4,110L112.4,110z"/>
			<path class="st2" d="M25.1,105.7c0.9-0.5,2.1,0.6,1.7,1.5c-0.2,0.5-0.7,0.9-1.2,0.8c-0.6,0-1-0.6-1.3-1.1
				C24.4,106.6,24.6,106,25.1,105.7L25.1,105.7z"/>
			<path class="st2" d="M28.4,129.1c0.4-0.2,0.9,0.1,1.2,0.4c0.3,0.4,0.2,0.9,0.2,1.4c0,0.8,0.1,1.5-0.1,2.3c-0.2,0.3-0.6,0.6-1,0.5
				c-0.6,0-1-0.6-1-1.1c0-0.9,0-1.8,0-2.6C27.6,129.6,28,129.3,28.4,129.1L28.4,129.1L28.4,129.1z"/>
			<path class="st2" d="M32,129.6c0.4-0.2,0.9,0.1,1.2,0.4c0.3,0.4,0.2,0.9,0.2,1.4c0,0.8,0.1,1.5-0.1,2.3c-0.2,0.3-0.6,0.6-1,0.5
				c-0.6,0-1-0.6-1-1.1c0-0.9,0-1.8,0-2.6C31.3,130.1,31.7,129.8,32,129.6L32,129.6L32,129.6z"/>
			<path class="st2" d="M24.8,128.2c0.4-0.2,0.9,0.1,1.1,0.4c0.3,0.4,0.2,0.9,0.2,1.4c0,0.8,0.1,1.5-0.1,2.3c-0.2,0.3-0.6,0.6-1,0.5
				c-0.5,0-0.9-0.6-0.9-1.1c0-0.9,0-1.8,0-2.6C24,128.7,24.4,128.4,24.8,128.2L24.8,128.2L24.8,128.2z"/>
			<path class="st2" d="M139.2,143.6c0.9-0.4,1.8,0.7,1.5,1.6c-0.3,0.9-1.8,0.9-2.1,0.1C138.1,144.7,138.5,143.8,139.2,143.6
				L139.2,143.6z"/>
			<path class="st2" d="M9.6,143.7c0.8-0.4,1.9,0.3,1.7,1.2c-0.1,0.8-1.1,1.3-1.8,0.8C8.7,145.3,8.8,144.1,9.6,143.7L9.6,143.7z"/>
			<path class="st2" d="M135.6,143.9c0.7-0.5,1.7,0.6,1.3,1.3c-0.2,0.4-0.7,0.7-1.2,0.5C135.1,145.4,135,144.3,135.6,143.9
				L135.6,143.9z"/>
			<rect x="62.7" y="28.8" class="st2" width="2.2" height="2.2"/>
			<rect x="117.6" y="129.8" class="st2" width="2" height="13"/>
			<rect x="121.2" y="129.4" class="st2" width="2" height="13"/>
			<rect x="114" y="131.5" class="st2" width="2.2" height="12"/>
			<rect x="110.5" y="132.2" class="st2" width="2.1" height="12"/>
			<path class="st2" d="M109.1,132.3v12H107v-2.2c0-1.5,0-3,0-4.5v-5.2L109.1,132.3L109.1,132.3z"/>
			<rect x="103.3" y="132.3" class="st2" width="2.1" height="12"/>
		</g>
		<path id="center" class="st3" d="M95.2,47.7L107,41l0.2,2.2L95.3,50"/>
		<path id="center-2" class="st3" d="M108.2,28.2l2,1v13.6l-2-0.9L108.2,28.2"/>
		<path id="center-3" class="st3" d="M108.1,28.2l-2,1v13.6l2-0.9V28.2"/>
		<path id="center-4" class="st3" d="M107.4,44.7l1.8-1.3l11.9,6.8v0l-1.9,1.2L107.4,44.7L107.4,44.7L107.4,44.7z"/>
		<path id="center-5" class="st3" d="M109.4,41.1l-0.2,2.2l11.9,6.8l0,0l0.1-2.3L109.4,41.1L109.4,41.1L109.4,41.1z"/>
		<path id="center-6" class="st3" d="M95.3,50.1l1.9,1.2l11.8-6.8l-1.9-1.3L95.3,50.1"/>
		<path class="st3" d="M98.4,36.8c-0.3-0.5-0.5-1.1-0.7-1.7L98.4,36.8z"/>
		<path class="st3" d="M108.1,29.1l-10.4,6c0.1,0.6,0.3,1.2,0.7,1.7l9.7-5.6L108.1,29.1"/>
		<path class="st3" d="M108.1,29.1v2.1l9.3,5.4c0.6-0.2,1.3-0.6,1.6-1.1L108.1,29.1"/>
		<path class="st3" d="M119.1,35.4c-0.4,0.6-1,0.9-1.6,1.1L119.1,35.4z"/>
		<path class="st3" d="M107.3,53.6l-9.1-5.2l-1.8,1l10.4,6"/>
		<path class="st3" d="M96.6,37.4c0.6,0.1,1.2,0.2,1.8,0.4L96.6,37.4z"/>
		<path class="st3" d="M96.4,37.4l0,12l1.8-1l0-10.5C97.6,37.6,97,37.5,96.4,37.4L96.4,37.4L96.4,37.4z"/>
		<path class="st3" d="M109.7,55.3l10-5.8l-1.8-1l-8.6,5"/>
		<path class="st3" d="M117.9,37.9c0.5-0.4,1.2-0.5,1.8-0.5L117.9,37.9z"/>
		<path class="st3" d="M117.9,37.9l0,10.5l1.8,1l0-12.1C119.1,37.5,118.4,37.5,117.9,37.9L117.9,37.9L117.9,37.9z"/>
		<path id="CUBE_3" class="st3" d="M121.6,34.9L108,42.7l0,15.6c0.1,0,0.1,0,0.1,0.1l13.5-7.8L121.6,34.9
			C121.6,34.8,121.6,34.9,121.6,34.9L121.6,34.9L121.6,34.9z M119.8,49.5l-9.9,5.7V43.8l9.9-5.7V49.5L119.8,49.5z"/>
		<path id="CUBE_3-2" class="st3" d="M108.1,42.6L108.1,42.6l13.5-7.8v-0.1l-13.5-7.8l0,0c-0.1,0.1-12.9,7.5-13.6,7.9
			C94.6,34.8,108.1,42.6,108.1,42.6L108.1,42.6L108.1,42.6z M118,34.8L118,34.8l-9.9,5.7l0,0l-9.9-5.7v0l9.9-5.7L118,34.8L118,34.8z
			"/>
		<path id="CUBE_3-3" class="st3" d="M108.2,58.3C108.2,58.3,108.2,58.3,108.2,58.3l0-15.7c0,0,0,0,0,0c-0.2-0.1-13.5-7.8-13.6-7.8
			l0,0c0,0.2,0,15.4,0,15.7L108.2,58.3L108.2,58.3L108.2,58.3z M96.4,38l9.9,5.7v11.4l-9.9-5.7V38L96.4,38z"/>
		<rect x="62.4" y="23.8" class="st2" width="2.5" height="81"/>
		<path class="st2" d="M83.8,35.2c-0.8,1.7-2,3.2-3.3,4.5c-1.4,1.2-3.2,2-5.1,2c-1.4,0-2.8-0.4-3.9-1.4c0.2-0.3,0.5-0.5,0.8-0.8
			c1.2,0.7,2.7,1.1,4.1,0.8c1.6-0.3,3.1-1.3,4.1-2.5c-2.2-0.4-4.5-0.9-6.7-1.4c-1.1,0.9-2.2,1.7-3.4,2.4c-1.1-1.9-1.1-4.2-0.4-6.2
			c0.6-1.9,2.1-3.4,3.7-4.4c1.7-1.1,3.6-1.9,5.6-2.4c2.2-0.6,4.6-0.9,6.9-0.9C86.2,28.5,85.4,32.1,83.8,35.2L83.8,35.2L83.8,35.2z
			 M87.4,23.4c-0.4-0.2-0.8-0.1-1.2-0.1c-1.2,0.1-2.5,0.1-3.7,0.3c-3,0.5-6,1.1-8.7,2.6c-2.1,1.1-3.9,2.9-5,5.1
			c-1.2,2.7-1.2,6.1,0.4,8.7c-1.4,1.3-2.8,2.5-4.3,3.7c0,0,0,0,0,0c-0.4,0.3-0.7,0.6-1.1,0.9c-0.3,0.2-0.6,0.5-0.9,0.7
			c-0.1,0.1-0.2,0.2-0.2,0.3c0,0,0,0,0,0c0,1.2,0,2.5,0,3.7c0,0,0,0,0,0c0,0,0,0,0,0c0-0.4,0-0.8,0-1.2c0-0.1,0-0.1,0-0.2
			c0-0.4,0.5-0.6,0.7-0.8c0.5-0.3,0.9-0.5,1.4-0.7c0,0,0,0,0,0c1.8-0.7,3.9-0.7,5.8-0.1c0.4,0.1,0.7,0.3,1,0.5
			c0.3,0.2,0.8,0.1,1.1-0.2c0.3-0.4,0.2-1-0.2-1.3c-0.4-0.3-1-0.5-1.5-0.7c-1.4-0.4-2.9-0.5-4.3-0.4c1.1-1.1,2.4-2,3.5-3
			c1,1.1,2.5,1.8,3.9,2c1.8,0.3,3.6-0.1,5.2-0.9c1.4-0.7,2.7-1.9,3.7-3.1c3.2-4,4.7-9.3,4.7-14.4C87.7,24.4,87.8,23.7,87.4,23.4
			L87.4,23.4L87.4,23.4z"/>
		<path class="st2" d="M84.6,26.4c-0.2,0-0.4,0.1-0.5,0.2c-0.7,0.6-1.3,1.2-1.8,1.9c0.8,0.1,1.5,0.2,2.3,0.3
			C84.7,28,84.9,27.2,84.6,26.4L84.6,26.4z"/>
		<path class="st2" d="M81.4,26.7c-1,0.1-1.9,0.4-2.8,0.7c-0.8,0.3-1.6,0.5-2.4,1c0,1.4,0,2.7,0,4.1c0.5-0.4,1-0.9,1.5-1.3
			c1.2-1.1,2.5-2.2,3.6-3.4C81.5,27.4,81.5,27,81.4,26.7L81.4,26.7L81.4,26.7z"/>
		<path class="st2" d="M75,28.9c-1.7,0.9-3.2,2.3-3.9,4.1c-0.5,1.3-0.4,2.7-0.2,4c0.8-0.7,1.6-1.4,2.5-2c0.5-0.5,1.1-1,1.6-1.4
			C75,32,75.1,30.4,75,28.9L75,28.9L75,28.9z"/>
		<path class="st2" d="M84.4,30c-1-0.2-2-0.3-2.9-0.4c-0.3,0.2-0.6,0.5-0.8,0.7c-0.7,0.7-1.5,1.2-2.2,1.9c1.6,0.3,3.2,0.7,4.8,1
			C83.6,32.1,84.1,31.1,84.4,30L84.4,30L84.4,30z"/>
		<path class="st2" d="M82.7,34.3c-1.5-0.4-3-0.6-4.6-1c-0.3,0-0.7-0.2-0.9,0.1c-0.7,0.7-1.6,1.2-2.2,2c2.1,0.6,4.2,1,6.3,1.4
			C81.8,36,82.3,35.2,82.7,34.3L82.7,34.3L82.7,34.3z"/>
		<path class="st2" d="M72.2,19.5c0.2-4.3-1.4-8.5-3.7-12C67.3,6,66.1,4.4,64.8,3c-0.4-0.4-0.9-0.9-1.5-1c-0.6,0-0.9,0.5-1.3,0.8
			c-1.6,1.8-3.1,3.7-4.2,5.8c-1.5,2.7-2.7,5.6-3,8.7c-0.2,2.6,0.1,5.2,1.4,7.5c1.3,2.5,3.8,4.2,6.6,4.8c0.1,0,0.1,0,0.2,0
			c0.1,0,0.1,0,0.2,0l0,0c0.1,0,0.1,0,0.2,0c0.5,0.2,1.1,0.2,1.6,0.1c0.2-0.1,0.6-0.3,0.6-0.3c1.1-0.6,2.3-1.2,3.2-2.1
			C71,25.5,72.1,22.5,72.2,19.5L72.2,19.5L72.2,19.5z M65,27.3c0-0.6,0-1.2,0-1.8c2.7-1.3,4.1-4.6,3.4-7.5c-1.4,1-2.5,2.2-3.7,3.3
			c-0.1,0.9-0.1,1.9-0.2,2.8c-0.4-0.1-1,0-1.3-0.3c-0.1-0.7,0-1.4-0.2-2.1c-1.5-1.1-3-2.3-4.5-3.3c-0.2,2.9,1.4,6.1,4.2,7.1
			c0,0.6,0.1,1.2,0.1,1.8c-2.2-0.6-4.1-2.3-5.1-4.3c-1.1-2.5-0.9-5.3-0.3-7.8c0.5-1.9,1.3-3.8,2.3-5.5c1-1.8,2.2-3.5,3.7-4.9
			c2,2.4,4,4.8,5.2,7.7c1.2,2.9,1.9,6.1,1.2,9.2C69.2,24,67.5,26.5,65,27.3L65,27.3L65,27.3z"/>
		<path class="st2" d="M64,8.1c0.9,0.7,1.5,1.7,2.2,2.6c-0.6,0.6-1.2,1.3-1.9,1.9c-0.2-0.7-0.1-1.4-0.2-2C64.2,9.8,64,9,64,8.1
			C64,8.1,64,8.1,64,8.1z"/>
		<path class="st2" d="M62.2,8.7c0.2,0.1,0.2,0.4,0.2,0.6c0.1,1.5,0.5,3,0.3,4.4c-0.8-0.7-1.7-1.3-2.5-2
			C60.8,10.7,61.5,9.6,62.2,8.7L62.2,8.7z"/>
		<path class="st2" d="M67,12.4c0.7,1.1,1,2.3,1.4,3.5c-1.3,1-2.4,2.1-3.7,3.2c-0.2-1.4-0.3-2.8-0.4-4.2
			C65.2,14.1,66.1,13.2,67,12.4L67,12.4L67,12.4z"/>
		<path class="st2" d="M59.6,13.2c1.1,0.7,2.1,1.5,3.2,2.3c0.1,1.4,0.2,2.7,0.2,4.1c-1.5-1-2.9-2-4.4-3.1
			C58.9,15.5,59,14.3,59.6,13.2L59.6,13.2z"/>
		<path class="st2" d="M56.9,81.7L56.9,81.7c0.2-0.2,0.4-0.3,0.5-0.4c0.1-0.1,0.2-0.1,0.3-0.2c0.2-0.1,0.3-0.2,0.5-0.3
			c1.3-1,2.1-2.4,2.7-3.9c1-2.2,1.1-4.8,0.3-7.2c-0.4-1.4-1.1-2.7-2-3.9c-1.8-2.6-4.4-4.7-7.2-6.2c-2.5-1.3-5.1-2.3-7.9-2.8
			c-1.4-0.3-2.9-0.6-4.3-0.7c-0.7,0-1.3-0.2-2-0.1c-0.6,0.1-0.6,0.8-0.7,1.3c-0.6,3.2-0.7,6.4-0.2,9.6c0.5,2.8,1.3,5.5,2.7,8
			c1.2,2.1,2.9,3.9,4.9,5.3c1.6,1.1,3.4,2,5.4,2.4c0.8,0.2,1.6,0.1,2.5,0.1h0.2c0.5,0,1.1-0.1,1.8-0.2c0.7-0.1,1.5-0.3,2.4-0.8
			c0.4-0.2,1-0.6,1.6-1.1c0.1-0.1,0-0.3,0-0.3c0,0.1-2.4,0.6-2.5,0c-1.3,0.3-4.8,0.8-6.1,0.4c0,0-0.1,0-0.2,0
			c-0.2,0-0.3-0.1-0.5-0.1c-2.6-0.8-4.8-2.4-6.5-4.4c-1.3-1.6-2.3-3.4-2.9-5.4c-1.1-3.1-1.4-6.5-1.2-9.7c0.1-1.1,0.1-2.2,0.5-3.2
			c1.4,0,2.7,0.2,4.1,0.5c4.5,0.8,9,2.5,12.4,5.7c2.1,1.8,3.8,4.2,4.5,6.9c0.7,2.5,0,5.3-1.5,7.3c0,0,0,0,0,0.1
			c-0.7,0.9-1.6,1.7-2.6,2.2c-0.2,0.1-0.5,0.3-0.5,0.6c0,0.5,0,0.8,0,1.3L56.9,81.7L56.9,81.7L56.9,81.7z"/>
		<path class="st2" d="M49.2,61.8c1,0.4,2,0.9,2.8,1.6l0,0.1c-0.8,1.9-1.6,3.8-2.4,5.6c-0.7-1.3-1.2-2.6-1.9-3.8
			C48.2,64.1,48.7,63,49.2,61.8L49.2,61.8L49.2,61.8z"/>
		<path class="st2" d="M42.6,59.9c1.9,0.2,3.7,0.6,5.4,1.3c-0.4,1-0.8,1.9-1.3,2.9c-1.5-1.3-2.9-2.7-4.2-4.1L42.6,59.9L42.6,59.9
			L42.6,59.9z"/>
		<path class="st2" d="M53.3,63.9c0.4,0.2,0.7,0.5,1.1,0.8c0.4,0.4,0.8,0.8,1.2,1.3c-1.1,2.6-2.2,5.1-3.3,7.7
			c-0.7-1.1-1.1-2.3-1.7-3.4C51.4,68.1,52.4,66,53.3,63.9L53.3,63.9L53.3,63.9z"/>
		<path class="st2" d="M40,59.7c2,1.8,3.9,3.8,5.9,5.6c0.5,0.6,1,1.3,1.3,2.1c0,0,0,0.1-0.1,0.1c-2.4-0.3-4.7-0.6-7.1-0.9
			c-0.4-2-0.3-4-0.3-5.9C39.8,60.4,39.9,60,40,59.7L40,59.7L40,59.7z"/>
		<path class="st2" d="M58.7,72.4c-0.1-2-1-3.8-2.2-5.4c-1.3,2.8-2.4,5.6-3.7,8.4c0.3,0.6,0.5,1.2,0.8,1.8c0.3,0.7,0.7,1.4,1,2
			c0.8-0.4,1.6-0.9,2.2-1.6c0.1-0.1,0.2-0.3,0.3-0.4C58.3,75.9,58.8,74.1,58.7,72.4L58.7,72.4L58.7,72.4z"/>
		<path class="st2" d="M40.3,68c2.5,0.3,5.1,0.6,7.6,0.9c0.6,1.1,1.3,2.2,1.8,3.4c-2.8-0.3-5.5-0.6-8.3-0.9
			C40.9,70.3,40.4,69.2,40.3,68L40.3,68L40.3,68z"/>
		<path class="st2" d="M53.4,79.6l-0.2,0c0,0-0.1,0-0.1,0c-0.5,0-1.9,0.1-3.5-0.3c-1.6-0.4-3.5-1.2-5-2.9c0,0,0,0,0,0
			c-0.4-0.4-0.7-0.9-0.9-1.3c-0.5-0.6-0.9-1.2-1.3-1.9c-0.1-0.1-0.2-0.3-0.1-0.4c1.2,0.1,2.5,0.3,3.7,0.4c1.5,0.1,3,0.3,4.5,0.5
			c0.5,0.9,1,1.8,1.3,2.7C51.8,76.4,53.4,79.6,53.4,79.6L53.4,79.6z"/>
		<rect x="62.8" y="79.5" class="st2" width="2.2" height="26.9"/>
		<polyline class="st2" points="58.5,102.6 64.9,102.7 65,104.8 58.4,104.9 58.4,102.8 		"/>
		<path d="M121.8,135.2C121.8,135.2,121.8,135.2,121.8,135.2c-0.6,0.5-1.5,1.2-2.7,1.7c-1.4,0.6-2.5,0.8-3.7,0.9
			c-6.2,0.9-5,0.8-6.1,0.9c-2.8,0.3-6.6,0.7-11.8,0.6c-2.6-0.1-5.9-0.3-9.6-0.8v-2.1c3.7,0.5,7,0.7,9.6,0.8c5.2,0.1,9-0.3,11.8-0.6
			c1.1-0.1,0,0,6.1-0.9c1.2-0.2,2.3-0.3,3.7-0.9c1.2-0.5,2.1-1.2,2.7-1.7"/>
		<path d="M60.4,102.7c0-0.5,0-1.1,0-1.6c0,0,0-0.1,0-0.1c0-1.9-0.1-3.7-0.2-5.5c-0.2-3.6-0.6-6.8-1.1-9.6c-0.1-0.5-0.2-1.1-0.3-1.6
			v0c-0.8-3.5-1.7-6.2-2.8-7.7c0,0-0.1-0.1-0.1-0.1c-0.6-0.8-1.2-1.2-1.9-1.2l3,8.6l3,19.3L60.4,102.7L60.4,102.7z"/>
		<path class="st2" d="M88.8,53.1c0.1,1.8,0,3.6,0,5.4c0,1.3,0,2.7,0,4c0,0.1,0,0.2,0,0.4c-1.2,0.4-2,1.4-2.3,2.5
			c-0.4,1-0.1,2.2,0.4,3.1c-0.1,0.1-0.2,0.2-0.2,0.3c0.5,0.6,1.1,1.1,1.8,1.4c0,0,0,0,0,0c0.8,0.2,1.6,0.3,2.3,0.1
			c1.9-0.5,3.3-2.5,2.9-4.5c-0.2-1.4-1.4-2.5-2.7-3c0-0.1,0-0.2,0-0.3c0-1.9,0-3.8,0-5.7c1.5,1.6,3,3.2,4.8,4.5c0,3,0,6,0,9
			c-2.2,0.5-3.6,3.1-2.8,5.2c0.5,1.3,1.7,2.3,3,2.6c0.5,0.1,1.1,0.1,1.6,0c0.6-0.3,1.3-0.6,1.8-1.1c0.8-0.8,1.1-1.9,1-3
			c0-1.5-1.1-2.8-2.4-3.4c0-2.7,0-5.3,0-8c1,0.4,1.9,0.9,2.8,1.3c1.7,0.6,3.5,1,5.3,1.1c0,3.7,0.1,7.4,0.1,11.1
			c-1.4,0.4-2.5,1.6-2.7,3.1c-0.4,2,1.3,4.1,3.4,4.3c2.2,0.3,4.2-1.9,3.9-4.1c-0.1-1.5-1.2-2.7-2.4-3.3c-0.1-3.7,0-7.3,0-11
			c0.9,0,1.8,0,2.7-0.2c0.7-0.1,1.4-0.2,2.1-0.3c1.2-0.3,2.4-0.7,3.6-1.1c0,2.6,0.1,5.2,0,7.8c-2.3,0.4-3.6,3.3-2.6,5.3
			c0.7,1.4,2.2,2.5,3.8,2.3c2.1-0.1,3.9-2.2,3.6-4.3c0-1.6-1.2-2.8-2.6-3.3c0-2.9-0.1-5.9,0.1-8.8c0.8-0.5,1.6-1.1,2.4-1.7
			c1.1-0.8,2.1-1.9,3.1-2.8c0.1,0.6,0,1.2,0,1.8c0,9.5,0,19.1,0,28.6c-1.7,0.4-2.6,2.3-2.4,3.9c0.2,1.8,2,3.1,3.7,3
			c1.5-0.1,2.9-1.4,3.1-2.9c0.3-1.6-0.7-3.3-2.2-3.9c-0.1-2.5,0-5-0.1-7.5c0-5,0-10,0-15c0-3.8-0.1-7.5,0.1-11.3
			c1.3-2,2.3-4.2,2.8-6.5c0.3-1.7,0.7-3.4,0.7-5.1c0.1-4-0.9-8.1-2.9-11.7c-1.3-2.2-3-4.3-5-5.9c-5.1-4.2-12-5.9-18.5-4.6
			c-4.2,0.8-8.2,2.7-11.2,5.8c-2.3,2.2-3.9,4.9-5,7.8c-1,2.6-1.6,5.3-1.6,8.1c0,0.1,0,0.2,0,0.4c0,0.9,0,1.8,0.2,2.7
			C86.6,48.1,87.5,50.7,88.8,53.1L88.8,53.1L88.8,53.1z M91.7,66.3c0.2,1.3-1.5,2.4-2.6,1.5c-1-0.7-0.8-2.4,0.3-2.9
			C90.4,64.4,91.5,65.3,91.7,66.3L91.7,66.3z M98.3,74c0.2,1.1-1,2.1-2.1,1.8c-0.8-0.2-1.4-1.1-1.3-1.9c0.1-0.6,0.5-1.2,1-1.5
			C97.1,71.9,98.3,72.9,98.3,74L98.3,74z M108.8,79.6c-0.1,0.8-0.7,1.3-1.4,1.5c-0.6,0-1.3-0.4-1.5-1c-0.4-0.8,0.1-1.8,0.9-2.1
			C107.7,77.5,108.9,78.6,108.8,79.6L108.8,79.6z M119.6,74.5c0.1,1.1-1,2.1-2,1.9c-0.9-0.2-1.6-1.2-1.3-2.2c0.2-0.5,0.5-1,1.1-1.2
			C118.3,72.7,119.4,73.5,119.6,74.5L119.6,74.5L119.6,74.5z M127,92c-0.2,0.8-1.4,1.2-2,0.6c-0.8-0.5-0.6-1.8,0.2-2.3
			C126.2,89.9,127.4,91,127,92z M91.3,31.9c1.5-2.5,3.6-4.7,6.1-6.3c3-2,6.5-2.9,10.1-3.1c3.2-0.1,6.5,0.6,9.4,2
			c2.5,1.1,4.6,2.9,6.4,4.9c2.8,3.1,4.4,7.3,4.8,11.4c0.6,6.1-1.9,12.3-6.2,16.6c-2.1,2-4.7,3.5-7.5,4.3c-3.4,1.1-7.1,1.1-10.6,0.4
			c-3.6-0.7-7-2.6-9.6-5.2c-2-2-3.5-4.5-4.5-7.1C87.4,44,88,37.1,91.3,31.9L91.3,31.9z"/>
		<path class="st2" d="M63.7,113.6c0-0.1,0-0.2,0-0.4c0-0.8-1-1.4-1.7-0.9c-0.3,0.2-0.4,0.6-0.4,0.9v0.4H63.7z"/>
		<path class="st2" d="M56.6,113.1c0.6,0,1.1,0,1.7,0.1c0-0.3,0-0.6,0-0.9c-0.2-0.5-0.8-0.8-1.3-0.7c-0.4,0.1-0.7,0.5-0.7,1
			c0,0.2,0,0.4,0,0.6C56.4,113.1,56.5,113.1,56.6,113.1L56.6,113.1L56.6,113.1z"/>
		<path class="st2" d="M132.3,143.7c-3.5,0-7.1,0-10.6,0c1.2-0.8,2.7-1.8,2.9-3.4c0-3,0-6.1,0.1-9.1c0-0.8-0.6-1.3-1-2
			c0.4-0.5,0.9-1.1,0.9-1.7c0-9.4,0-18.9,0-28.3c0.1-1.2-0.9-2.2-1.9-2.8c-2.5-1.7-5.5-2.4-8.4-2.9c-4.7-0.8-9.4-1.1-14.1-1.1
			c-4.3,0-8.6,0.1-12.8,0.7c-3.6,0.6-7.3,1.2-10.7,2.9c-1.3,0.7-2.6,1.7-2.8,3.3c-0.1,1.4,0,2.9,0,4.3c-3-0.5-6-0.8-9-0.7
			c-1.3,0-1.3,0,0,0c-0.1,0-0.2,0-0.3,0c0-2,0-4,0-6c0-0.9,0-1.8,0-2.7c0.1-0.1,0.2-0.2,0.3-0.3c0,0,0,0,0,0c0,0,0,0,0,0v-3.2
			c0,0,0,0,0,0l0,0c-0.1,0.1-0.2,0.2-0.2,0.2c-0.1,0-0.1,0.1-0.2,0.1c0.1-1.4,0.1-2.8,0.1-4.2c0-0.7,0-1.3,0-2c0-1.3,0-2.6,0-4
			c0-0.4,0-0.9,0-1.3c0-1.8,0-3.5,0-5.3c0-1.1,0-2.2,0-3.4v-5c0,0,0,0,0,0c0,0,0,0,0,0c0-0.7,0-1.3,0-2c0,0,0-0.1,0-0.1
			c0-0.5,0-1,0-1.5c0-0.9,0-1.8,0-2.8c0-0.3,0-0.7,0-1c0-0.3,0-0.6,0-0.9c0-0.4,0-0.8,0-1.3c0-3.1,0-6.1,0-9.2c0-0.9,0-1.9,0-2.8
			c0-0.9,0-1.9,0-2.8c0-3.2,0-6.4,0-9.5c0-0.3,0-0.7,0-1v0h-1.9v-2.2h1.9c-0.2-0.8-0.6-1.1-1.2-1.4c-0.2,0.1-0.3,0.3-0.4,0.5
			c-0.2,0.3-0.4,0.6-0.5,0.9c0,0,0,0.1,0,0.1c0,0,0,0,0,0v0.4c0,0,0,0,0,0.1c0.1,0.2,0.2,0.4,0.1,0.5v0.1c0,0,0,0,0,0l-0.1,1l0,0
			c0,4.2,0,8.4,0,12.6c0,1.2,0,2.5,0,3.7c0,1.2,0,2.4,0,3.6c0,0-0.1,0-0.1-0.1c-0.5-0.4-1-0.7-1.5-1.2c-2.4-2.2-4.9-4.2-7.3-6.4
			c0,0,0,0,0,0c2.2-3.5,2.3-8.2,0.6-11.9c-1.5-3-4-5.4-6.9-7c-3.7-2-7.8-3-11.9-3.6c-1.7-0.2-3.4-0.3-5.1-0.4
			c-0.5,0-1.1-0.1-1.6,0.2c-0.7,0.4-0.5,1.3-0.5,2c0,7,2.1,14.2,6.5,19.8c1.4,1.7,3.1,3.3,5,4.3c2.2,1.1,4.7,1.6,7.2,1.2
			c2.1-0.3,4-1.2,5.4-2.7c1.5,1.5,3.3,2.7,4.8,4.2c-2-0.2-4-0.1-6,0.5c-0.7,0.2-1.5,0.5-2.1,0.9c-0.5,0.4-0.8,1.3-0.3,1.8
			c0.4,0.4,1,0.6,1.5,0.3c0.4-0.3,0.8-0.6,1.4-0.7c3.3-1,7.1-0.7,10,1.2c0.3,0.2,0.8,0.5,0.9,0.9c0.1,0.1,0.1,0.3,0.1,0.5
			c0,2.6,0,5.2,0,7.8c0,4,0,8,0,11.9c0,2.6,0,8.1,0,12.5c0,3.3,0.1,6,0.2,6.5c-0.1,0.1-0.1,1.6-0.2,3.5c0,2.5,0,5.8,0,8.1
			c0,0.7,0,1.3,0,1.8c-0.7-0.1-1.4-0.1-2.1-0.1c0-1.2,0-2.3,0-3.5c0-0.1,0-0.1,0-0.2c0-0.1,0-0.1,0-0.2c0-0.5,0-1.1,0-1.6
			c0,0,0-0.1,0-0.1c0-1.9-0.1-3.7-0.2-5.5l0,0l0,0c0-0.3,0-0.5,0-0.8c0-0.2,0-0.3,0-0.5c-0.1-0.9-0.2-1.8-0.3-2.7l0-0.1
			c0,0,0-0.1,0-0.1c-0.1-0.9-0.3-1.8-0.4-2.7c0,0,0,0,0,0l-0.1-0.5c0,0-0.1-1.4-0.2-2.3c0,0,0,0,0,0c-0.1-0.5-0.2-1.1-0.3-1.6v0
			c-0.1-0.5-0.3-1-0.4-1.6c-0.1-0.2-0.1-0.4-0.2-0.6c-0.1-0.3-0.2-0.5-0.3-0.8c0,0,0,0,0-0.1c0,0,0,0,0,0c0,0,0-0.1,0-0.1
			c-0.1-0.3-0.2-0.5-0.3-0.8c0,0,0-0.1,0-0.1c-0.1-0.2-0.1-0.4-0.2-0.5c-0.1-0.1-0.1-0.3-0.2-0.4c0,0,0-0.1,0-0.1
			c0-0.1-0.1-0.2-0.1-0.3c-0.3-0.8-0.7-1.5-1.1-2.3c0,0,0,0,0,0c0,0,0,0,0,0c0,0-0.1,0-0.1,0c0,0,0,0,0,0c-0.2-0.1-0.3-0.1-0.5-0.2
			c0,0-0.1-0.1-0.2-0.1c0,0-0.1,0-0.1,0c-0.1,0.1-0.2,0.1-0.3,0.1c-0.1,0-0.3,0.1-0.4,0.1c0,0.1,0.1,0.2,0.1,0.2c0,0,0,0,0,0.1
			c0,0,0,0,0,0h0c0.1,0.2,0.2,0.5,0,0.8c0,0,0,0,0,0c-0.1,0.2-0.2,0.3-0.4,0.4c0.4,0.8,0.7,1.5,1,2.3c0,0,0,0.1,0.1,0.1
			c0,0.1,0.1,0.2,0.1,0.2c0.2,0.4,0.3,0.8,0.4,1.3c0,0,0,0,0,0c0,0.1,0.1,0.3,0.1,0.4c0,0,0,0,0,0.1c0,0,0,0.1,0,0.1
			c0,0.1,0,0.1,0.1,0.2c0,0,0,0,0,0c0,0.1,0.1,0.6,0.2,0.7c0.2,0.7,0.3,1.4,0.5,2.2v0c0.5,2.4,0.9,4.8,1.1,7.2
			c0.2,1.4,0.3,2.9,0.4,4.3c0,0.2,0,0.4,0,0.6c0,0,0,0,0,0c0.1,1.6,0.1,3.3,0.1,4.9h-0.1c-2.8,0-5.6,0.1-8.3,0.4
			c-3,0.3-6,0.7-8.9,1.7c-1.2,0.4-2.6,1-3.2,2.2c-0.7,1.1-0.3,2.3-0.4,3.5c-1.4,0.4-2.8,0.8-4,1.6c-0.9,0.5-1.7,1.3-1.8,2.4
			c0,2.2,0,4.3,0,6.5c-3,0.6-6,1.1-8.8,2.6c-1.4,0.8-2.7,2.2-2.5,3.8c0,4.3,0,8.6,0,12.8c0,0.6,0.2,1.3,0.6,1.8
			c0.5,0.7,1.1,1.4,2,1.7c-2.8,0-5.7,0-8.5,0c-0.5,0-1.1,0-1.3,0.5c-0.4,0.6,0,1.6,0.8,1.6c3.6-0.1,7.2,0,10.7,0
			c19.9,0,39.9,0,59.8,0c0.6,0,1.2,0,1.8,0c2.2,0,4.3,0,6.5,0c2.9,0.1,5.7,0,8.6,0c10.3,0,20.5,0,30.8,0c0.5,0,1,0,1.3-0.5
			C133.8,144.7,133.2,143.6,132.3,143.7L132.3,143.7L132.3,143.7z M52,41.7c-0.1-0.1-0.3-0.2-0.4-0.2l-3.9-3.4
			c-0.2,0-0.4,0.1-0.5,0.1c-1.4,0.4-3,0.7-4.5,1.1c-1.6,0.4-3.1,0.7-4.6,0.9c1.4,1.7,3.5,3.1,5.7,3.5c1.9,0.4,4-0.1,5.7-1.1
			c0.4,0.3,0.7,0.7,1.1,1.1c-1.4,1.4-3.4,2-5.3,1.9c-2.6,0-5.1-1-7-2.8c-1.9-1.7-3.5-3.8-4.6-6.1c-2.2-4.3-3.4-9.2-3.2-14.1
			c3.2,0,6.4,0.4,9.4,1.2c2.7,0.7,5.3,1.7,7.7,3.3c2.3,1.4,4.3,3.5,5.2,6.1C53.5,35.9,53.5,39.1,52,41.7L52,41.7L52,41.7z
			 M78.4,97.6c0.2,0.5,0.3,1,0.7,1.4c1.1,1.1,2.6,1.6,4,1.9c2,0.5,4.1,0.8,6.2,1.1c0.4,0.1,0.9,0,1.3-0.2c0.1-0.3,0.3-0.6,0.3-0.9
			c-0.1-0.5-0.5-1.1-1-1.1c-2-0.3-4-0.6-6-1.1c-0.9-0.2-1.9-0.5-2.7-1c-0.2-0.1-0.4-0.3-0.5-0.6c0.1-0.5,0.7-0.6,1.1-0.8
			c1.2-0.4,2.5-0.5,3.7-0.8c2.1-0.5,4.2-0.6,6.3-0.8c4.7-0.3,9.4-0.3,14.1-0.1c2.5,0.2,4.9,0.3,7.4,0.7c1.5,0.2,3.1,0.5,4.6,1.1
			c0.5,0.2,0.4,1-0.1,1.3c-0.7,0.4-1.6,0.7-2.4,0.9c-3.5,0.8-7.1,1.1-10.7,1.3c-0.7,0.1-1.3,1.1-0.8,1.7c0.3,0.5,1,0.6,1.5,0.5
			c2.1-0.3,4.2-0.3,6.3-0.5c2.3-0.3,4.7-0.7,6.9-1.7c0.6-0.3,1.3-0.8,1.6-1.4c0.1-0.4,0.1-0.7,0.2-1.1c0.7,0.4,1.6,0.6,2.1,1.4
			c0.3,0.4,0.4,0.9,0,1.3c-0.9,1-2.3,1.5-3.6,1.8c-0.6,0.1-1.2,0.6-1.2,1.2c0,3.2,0,6.3,0,9.5c-0.5,0.1-1,0.2-1.5,0.3
			c0-1.3,0-2.5,0-3.8c0-0.1,0-0.2,0-0.3c0,0.9,0,1.8,0,2.7c-0.1,1.2-0.7,1.5-1.1,1.9c-0.3-0.4-0.7-0.7-0.8-1.3c0,0.4,0,0.7,0,1.1
			c-0.5,0.1-1.1,0.3-1.6,0.4c0-1.2,0-2.4,0-3.5c0,1.1,0,2.2,0,3.3c-0.1,1.2-0.7,1.5-1.1,2c-0.3-0.4-0.7-0.7-0.9-1.6
			c-0.5,0-1.1,0.1-1.6,0.1c0-1.1,0.1-2.2,0-3.3c0,0.5,0,1,0,1.6c-0.1,1-0.7,1.3-1.1,1.7c-0.3-0.3-0.7-0.6-0.8-1.1c0,0.5,0,0.9,0,1.4
			c-0.6,0-1.2,0-1.7,0.1c0-2.1,0-4.2,0-6.3c-0.1-1.2-1.2-2.1-2.4-2.1c-4.6-0.1-9.2,0.1-13.8-0.3c-3.8-0.4-7.7-1.1-10.9-3.3
			c-0.8-0.6-1.7-1.4-1.9-2.4C76.3,98.6,77.5,98.1,78.4,97.6L78.4,97.6L78.4,97.6z M121.2,111.4c-0.5,0.2-1.1,0.4-1.6,0.7
			c0-2.7,0-5.3,0-8c0.5-0.2,1.1-0.4,1.6-0.7C121.1,106,121.2,108.7,121.2,111.4L121.2,111.4z M121.2,128.6c-0.5,0.2-1.1,0.5-1.6,0.7
			c0-1.9,0-3.8,0-5.7c0.5-0.2,1.1-0.3,1.6-0.5C121.1,124.9,121.2,126.7,121.2,128.6L121.2,128.6z M119.6,114.6
			c0.5-0.2,1-0.3,1.6-0.5c0,2.1,0,4.2,0,6.3c-0.5,0.1-1.1,0.3-1.6,0.5C119.6,118.9,119.6,116.7,119.6,114.6L119.6,114.6z
			 M117.6,121.4c-0.5,0.1-1,0.2-1.6,0.3c0-2.1,0-4.2,0-6.3c0.5-0.1,1-0.2,1.5-0.3C117.6,117.2,117.6,119.3,117.6,121.4L117.6,121.4z
			 M117.6,129.8c-0.5,0.2-1,0.3-1.5,0.4c0-2,0-4,0.1-5.9c0.5-0.1,1-0.2,1.5-0.3C117.6,126,117.6,127.9,117.6,129.8L117.6,129.8
			L117.6,129.8z M114,122c-0.4,0.4-1.1,0.2-1.6,0.4c0-1.5,0-3,0-4.5c0-0.6,0-1.2,0.1-1.8c0.5-0.1,1-0.2,1.6-0.3
			C114,117.8,114.1,119.9,114,122L114,122z M112.5,124.8c0.5-0.1,1.1-0.2,1.6-0.2c0,2,0,4-0.1,6.1c-0.5,0.1-1,0.2-1.6,0.3
			C112.4,128.8,112.4,126.8,112.5,124.8L112.5,124.8L112.5,124.8z M108.9,125.2c0.5-0.1,1-0.2,1.5-0.2c0,2,0,4.1,0,6.1
			c-0.5,0-1,0.1-1.6,0.1C108.9,129.2,108.8,127.2,108.9,125.2z M108.9,122.7c-0.1-2.1,0-4.2-0.1-6.3c0.5-0.1,1-0.1,1.6-0.1
			c0,2.1,0,4.2,0,6.3C109.9,122.6,109.4,122.6,108.9,122.7L108.9,122.7L108.9,122.7z M105.2,122.9c0-2.1,0-4.2,0-6.3
			c0.6,0,1.1-0.1,1.7-0.1c0,2.1,0,4.3,0,6.4C106.3,122.9,105.8,122.9,105.2,122.9L105.2,122.9L105.2,122.9z M106.9,131.4
			c-0.6,0-1.1,0.1-1.7,0.1c0-2.1,0-4.1,0-6.2c0.6,0,1.1-0.1,1.7-0.1C106.9,127.3,106.9,129.4,106.9,131.4L106.9,131.4L106.9,131.4z
			 M103.1,123.1c-3.5,0-7.1,0.1-10.6-0.1c-2.8-0.2-5.6-0.5-8.3-1.1c0-2.1,0-4.2,0-6.3c6.2,1.1,12.6,1.2,18.9,1.1
			C103.1,118.8,103.1,120.9,103.1,123.1z M84.2,113.3c0-2.1,0-4.2-0.1-6.3c6,1.1,12.1,1,18.1,0.9c0.4,0,0.8,0.2,0.8,0.6
			c0,1.9,0,3.8,0,5.7C96.8,114.4,90.4,114.4,84.2,113.3L84.2,113.3L84.2,113.3z M82,125.4c0,0.7,0,1.5-0.1,2.2
			c-0.3,0.4-0.7,0.6-1.1,0.8c-1.5,0.7-3.2,1-4.8,1.3c0-0.8,0-1.6,0-2.4C78,127,80.1,126.5,82,125.4L82,125.4L82,125.4z M76.4,119.5
			c0.5-0.1,1.1-0.3,1.6-0.4c0,1.8,0,3.6,0,5.4c-0.5,0.1-1.1,0.2-1.6,0.3C76.4,123,76.4,121.3,76.4,119.5L76.4,119.5L76.4,119.5z
			 M80.1,118.7c0.5-0.4,1.1-0.6,1.6-0.9c0,1.7,0,3.4,0,5.1c-0.6,0.3-1.1,0.6-1.7,0.9C80.1,122.1,80.1,120.4,80.1,118.7L80.1,118.7z
			 M39.6,108.2c0.4-0.9,1.5-1.2,2.4-1.4c3.9-1.1,8-1.5,12-1.8c1.4-0.1,2.8-0.1,4.2-0.1c0,0.5,0,1,0,1.6c-0.7,0-1.5-0.1-2.2,0.2
			c-0.5,0.2-0.8,0.8-0.6,1.4c0.3,0.4,0.8,0.6,1.2,0.7c2.6,0.3,5.3,0.1,7.9,0.1c1,0,2,0,2.9-0.2c0.5-0.1,1-0.4,1.2-0.9
			c0-0.6-0.5-1-1.1-1.1c-0.9-0.2-1.9-0.1-2.9-0.1v0c0-0.5,0-1.1,0-1.6c0.1,0,0.2,0,0.3,0c3.7,0.2,7.3,0.5,10.9,1.2
			c1.6,0.3,3.2,0.6,4.7,1.2c0.6,0.3,1.3,0.7,1.2,1.5c-0.2,0.8-1.1,1.1-1.7,1.5c-0.3,0.2-0.6,0.4-1,0.6c-0.5,0.3-1,0.5-1.4,0.8
			c-1,0.7-2.3,1-3.5,1.3c-1.7,0.4-3.4,0.7-5.1,0.9v0c-0.1,0-0.2,0-0.3,0c-0.5,0-1.1-0.1-1.6,0c-0.1,0-0.1,0-0.2,0c0,0.1,0,0.2,0,0.4
			c-1.1,0.1-2.2,0.2-3.3,0.2c0-0.2,0-0.3,0-0.5h-2c0,0.2,0,0.4,0,0.6c-1.1,0-2.4,0.1-3.5,0.1c0-0.2-0.3-0.2-0.3-0.4
			c-0.6,0-0.7-0.3-1.3-0.3c-0.1,0-0.2,0-0.3-0.1c0,0.2,0,0.5,0,0.7c-1.2,0-2.3,0-3.5-0.1c0-0.2,0-0.3,0-0.5c-0.7,0-1.3,0-2-0.1
			c0,0.2,0,0.3,0,0.5c-0.9,0-1.8-0.1-2.8-0.2c0-1,0-2,0-3c0-0.6-0.6-1.2-1.2-1.2c-0.5,0-0.8,0.5-0.8,1c0,1,0,2,0,3
			c-0.9-0.2-1.8-0.3-2.7-0.6c0-1.1,0-2.2,0-3.3c-0.1-1-1.6-1.3-2-0.3c-0.2,1.1,0,2.1,0,3.2c-0.6-0.3-1.4-0.5-1.7-1.1
			C39.5,110.5,39.5,109.3,39.6,108.2L39.6,108.2L39.6,108.2z M34,114.2c0.9-0.9,2.2-1.1,3.4-1.4c0.2,0.4,0.3,0.7,0.6,0.9
			c1.1,0.9,2.6,1.3,4,1.7c4.3,1.2,8.8,1.3,13.2,1.4c5.9,0.1,11.9-0.1,17.7-1.2c2-0.4,4.1-0.9,5.9-1.9c1-0.6,2-1.3,2.9-2
			c0,1.1,0,2.1,0,3.2c0,0.3-0.3,0.4-0.4,0.5c-1.1,0.7-2.4,1.1-3.6,1.4c-6.1,1.5-12.3,2.1-18.6,2.1c-1.5,0.1-3,0-4.6,0
			c-4-0.1-8-0.3-12-1c-2.6-0.4-5.2-0.8-7.6-2c-0.3-0.2-0.7-0.3-1-0.6C33.7,115,33.7,114.5,34,114.2L34,114.2L34,114.2z M60.2,126.2
			c-6.3,0-12.6-0.1-18.8-1.3c-1.3-0.3-2.7-0.5-4-0.9c0-1.6,0-3.2-0.1-4.9c3.5,0.9,7.2,1.4,10.8,1.7c4.4,0.4,8.8,0.4,13.2,0.3
			c3-0.1,6-0.3,8.9-0.6c0,1.7,0,3.5,0,5.2C66.8,126,63.5,126.2,60.2,126.2L60.2,126.2L60.2,126.2z M64.8,130.9c-1.2,0-2.4,0-3.6,0
			c0-0.8,0-1.5,0-2.3c1.2,0,2.4,0,3.6,0C64.8,129.4,64.8,130.1,64.8,130.9L64.8,130.9z M59.1,130.9c-3,0-5.9,0-8.9-0.3
			c0-0.8,0-1.5,0-2.3c2.9,0.3,5.9,0.3,8.9,0.4C59.1,129.4,59.1,130.2,59.1,130.9L59.1,130.9L59.1,130.9z M48,130.3
			c-1.9-0.3-3.8-0.6-5.7-1.1c-0.9-0.2-1.8-0.5-2.4-1.1c-0.3-0.3-0.2-0.8-0.2-1.2c2.7,0.6,5.5,1,8.3,1.3C48,128.9,48,129.6,48,130.3
			L48,130.3z M66.8,128.4c2.3-0.1,4.6-0.4,6.9-0.6c0,0.8,0,1.6,0,2.4c-2.3,0.3-4.6,0.6-7,0.7C66.8,130,66.8,129.2,66.8,128.4
			L66.8,128.4L66.8,128.4z M72.2,125.4c0.1-1.7,0-3.5,0-5.2c0.7-0.1,1.4-0.2,2.1-0.3c0,1.8,0,3.5,0,5.3
			C73.6,125.3,72.9,125.4,72.2,125.4L72.2,125.4L72.2,125.4z M35.2,118.6c0,1.6,0,3.1,0,4.7c-0.5-0.2-1.1-0.4-1.5-0.8
			c0-1.6,0-3.1,0-4.7C34.2,118.1,34.8,118.3,35.2,118.6L35.2,118.6z M33.4,136.2c-0.4-0.1-0.8-0.3-1.2-0.3c-0.5,0-0.8,0.5-0.8,0.9
			c0,2.2,0,4.4,0,6.6c-0.5-0.1-1.1-0.1-1.6-0.2c-0.1-2.3,0-4.7,0-7c-0.2-0.6-0.8-1.1-1.4-1c-0.4,0.1-0.7,0.5-0.7,1
			c0,2.2,0,4.5,0.1,6.7c-0.5-0.2-1.1-0.3-1.6-0.5c0-2.3,0-4.6,0-6.9c0-0.5-0.4-1-0.8-1.2c-0.7-0.2-1.2,0.5-1.2,1.1
			c0,2.1,0.1,4.2,0,6.3c-0.6-0.3-1.3-0.5-1.6-1.1c-0.1-4.3,0-8.6,0-12.9c0-0.5-0.1-1,0.3-1.4c1-1.1,2.5-1.5,3.9-2
			c1.6-0.4,3.2-0.8,4.9-1.2c0.3,0.8,0.9,1.4,1.6,1.8c0,0,0,0,0,0c0.1,0,0.1,0.1,0.1,0.1c0.1,0.1,0.2,0.2,0.3,0.2
			c0.1,0.1,0.3,0.1,0.4,0.2c0.1,0.1,0.2,0.2,0.3,0.2h0c0.1,0.1,0.2,0.1,0.4,0.2c0.1,0,0.2,0.1,0.3,0.2c0.1,0,0.2,0.1,0.2,0.1
			c0.3,0.1,0.5,0.2,0.8,0.2c0,0,0.1,0,0.1,0c0,0,0,0,0,0c0,0,0,0,0,0c0,0,0,0,0,0c0.2,0,0.3,0.1,0.5,0.1c0.1,0.1,0.3,0.1,0.4,0.1
			c0.1,0,0.2,0,0.3,0.1c0,0,0,0.1,0,0.1c0,0,0,0.1,0,0.2c0,0,0,0.1,0,0.2c0,0,0,0.1,0,0.1c0,0.1-0.1,0.3-0.1,0.4
			c-1.4,0.6-2.8,1.2-3.7,2.4c-0.6-0.3-1.5-0.6-1.9,0.2c-0.2,0.9,0,1.8-0.1,2.7c0,0.5-0.1,1.1,0.3,1.4c0.5,0.4,1.2,0.3,1.7,0.3
			C33.4,135.2,33.4,135.7,33.4,136.2L33.4,136.2L33.4,136.2z M33.4,143.5c0-1,0-2,0-3c1.2,1.7,3.2,2.3,5,3.1
			C36.8,143.6,35.1,143.7,33.4,143.5L33.4,143.5L33.4,143.5z M37.6,140.8c-0.5-0.4-1.6-0.5-1.6-1.3c-0.1-1.7,0-3.5-0.1-5.2
			c0.5,0.3,1.1,0.6,1.7,0.8C37.6,137,37.6,138.9,37.6,140.8L37.6,140.8L37.6,140.8z M52.4,143.5c-4.3-0.3-8.6-0.8-12.7-2.1
			c0-2,0-3.9,0-5.9c3.6,1.1,7.3,1.4,11,1.7c3.6,0.2,7.2,0.2,10.7,0.1c0.3,0,2,0,3.1-0.1c0,2.1,0,4.2,0,6.4
			C60.5,143.6,56.4,143.7,52.4,143.5L52.4,143.5L52.4,143.5z M66.6,143.5c0-2.1,0-4.1,0-6.2c0.5,0,1,0,1.5,0c0,2.1,0,4.2,0,6.3
			C67.7,143.5,67.2,143.5,66.6,143.5L66.6,143.5L66.6,143.5z M71.8,143.3c-0.5,0-1,0.1-1.6,0.1c0-2.1,0-4.2,0-6.2
			c0.5,0,1-0.1,1.5-0.2C71.9,139.1,71.8,141.2,71.8,143.3L71.8,143.3L71.8,143.3z M73.9,143.1c0-2.1,0-4.2,0-6.3
			c0.5-0.1,0.9-0.2,1.4-0.3c0,2.1,0,4.2,0,6.4C74.8,143,74.3,143,73.9,143.1L73.9,143.1L73.9,143.1z M68.6,135
			c-1.1,0.1-2.3,0.1-3.4,0.3c0,0,0,0,0,0c-1.2,0.1-2.7,0.2-2.9,0.2c-4.4,0-8.7,0-13.1-0.4c-2.9-0.4-5.9-0.7-8.8-1.5
			c-1.5-0.4-3.1-0.8-4.4-1.7c-0.3-0.2-0.7-0.7-0.2-1c0.7-0.5,1.6-0.7,2.5-1c0.8,0.8,1.8,1.2,2.8,1.5c1.7,0.6,3.4,0.8,5.1,1.1
			c4.3,0.8,8.8,0.9,13.2,0.8c2.5,0,4.9,0,7.4-0.2c4.2-0.3,8.5-0.6,12.6-1.8c1.7-0.5,3.6-1.1,4.8-2.6c0.5-0.5,0.3-1.2,0.3-1.9
			c0.7,0.4,1.5,0.6,2.1,1.1c0.5,0.4,0.6,1.1,0.4,1.6c-0.3,0.8-1,1.4-1.8,1.8c-2.7,1.5-5.7,2.1-8.7,2.6
			C73.9,134.5,71.3,134.8,68.6,135L68.6,135L68.6,135z M86.9,138.7c-0.4,0.5-1,0.9-1.5,1.3c0-1.9,0-3.9,0-5.8c0.5-0.4,1-0.7,1.5-1.1
			C87,135,87,136.9,86.9,138.7L86.9,138.7z M78.8,142.2c-0.5,0.1-1,0.2-1.5,0.2c0-2.1,0-4.2,0-6.2c0.5-0.1,1-0.2,1.5-0.4
			C78.8,138,78.9,140.1,78.8,142.2L78.8,142.2L78.8,142.2z M80.9,141.7c0-2,0-4.1,0-6.1c0.5-0.1,1-0.2,1.4-0.4c0,2,0,4.1,0,6.1
			C81.8,141.4,81.3,141.5,80.9,141.7L80.9,141.7L80.9,141.7z M87.1,143.6c-1.2,0-2.3,0-3.5,0c1.2-0.7,2.5-1.2,3.6-2.1
			C87.1,142.1,87.2,142.9,87.1,143.6L87.1,143.6z M87.1,125.6c-0.5-0.3-1.2-0.5-1.4-1.1c2.7,0.4,5.4,0.7,8.1,0.8
			c3.1,0.1,6.2,0.2,9.3,0.1c0,2.1,0,4.1,0,6.2c-2.8,0.1-5.6,0-8.4,0c-1.8-0.1-3.6-0.1-5.4-0.5c0-0.9,0-1.8,0-2.7
			C89,127.2,88.1,126.2,87.1,125.6L87.1,125.6z M121.2,133.8c0,2.5,0,5,0,7.5c-0.5,0.2-1,0.5-1.5,0.7v0.8h-2v-0.2c0,0,0,0,0,0
			c-0.5,0.1-0.9,0.2-1.4,0.2v0.7H114v-0.4c-0.5,0.1-1,0.1-1.4,0.2v0.9h-2.1v-0.7h-0.1c-0.4,0-0.9,0-1.3,0.1c0,0,0,0,0,0v0.8H107
			v-1.8c0,0.4,0,0.7,0,1.1h0c-0.5,0-1.1,0-1.6,0c0-1.7,0-3.4,0-5.1c0-0.1,0-0.1,0-0.2v6h-2.1v-0.7c-1.7,0.2-3.5,0.1-5.3,0.1
			c-2.9,0-5.8,0-8.7-0.1c-0.1-3.4,0-6.7,0-10.1c3.9,0.5,7.9,0.6,11.9,0.6c0.7,0,1.4,0,2.1-0.1v-1.7h2.1v1.6h0c0.5,0,1.1-0.1,1.6-0.1
			c0,0,0,0,0,0v-1.5h2.1v1.4c0,0,0,0,0,0c0.4,0,0.9-0.1,1.3-0.1c0,0,0,0,0.1,0v-1.3h2.1v1c0.5-0.1,1-0.1,1.4-0.2v-1.5h2.2v1.1
			c0.5-0.1,0.9-0.2,1.4-0.3c0,0,0,0,0,0v-2.5h2v1.9c0.5-0.2,1-0.4,1.5-0.6v-1.6h2v13h-2L121.2,133.8
			C121.2,133.8,121.2,133.8,121.2,133.8L121.2,133.8L121.2,133.8z"/>
		<path class="st2" d="M50.9,112.6c0.6,0.1,1.3,0.2,1.9,0.1c0-0.3,0-0.7,0-1c-0.2-0.5-0.9-1-1.4-0.7c-0.4,0.1-0.7,0.5-0.6,0.9
			c0,0.2,0,0.4,0,0.7C50.8,112.6,50.8,112.6,50.9,112.6L50.9,112.6L50.9,112.6z"/>
		<path class="st2" d="M68.2,113.7c0.3,0,0.6,0,0.9,0c0-0.2,0-0.3,0-0.5c0-0.6-0.6-1.2-1.2-1.2c-0.4,0-0.8,0.4-0.9,0.8
			c0,0.3,0,0.6,0,0.9C67.4,113.7,67.8,113.7,68.2,113.7L68.2,113.7L68.2,113.7z"/>
		<path class="st2" d="M62.5,50.8c-0.5-0.4-1.1-0.8-1.5-1.2c-2.4-2.2-4.9-4.2-7.3-6.4L62.5,50.8L62.5,50.8L62.5,50.8z"/>
		<polygon class="st2" points="64.4,67.3 87.9,43.7 86.3,42.1 64.4,64 		"/>
		<rect x="62.4" y="86.7" class="st2" width="2.5" height="10"/>
		<rect x="60.8" y="136.9" class="st2" width="2.1" height="7.2"/>
		<rect x="83.1" y="138" class="st2" width="2.1" height="7.2"/>
		<rect x="65.7" y="120.3" class="st2" width="2.1" height="7.2"/>
		<rect x="61.4" y="120.9" class="st2" width="2.1" height="7.2"/>
		<rect x="56.7" y="120.9" class="st2" width="2.1" height="7.2"/>
		<rect x="69.1" y="127.7" class="st2" width="2.1" height="3.7"/>
		<rect x="77.9" y="125.8" class="st2" width="2.1" height="3.7"/>
		<rect x="53.6" y="127.8" class="st2" width="2.1" height="3.7"/>
		<rect x="42.4" y="127" class="st2" width="2.1" height="3.7"/>
		<rect x="52.1" y="120.9" class="st2" width="2.1" height="7.2"/>
		<rect x="46.9" y="120.3" class="st2" width="2.1" height="7.2"/>
		<rect x="42.4" y="119.5" class="st2" width="2.1" height="7.2"/>
		<rect x="38.9" y="119.1" class="st2" width="2.1" height="7.2"/>
		<rect x="57" y="136.9" class="st2" width="2.1" height="7.2"/>
		<rect x="53.3" y="136.9" class="st2" width="2.1" height="7.2"/>
		<rect x="49.5" y="136.9" class="st2" width="2.1" height="7.2"/>
		<rect x="41.3" y="135.4" class="st2" width="2.1" height="7.2"/>
		<rect x="34.9" y="141.1" class="st2" width="2.1" height="3.7"/>
		<rect x="45.4" y="136.2" class="st2" width="2.1" height="7.2"/>
		<rect x="24.1" y="130" class="st2" width="2" height="6.6"/>
		<rect x="27.6" y="130.3" class="st2" width="2.2" height="14.3"/>
		<rect x="31.3" y="130.3" class="st2" width="2.3" height="7.1"/>
		<path d="M67.8,115.8c8.1,0,14.6-2.3,14.6-5.2l-2.6,0.2L67.8,115.8L67.8,115.8L67.8,115.8z"/>
		<polygon class="st2" points="61.6,113.2 63.7,113.2 63.7,115.6 61.6,115.6 		"/>
		<rect x="56.3" y="112.6" class="st2" width="2" height="2.7"/>
		<rect x="50.7" y="111.8" class="st2" width="2.1" height="3.2"/>
		<path class="st2" d="M37.8,125.9l-0.1,1c-0.9-0.1-3.8-0.4-5.7-2.7c-0.4-0.5-0.7-0.9-0.9-1.4l1.1-0.5L37.8,125.9L37.8,125.9
			L37.8,125.9z"/>
		<polygon points="121.7,34.4 122,35 123.6,34.1 123.7,33.2 122.1,33.6 		"/>
	</g>
</g>
<g id="Layer_2">
	<g>
		<path d="M93.8,51c-1-5.6-3.5-10.9-6.8-15.6c-2.1-3-4.6-5.7-6.7-8.7c-2.4-3.3-4.6-7-5.2-11.1c-0.5-3.9-0.1-8,1.7-11.5
			C77.4,3,76.1,1.7,75,2.1c-1.1,0.4-1.6,1.6-2.1,2.6c-1.7,3.4-2.1,7.3-1.7,11.1c0.5,4,2.1,7.8,4.3,11.2C78,30.7,81,34.3,83.8,38
			c2,3,3.9,6.1,5,9.6c1.2,3.4,1.7,7.1,1.3,10.7c0,0.3-0.2,0.7,0,1l0.1,0.1c-0.1,0-0.2,0-0.3,0c-0.1,0.4-0.2,0.9-0.2,1.3
			c0.1,0,0.2,0,0.3,0.1c-0.1,0-0.3,0.1-0.4,0.1c-0.3,0.8-0.5,1.7-0.9,2.5c0.1,0,0.3,0.1,0.4,0.2c-0.1,0-0.3-0.1-0.4-0.1
			c-0.1,0.4-0.3,0.8-0.4,1.2c-0.4,0.6-0.6,1.3-1.1,1.8c-0.3,0.5-0.5,1-0.9,1.3c0.2,0.2,0.4,0.5,0.8,0.6L87,68.7
			c0.2-0.3,0.5-0.5,0.9-0.4l-0.2-0.4l-0.2,0.3l-0.2-0.2c-0.2,0.1-0.7,0.3-0.5-0.2c0.2-0.1,0.5-0.3,0.7-0.4c-0.2,0.1-0.6,0.2-0.8,0.2
			c0.1-0.2,0.2-0.4,0.4-0.6c0.2,0,0.5,0,0.8,0.1c0.1-0.1,0.2-0.2,0.3-0.3l0.1,0.6L88,67.3c0,0.1,0,0.2,0,0.3c0.1,0,0.4,0,0.6-0.1
			c0,0.1-0.1,0.3-0.1,0.5c-0.2,0-0.5-0.1-0.6-0.1c0.2,0.3,0.4,0.5,0.6,0.8c-0.2,0-0.7,0-1,0c0.2,0.1,0.4,0.2,0.6,0.3
			c0.1,0.1,0.3,0.3,0.4,0.4c-0.1,0.3-0.1,0.5,0,0.8L88,70c0,0.2,0,0.5,0,0.6c0.2-0.2,0.3-0.3,0.5-0.5l-0.1-0.2
			c0.2-0.2,0.9-0.2,0.6-0.6l0.3,0c2.7-3.1,4.4-7,4.7-11.1C94.1,55.8,94.1,53.4,93.8,51L93.8,51L93.8,51z M88.4,67.1
			C88.2,66.8,89,66.6,89,67C88.9,67.2,88.7,67.3,88.4,67.1z M88.7,69.6c-0.3,0-0.4-0.1-0.2-0.4C88.8,69.2,88.9,69.3,88.7,69.6z
			 M89.4,68.2c-0.2,0.1-0.5,0.3-0.6,0c0-0.4,0.5-0.3,0.8-0.3C89.9,68,89.5,68.2,89.4,68.2L89.4,68.2z M89.2,66.3
			c0,0.2,0.1,0.6,0.2,0.8C89.1,67,89,66.7,89,66.4c-0.2,0.1-0.5,0.2-0.7,0.3c-0.2,0-0.5,0.2-0.6-0.1l0-0.2l0.1-0.2l0.7,0.3
			c-0.2-0.3-0.4-0.6-0.6-1c0.1,0,0.4,0.1,0.5,0.2c0-0.1,0.1-0.4,0.1-0.5c0,0.1,0,0.4,0,0.5c0.1,0,0.4-0.1,0.5-0.1l0,0.3l-0.4-0.2
			c0,0.1,0,0.4,0,0.6c0.3-0.3,0.7-0.3,1.1-0.3l0.2,0.2C89.7,66.3,89.3,66.3,89.2,66.3L89.2,66.3L89.2,66.3z"/>
		<path d="M99.9,38.9c-0.2-0.1-0.5-0.1-0.7-0.3C99.4,38.6,99.7,38.7,99.9,38.9c-0.5-2.2-1.3-4.2-2.4-6c-1.7-3.2-4-5.9-5.8-9
			c-1.3-2.3-2.1-4.9-2.4-7.5c-0.1-0.8-0.7-1.5-1.6-1.4c-0.9,0-1.8,0.9-1.8,1.8c-0.1,2.2,0.4,4.5,1.1,6.6c2,5.3,6.4,9.2,8.4,14.5
			c0.6,1.5,1.2,3,1.3,4.6l0.2,0c0,0.5,0,0.9,0.1,1.4c0.2,0.1,0.4,0.2,0.6,0.4l-0.4,0.1l0,0.3c0.2-0.1,0.5-0.4,0.6-0.5
			c0,0.2,0,0.7,0,1c0.1-0.3,0.1-0.6,0.1-0.9c0.4,0,0.8-0.2,1.2-0.3c-0.1,0.4-0.3,0.7-0.4,1.1c0.2-0.3,0.2-0.9,0.8-0.8
			c0,0-0.1-0.1-0.1-0.1l-0.4,0.1l0.2-0.4c-0.5,0.2-1,0.3-1.6,0.3c0-0.3,0.1-0.5,0.3-0.7c-0.1-0.5,0.1-0.9,0.4-1.3
			c0.1,0.3-0.3,1,0.3,1.1c-0.1-0.1-0.2-0.4-0.2-0.5c0.2,0,0.5,0,0.6,0c-0.1-0.1-0.4-0.3-0.6-0.5c0.1,0,0.4,0,0.6,0.1
			c-0.1-0.1-0.2-0.3-0.2-0.5l0.4,0.3c0-0.4,0-0.8,0-1.2c0.4,0.3,0,0.9,0.3,1.3l0.1-0.6c0.2,0.3,0.4,0.6,0.6,0.8
			C100.4,41.2,100.1,40,99.9,38.9L99.9,38.9L99.9,38.9z M97.2,41.7c0.1-0.3,0.6,0,0.4,0.2C97.4,42.1,97,42,97.2,41.7z M97.4,43.3
			l0.1-0.2C98,43,97.7,43.7,97.4,43.3z M98.6,39.8c-0.3,0.1-0.4,0-0.3-0.2C98.7,39.4,98.8,39.5,98.6,39.8z M100,41.5
			c-0.1-0.1-0.2-0.2-0.3-0.2C99.7,40.5,100.4,41,100,41.5z"/>
		<path d="M64.1,22.8c0.7-0.4,1.7-0.3,2.2,0.4c2.3,3.3,3.2,7.5,3.1,11.5c0,3.4-0.8,6.8-2.4,9.8c-1.3,2.3-2.9,4.3-4.9,6
			c-1,0.8-2.7,0-2.7-1.3c0-1.1,1-1.9,1.7-2.7c4.3-4.8,5.7-11.8,3.8-17.9c-0.4-1.4-1-2.8-1.5-4.2C63,23.8,63.5,23.1,64.1,22.8
			L64.1,22.8L64.1,22.8z"/>
		<path d="M74.3,71c-0.8,0.6-1.5,1.1-2.4,1.5c-0.9,0.5-2.1,0.8-2.5,1.9c-0.4,1.2,0.9,2.6,2.1,2.2c2-0.7,4-2.1,5.6-3.3
			C76.3,72.5,75.1,72.1,74.3,71L74.3,71L74.3,71z"/>
		<path d="M96.5,39.9c0.2,0.9,0.3,1.8,0.4,2.8c0.1,1-0.1,2.3,0.7,3.1c0.9,0.9,2.7,0.2,2.8-1c0.2-2.1-0.2-4.4-0.7-6.5
			C98.6,38.7,97.8,39.6,96.5,39.9L96.5,39.9L96.5,39.9z"/>
		<path d="M59.4,65.5c0.8,0.6,1.5,1.1,2.4,1.5c0.9,0.5,2.1,0.8,2.5,1.9c0.4,1.2-0.9,2.6-2.1,2.2c-2-0.7-3.9-2.3-5.6-3.5
			C57.6,66.7,58.7,66.5,59.4,65.5L59.4,65.5z"/>
		<path d="M88.3,64.9c-0.5,0.8-1.1,1.5-1.7,2.2C86,67.9,85,68.7,85,69.8c0,1.3,1.8,2.1,2.8,1.2c1.6-1.4,2.7-3.2,3.8-5
			C90.4,65.6,89.4,65.6,88.3,64.9L88.3,64.9L88.3,64.9z"/>
		<path d="M61.1,66.6c-1.7-1.3-3.1-2.9-4.2-4.7c-1.5-2.4-2.7-5-2.9-7.9c-0.4-3.5,0-7.3,1.7-10.5c1.1-2.2,2.6-4.2,4.4-6
			c0.5-0.5,1.3-0.8,1.4-1.5c0.4-1.4-1.2-2.7-2.5-2.1c-1.6,1.2-3,2.6-4.3,4.1c-1.8,2.3-3.1,5-4,7.7c-1,3.9-1,8.1-0.1,12
			c1,3.9,3.3,7.3,6.3,10c0.8,0.6,1.6,1.4,2.6,1.8l0-0.1c-0.1-0.2-0.3-0.7-0.4-0.9l0.5,0.7c0.2,0.1,0.5,0.2,0.7,0.2
			c-0.1-0.1-0.2-0.3-0.2-0.4l0.1-0.6c-0.1,0.2-0.4,0.5-0.5,0.6l-0.2-0.4l0.5,0.1c-0.1-0.2-0.2-0.4-0.3-0.6l0.5,0.2
			c-0.1-0.2-0.3-0.7-0.4-0.9c0.1,0.1,0.4,0.4,0.6,0.5c0.1-0.1,0.3-0.3,0.4-0.4c0-0.6-0.4-0.2-0.8-0.1l0.1-0.4l-0.3,0l0.1,0.4l-0.3,0
			c0.1,0.2,0.1,0.4,0.2,0.6c-0.3,0-0.6-0.1-0.9-0.1c0.2,0,0.5,0,0.7-0.1l0-0.6l-0.5,0.2c0-0.1,0-0.2-0.1-0.3c0.2,0,0.6,0.1,0.8,0.1
			c0-0.3-0.1-0.5-0.4-0.6l0.1-0.3c-0.3-0.8,0.1-0.1,0.3,0.1c0.2,0.2,0.8,0.3,0.4,0.8c0.1-0.1,0.3-0.2,0.3-0.3l0.1-0.2l0.1-0.2
			c0.1,0.3,0.3,0.6,0.7,0.4c0.2,0.4,0.5,0.7,0.7,1.1C62.3,67.2,61.6,67,61.1,66.6L61.1,66.6L61.1,66.6z M58.4,67.4
			c-0.3-0.1-0.3-0.2,0-0.4C58.7,67.1,58.7,67.3,58.4,67.4z"/>
		<path d="M82.6,48.5c-0.6-1.2-2.6-0.9-3,0.3c-0.2,0.8,0.2,1.6,0.4,2.4c1.2,4.7,1,9.8-1.3,14.1c-1.5,3-4,5.5-6.8,7.3
			c0.1,0.1,0.3,0.2,0.4,0.3c-0.3,0-0.8-0.4-0.8,0.2c-0.1,0-0.3-0.1-0.4-0.1l0,0.2c-0.4,0-0.7,0.1-0.5,0.5c-0.1,0-0.4,0-0.5-0.1
			c0.1,0.1,0.4,0.2,0.5,0.2c0.1-0.2,0.2-0.3,0.3-0.5c0.3,0.1,0.4,0.5,0.6,0.7c0.3,0,0.6-0.1,0.9-0.1c0.1,0.2,0.2,0.3,0.3,0.5l0,0.2
			l0.4-0.1c-0.1,0.2-0.2,0.4-0.3,0.6l0.4,0c-0.1,0.1-0.3,0.3-0.5,0.5c0-0.2,0-0.6,0-0.8c-0.2,0.2-0.4,0.4-0.5,0.7
			c0.1,0,0.2,0.1,0.3,0.1c0,0.1-0.1,0.2-0.1,0.3c-0.2,0-0.4,0.1-0.6,0.3l-0.3-0.1l0.1,0.4c3.2-1.2,6.1-3.3,8.3-6
			c2.5-3,3.9-6.8,4.4-10.6C84.9,56,84.4,52,82.6,48.5L82.6,48.5L82.6,48.5z M71.6,73.6c-0.3,0.1-0.4,0-0.3-0.3
			C71.6,73.3,71.7,73.4,71.6,73.6z M73.1,74.2c0,0.3-0.5,0.2-0.4-0.1c0.2-0.2,0.2-0.5,0.2-0.7C73.2,73.3,73.1,73.9,73.1,74.2
			L73.1,74.2z"/>
		<g>
			<path d="M44.5,57.8c-0.1,0-0.1,0.1-0.2,0.1c0-0.1,0-0.3,0-0.4l-0.2,0c0,0.2,0,0.5,0,0.6C44.3,58,44.4,57.9,44.5,57.8L44.5,57.8z"
				/>
			<path d="M122.1,67.2c0-0.9,0.2-2.1-0.7-2.7c-1.5-1.1-3.3-1.9-4.9-2.8c-2.1-1.2-4.4-2.3-6.5-3.5c-0.7-0.3-1.4-0.7-2.1-1.1
				c-0.3,0.2-0.5,0.5-0.7,0.9c0,0,0,0.1,0,0.1c0,0-0.1,0-0.1,0c-0.4,0.8-0.7,1.6-1.1,2.3c3.2,1.8,6.4,3.5,9.6,5.3
				c-0.5,0.6-1.4,0.9-2.1,1.3c-9.8,5.3-19.6,10.7-29.4,16.2c-3.6,1.9-7.2,3.9-10.8,5.9c-1.7-1-3.5-1.9-5.2-2.8
				c-4.1-2.3-8.2-4.4-12.3-6.7c-6.8-3.7-13.6-7.5-20.5-11.1c-1.5-0.9-3.2-1.6-4.7-2.7c3.3-1.7,6.5-3.6,9.8-5.5l0,0
				c0,0,0.1-0.1,0.1-0.1l3.3-2c0,0,0.1,0,0.1-0.1c-0.4,0-0.7,0-1.1,0c-0.1,0.4-0.3,0.1-0.5,0c-0.3-0.2-0.8,0.1-1-0.2
				c0.2,0,0.5,0.1,0.7,0.1c0-0.1,0-0.4,0-0.6c-0.2,0-0.6,0.1-0.8,0.1l-0.1-0.3l0.4,0.1c0-0.1,0-0.1,0-0.2c0.2,0,0.5,0.1,0.7,0.1
				c0.1,0,0.2,0,0.3,0c-0.3-0.4-0.5-1-1.2-1l0.4-0.1l0.7,0.4c-0.1-0.2-0.4-0.5-0.5-0.6l0.1-0.2c-0.2,0-0.5,0.1-0.6,0.2
				c0.1-0.1,0.2-0.4,0.3-0.6c-0.2,0.1-0.5,0.1-0.7,0.2c-0.4,0.1-0.7,0.3-1,0.5l0,0l0,0.1c-0.1,0-0.2,0-0.3,0.1c0,0,0,0-0.1,0
				c-0.5,0.3-1,0.5-1.5,0.8l0,0c-3.1,1.6-6.2,3.3-9.3,5c-1.4,0.8-2.9,1.5-4.2,2.4c-0.6,0.5-0.5,1.3-0.5,2c0,3.8,0,7.6,0,11.4
				c0,1.7,0,3.5,0,5.2c0,0.7,0,1.3,0.1,2c-0.2,0.8,0.2,1.6,0,2.4c-0.2,0.7,0.2,1.4,0,2.2c0,0.3,0.1,0.6,0.1,0.9c-0.1,0-0.1,0-0.2,0
				c0,0-0.1,0-0.1,0c0,0,0.1,0,0.1,0c0.3,0.2,0.2,0.5,0,0.8c0.1,0,0.2,0,0.2,0l-0.2,0.5c0.3-0.2,0.5-0.4,0.7-0.7l-0.4,0.1
				c0-0.1,0-0.4,0-0.5c0.1,0,0.3,0.1,0.4,0.1l0-0.2c0.1-0.1,0.3-0.3,0.4-0.4c0,0.2,0,0.4,0,0.6c0.2,0,0.7,0,0.9,0
				c-0.3-0.3-0.6-0.6-0.9-0.8c0.2,0,0.7,0,1,0c-0.3,0.3-0.2,0.6,0.1,0.8c-0.5,0.4-1.1,0.2-1.7,0.1c0.1,0.1,0.2,0.4,0.3,0.5
				c0.1,0,0.4-0.1,0.5-0.1l0,0.2c0.1,0.1,0.3,0.3,0.4,0.4c-0.1,0.1-0.2,0.2-0.3,0.3c-0.2,0-0.4-0.1-0.6-0.1c0.1,0.4,0.4,0.7,0.7,1
				l-0.2-0.7c0.3,0,0.7,0,1,0l-0.2-0.3c-0.1,0-0.3-0.1-0.4-0.1l0-0.3c0.2,0,0.5,0,0.6,0c0,0.3,0,0.6,0,0.9c-0.1,0-0.3,0.1-0.4,0.2
				c0,0.2,0,0.3,0.1,0.5c0,0,0,0,0,0c0,0,0,0.1,0,0.1c0,0,0-0.2,0-0.1c0-0.2,0.1-0.4,0.1-0.5c0.1,0.3,0.4,0.3,0.7,0.4
				c0.1,0,0.1-0.1,0.2-0.1c0.1-0.1,0.2-0.1,0.2-0.2c0.1-0.1,0.2-0.3,0.3-0.5c0-0.5,0-1,0-1.5c-0.8-0.1-0.2-1-0.4-1.5
				c0.3,0.4,0.1,0.8,0.1,1.3c0.5-0.5,0.1-1.2,0.3-1.7c0.2-1-0.1-1.9,0.1-2.9c-0.1,0.1-0.4,0.2-0.5,0.3c-0.1,0.2-0.1,0.4-0.2,0.6
				l0.1-0.7l-0.7,0.6c0.3-0.5,0.8-0.8,1.3-0.8c0-2.4,0-4.7,0-7.1c0-3.3,0-6.6,0-9.9c2.2,1.2,4.4,2.5,6.6,3.6
				c5.2,2.7,10.4,5.6,15.6,8.4c3.4,1.8,6.8,3.7,10.2,5.5c3.6,2.1,7.4,4,11,6.2c0,17,0,33.9,0,50.9c-0.9-0.6-1.9-1.1-2.8-1.6
				c-6.6-3.6-13.1-7.3-19.7-10.9c-4.1-2.2-8.2-4.5-12.4-6.7c0,0.1-0.1,0.4-0.1,0.5c0-0.2,0-0.4,0.1-0.6c-2.1-1.1-4.3-2.3-6.4-3.3
				c-0.4,0.6-0.8,1.1-1.3,1.7c-0.1,0.1-0.1,0.2-0.2,0.3c-0.2,0.4-0.4,0.8-0.7,1.2c1.1,0.4,2.1,1.1,3.1,1.6c3.9,2.2,7.8,4.4,11.8,6.6
				c5.3,3.1,10.8,6,16.1,9c4.2,2.4,8.6,4.7,12.8,7.2c0.9,0.5,2,0.6,2.9,0.2c5.2-3.2,10.7-6,16-9.2c9.3-5.1,18.6-10.2,27.8-15.5
				c-0.4-1.2-1.4-2.3-2.4-3c-0.6,0.3-1.1,0.6-1.7,0.9c-8.2,4.4-16.4,8.9-24.5,13.5c-1.9,1.1-4,2.1-5.9,3.3c-2.8,1.6-5.6,3.1-8.4,4.8
				c-0.1-17,0-34,0-51c6.5-3.7,13.1-7.2,19.7-10.9c3.4-1.9,6.8-3.7,10.1-5.6c3.2-1.7,6.4-3.5,9.6-5.2c1.2-0.6,2.3-1.4,3.6-2
				c0,4.4,0,8.8,0.1,13.2c0,0.8,0.1,1.6,0.1,2.4c0.1,0,0.2,0.1,0.3,0.1c0,0,0-0.1,0-0.1c0.1,0.1,0.1,0.1,0.1,0.2
				c0.2,0.1,0.2,0.3,0.3,0.5c0.1,0.2,0.3,0.3,0.6,0.2c-0.2,0.1-0.4,0.2-0.7,0.3c-0.1,0.2-0.3,0.4-0.6,0.5c0,0.9,0,1.8,0,2.7
				c0,0,0.1,0.1,0.1,0.2h0c0-0.2,0.1-0.5,0.1-0.6l0.5,0.1c-0.1,0.1-0.4,0.3-0.5,0.4c0,0,0.1,0.1,0.2,0.1c0.1,0,0.2,0,0.3,0
				c0.1-0.2,0.2-0.4,0.2-0.6c0,0.1,0,0.4,0,0.6c0.1,0,0.1,0,0.2,0c0.1-0.1,0.2-0.3,0.3-0.4c-0.1,0-0.3-0.1-0.5-0.2l0-0.3
				c0.1,0.1,0.4,0.2,0.6,0.3c0,0.2,0,0.4,0,0.6c0.2,0,0.4,0,0.6,0c0-0.1,0-0.1,0-0.2c0.1,0,0.3-0.1,0.3-0.1l0.2-0.1
				c0.1,0,0.1,0,0.1,0.1c0,0,0,0,0,0c0.2-0.2,0.4-0.2,0.6-0.3c0-1.6,0-3.3,0.1-4.9C122.2,78.4,122.1,72.8,122.1,67.2L122.1,67.2
				L122.1,67.2z M42.2,56.9c-0.1,0.1-0.3,0.3-0.4,0.4c0-0.3-0.1-0.5-0.2-0.7C41.7,56.7,42,56.8,42.2,56.9L42.2,56.9L42.2,56.9z
				 M25.4,90.4c0,0,0,0.1,0,0.2c-0.2,0-0.5,0-0.6,0C24.9,90.3,25.1,90.2,25.4,90.4z"/>
		</g>
		<path d="M43.9,57.1c-0.3,0.4-0.9-0.7-0.3-0.5C43.8,56.7,44,56.8,43.9,57.1z"/>
		<path d="M43.3,56.9c0.1,0.2,0.2,0.4,0.3,0.6c0.1,0,0.3,0,0.4,0l-0.1,0.3c-0.1,0-0.2-0.1-0.3-0.1c-0.3,0-0.6,0-0.9,0.1l0.1-0.5
			c0.1,0,0.4,0.1,0.6,0.1C43.3,57.3,43.3,57,43.3,56.9L43.3,56.9L43.3,56.9z"/>
		<path d="M42.3,57.6c0.4-0.2,0.3,0.6,0,0.2L42.3,57.6z"/>
		<path d="M60.3,68.3c0-0.3,0.6-1.1,0.8-0.7c-0.1,0.1-0.2,0.3-0.3,0.4C60.7,68.2,60.5,68.3,60.3,68.3L60.3,68.3z"/>
		<path d="M60.9,68.9c-0.2-0.3,0.2-0.4,0.4-0.2c0.3-0.1,0.3,0.2,0.1,0.3C61.2,69.2,61,69.2,60.9,68.9L60.9,68.9L60.9,68.9z"/>
		<path d="M59.8,69.7c0.1,0,0.4,0,0.5,0.1c0.2,0.3,0.5,0.2,0.8,0.1c0,0.2,0,0.4-0.1,0.5c-0.1,0-0.3-0.1-0.4-0.1l0.1-0.3l-0.3,0.2
			v-0.3C60.2,69.9,59.8,70,59.8,69.7L59.8,69.7z"/>
		<path d="M71.1,74.1c0.5,0.1-0.3,0.7-0.3,0.2C70.9,74.2,71,74.1,71.1,74.1z"/>
		<path d="M71.4,74.4c0.1-0.2,0.6-0.3,0.7-0.1C72,74.6,71.5,74.7,71.4,74.4z"/>
		<path d="M70.8,74.6c0.2,0.1,0.4,0.2,0.6,0.3l0.6-0.3l-0.6,0.6c0.1,0.1,0.4,0.2,0.6,0.2c-0.4,0.1-0.7-0.1-1-0.2l0.3-0.1
			C71.2,75,71,74.8,70.8,74.6L70.8,74.6z"/>
		<path d="M24.9,91.9c0.3-0.1,0.5,0.4,0.1,0.4C24.8,92.4,24.5,91.9,24.9,91.9z"/>
	</g>
	<path d="M44.8,56.7c0,0.4-0.1,0.8-0.4,1.1c-0.1,0.1-0.2,0.2-0.3,0.3c0,0,0,0,0,0c0,0-0.1,0-0.1,0.1l-3.3,2l-0.1,0.1l0,0l-2.3-3.1
		l0,0l1.6-0.8l0.3-0.2l1-0.5l1.1-0.6c0.6-0.3,1.4-0.2,1.9,0.2C44.6,55.7,44.8,56.2,44.8,56.7L44.8,56.7z"/>
	<path d="M27.9,78v13.8c0,0.3-0.1,0.5-0.2,0.8c-0.1,0.2-0.2,0.3-0.3,0.5c-0.1,0.1-0.1,0.2-0.2,0.2c-0.1,0-0.1,0.1-0.2,0.1
		c-0.2,0.2-0.5,0.3-0.8,0.3c0,0,0,0,0,0c0,0-0.1,0-0.1,0c-1,0-1.9-0.8-1.9-1.9V78L27.9,78L27.9,78z"/>
	<path d="M122.1,77.9v13.8c0,0.3-0.1,0.5-0.2,0.8c-0.1,0.2-0.2,0.3-0.3,0.5c-0.1,0.1-0.1,0.2-0.2,0.2c-0.1,0-0.1,0.1-0.2,0.1
		c-0.2,0.2-0.5,0.3-0.8,0.3c0,0,0,0,0,0c0,0-0.1,0-0.1,0c-1,0-1.8-0.8-1.8-1.9V77.9L122.1,77.9L122.1,77.9L122.1,77.9z"/>
	<path d="M107.4,56.9l4.7,2.4l-1.9,3.5l-4.6-2.5c-0.9-0.5-1.3-1.7-0.7-2.6l0,0C105.4,56.7,106.5,56.4,107.4,56.9L107.4,56.9
		L107.4,56.9z"/>
	<path d="M119,123.9l-2.8,1.5l-2.3-3.2l3.2-1.6c0.8-0.4,1.7-0.2,2.3,0.5l0,0C120.2,122,120,123.3,119,123.9L119,123.9L119,123.9z"/>
	<path d="M27.4,124l3,1.5l2.4-3l-3.5-1.8c-0.8-0.4-1.9-0.2-2.5,0.5l0,0C26.1,122.1,26.3,123.4,27.4,124L27.4,124L27.4,124z"/>
	<polygon points="88.8,63.5 88.9,63.4 89.8,62.1 90,61.7 89.7,60.9 89.8,60.7 90.2,59.5 90,59.3 90,58.9 90.8,59.8 90.6,63.6 
		89.8,64.6 	"/>
	<polygon points="99.8,38.5 99.9,38.9 99.7,39 99.4,38.4 	"/>
	<g>
		<path d="M50.4,119.2l-10.6-5.7l-1.4,5.3l-5.6-3l8.6-31.2l7.6,4.2l8.4,40.1l-5.5-3L50.4,119.2L50.4,119.2L50.4,119.2z M45.6,95.3
			l-1-0.5l-3.1,11.9l7.2,3.9L45.6,95.3L45.6,95.3L45.6,95.3z"/>
		<path d="M63.1,96.6l0,35.5l-5.1-2.7V93.8L63.1,96.6L63.1,96.6L63.1,96.6z"/>
	</g>
	<g>
		<path d="M83.7,96.2l8-4.3c2.1-1.1,2.4-1.2,3-1.3c2.3-0.3,2.9,2.2,2.9,11.4c0,7.7-0.4,10.9-1.8,13.3c-0.8,1.3-1.6,2-4.2,3.4
			l-4.5,2.5v8.7l-3.6,2L83.7,96.2L83.7,96.2z M91.7,109.8c1.6-0.9,1.7-1,2-1.6c0.3-0.8,0.5-1.8,0.5-4.3s-0.1-3.4-0.6-3.7
			c-0.2-0.2-0.3-0.2-1.9,0.6l-4.4,2.4v9L91.7,109.8L91.7,109.8L91.7,109.8z"/>
		<path d="M113.7,95.3v0.9c0,3.3-0.1,9.4-0.1,11.1c-0.1,4.1-0.9,7-2.2,8.5c-1.2,1.4-2.4,2.3-5.5,4c-3.9,2.2-5.2,2.4-6.1,0.9
			c-1-1.5-1.2-4-1.2-15.5c0-9.5,0.3-13.2,1.3-15.7c0.8-2.2,2.7-3.9,6.7-6c4.2-2.2,5.8-2.2,6.5,0.1c0.5,1.5,0.6,3.5,0.6,8.6l-3.5,1.9
			c0-2-0.1-2.4-0.3-2.8c-0.3-0.5-1.2-0.3-3.8,1.1c-4.1,2.2-4.1,2.3-4.1,11.4c0,5.8,0.1,7.7,0.5,8.4c0.3,0.5,0.6,0.6,1.5,0.2l2.1-1.1
			c3-1.6,3.6-2.1,3.9-3.2c0.2-0.7,0.2-1.3,0.2-4.1l-4.6,2.5l0-7L113.7,95.3L113.7,95.3L113.7,95.3z"/>
	</g>
</g>
</svg>
