<?xml version="1.0" encoding="UTF-8"?>
<!DOCTYPE svg PUBLIC "-//W3C//DTD SVG 1.1//EN" "http://www.w3.org/Graphics/SVG/1.1/DTD/svg11.dtd">
<svg xmlns="http://www.w3.org/2000/svg" version="1.1" width="220px" height="220px" style="shape-rendering:geometricPrecision; text-rendering:geometricPrecision; image-rendering:optimizeQuality; fill-rule:evenodd; clip-rule:evenodd" xmlns:xlink="http://www.w3.org/1999/xlink">
<g><path style="opacity:0.965" fill="#111726" d="M 95.5,4.5 C 141.248,0.958419 176.414,18.2918 201,56.5C 215.05,82.4956 218.383,109.829 211,138.5C 199.5,175.333 175.333,199.5 138.5,211C 87.1072,222.035 46.9405,205.868 18,162.5C 1.9319,131.267 0.265234,99.2669 13,66.5C 30.0492,31.8955 57.5492,11.2288 95.5,4.5 Z"/></g>
<g><path style="opacity:1" fill="#bfbfbf" d="M 194.5,160.5 C 194.833,127.493 194.5,94.4933 193.5,61.5C 166.438,77.696 139.105,93.3626 111.5,108.5C 110.167,108.5 108.833,108.5 107.5,108.5C 81.1676,92.6646 54.5009,77.3312 27.5,62.5C 26.2112,61.3634 25.2112,60.0301 24.5,58.5C 52.9692,42.4311 81.3026,26.0978 109.5,9.5C 137.67,26.086 166.003,42.4193 194.5,58.5C 195.83,92.6643 195.83,126.664 194.5,160.5 Z"/></g>
<g><path style="opacity:1" fill="#f9f9f9" d="M 109.5,36.5 C 109.167,36.5 108.833,36.5 108.5,36.5C 103.963,38.9301 99.6301,41.5968 95.5,44.5C 84.6973,50.4023 74.0306,56.569 63.5,63C 61.3496,64.4114 59.0163,65.2447 56.5,65.5C 53.9014,63.5207 51.2347,61.5207 48.5,59.5C 48.7093,58.914 49.0426,58.414 49.5,58C 67.0608,48.0591 84.3941,37.8924 101.5,27.5C 103.928,26.7878 106.261,25.7878 108.5,24.5C 109.491,28.4454 109.824,32.4454 109.5,36.5 Z"/></g>
<g><path style="opacity:1" fill="#6f6f6f" d="M 161.5,65.5 C 148.341,58.7544 135.341,51.7544 122.5,44.5C 122.167,44.5 121.833,44.5 121.5,44.5C 118.506,42.0002 115.173,40.0002 111.5,38.5C 111.5,38.1667 111.5,37.8333 111.5,37.5C 111.158,36.6618 110.492,36.3284 109.5,36.5C 109.824,32.4454 109.491,28.4454 108.5,24.5C 106.261,25.7878 103.928,26.7878 101.5,27.5C 103.765,25.358 106.432,23.6913 109.5,22.5C 130.664,34.5812 151.664,46.9145 172.5,59.5C 169.259,62.2869 165.593,64.2869 161.5,65.5 Z"/></g>
<g><path style="opacity:1" fill="#4f4f4f" d="M 108.5,36.5 C 108.833,36.5 109.167,36.5 109.5,36.5C 110.492,36.3284 111.158,36.6618 111.5,37.5C 110.168,46.6424 109.502,56.1424 109.5,66C 109.5,75.6726 109.834,85.1726 110.5,94.5C 111.391,93.8902 112.391,93.5569 113.5,93.5C 111.652,96.4785 109.652,96.8118 107.5,94.5C 108.497,75.3405 108.83,56.0072 108.5,36.5 Z"/></g>
<g><path style="opacity:1" fill="#cbcbcb" d="M 111.5,37.5 C 111.5,37.8333 111.5,38.1667 111.5,38.5C 110.503,56.9925 110.17,75.6592 110.5,94.5C 109.834,85.1726 109.5,75.6726 109.5,66C 109.502,56.1424 110.168,46.6424 111.5,37.5 Z"/></g>
<g><path style="opacity:1" fill="#747474" d="M 108.5,36.5 C 108.83,56.0072 108.497,75.3405 107.5,94.5C 103.345,93.2583 99.678,91.2583 96.5,88.5C 96.5,83.8333 96.5,79.1667 96.5,74.5C 96.4681,69.6093 95.8015,64.9426 94.5,60.5C 95.7219,57.9384 96.3885,55.1051 96.5,52C 96.4971,49.3097 96.1638,46.8097 95.5,44.5C 99.6301,41.5968 103.963,38.9301 108.5,36.5 Z"/></g>
<g><path style="opacity:1" fill="#fefefe" d="M 111.5,38.5 C 115.173,40.0002 118.506,42.0002 121.5,44.5C 121.667,59.1705 121.5,73.8371 121,88.5C 118.176,89.8181 115.676,91.4848 113.5,93.5C 112.391,93.5569 111.391,93.8902 110.5,94.5C 110.17,75.6592 110.503,56.9925 111.5,38.5 Z"/></g>
<g><path style="opacity:1" fill="#121826" d="M 95.5,44.5 C 96.1638,46.8097 96.4971,49.3097 96.5,52C 96.3885,55.1051 95.7219,57.9384 94.5,60.5C 86.5975,64.7014 78.7641,69.0348 71,73.5C 66.0401,70.9394 61.2068,68.2727 56.5,65.5C 59.0163,65.2447 61.3496,64.4114 63.5,63C 74.0306,56.569 84.6973,50.4023 95.5,44.5 Z"/></g>
<g><path style="opacity:1" fill="#121825" d="M 122.5,44.5 C 135.341,51.7544 148.341,58.7544 161.5,65.5C 157.295,68.525 152.795,71.1916 148,73.5C 139.421,69.2504 131.088,64.5838 123,59.5C 122.501,54.5111 122.334,49.5111 122.5,44.5 Z"/></g>
<g><path style="opacity:1" fill="#4c4c4c" d="M 24.5,58.5 C 25.2112,60.0301 26.2112,61.3634 27.5,62.5C 26.4168,62.4606 25.4168,62.1272 24.5,61.5C 23.5001,94.1599 23.1668,126.827 23.5,159.5C 22.3359,126.669 22.1692,93.6692 23,60.5C 23.2784,59.5842 23.7784,58.9175 24.5,58.5 Z"/></g>
<g><path style="opacity:1" fill="#747474" d="M 27.5,62.5 C 54.5009,77.3312 81.1676,92.6646 107.5,108.5C 108.493,141.76 108.826,175.094 108.5,208.5C 79.9035,192.558 51.5701,176.225 23.5,159.5C 23.1668,126.827 23.5001,94.1599 24.5,61.5C 25.4168,62.1272 26.4168,62.4606 27.5,62.5 Z"/></g>
<g><path style="opacity:1" fill="#fcfcfc" d="M 194.5,160.5 C 166.997,176.753 139.33,192.753 111.5,208.5C 110.502,175.671 110.168,142.671 110.5,109.5C 111.167,109.5 111.5,109.167 111.5,108.5C 139.105,93.3626 166.438,77.696 193.5,61.5C 194.5,94.4933 194.833,127.493 194.5,160.5 Z"/></g>
<g><path style="opacity:1" fill="#f7f7f7" d="M 95.5,74.5 C 92.4512,76.8627 89.1178,78.8627 85.5,80.5C 78.238,79.1115 77.9047,76.9449 84.5,74C 87.9939,72.4205 91.3272,70.5872 94.5,68.5C 95.4656,70.396 95.7989,72.396 95.5,74.5 Z"/></g>
<g><path style="opacity:1" fill="#6c6c6c" d="M 135.5,80.5 C 130.783,79.3078 126.45,77.3078 122.5,74.5C 122.336,71.8127 122.503,69.146 123,66.5C 128.418,69.793 133.918,72.9597 139.5,76C 140.899,76.5946 142.232,76.4279 143.5,75.5C 144.696,75.8457 144.696,76.3457 143.5,77C 140.929,78.4538 138.262,79.6205 135.5,80.5 Z"/></g>
<g><path style="opacity:1" fill="#131824" d="M 95.5,74.5 C 95.8333,74.5 96.1667,74.5 96.5,74.5C 96.5,79.1667 96.5,83.8333 96.5,88.5C 93.0568,86.8956 89.7234,85.0623 86.5,83C 85.7476,82.3292 85.4142,81.4959 85.5,80.5C 89.1178,78.8627 92.4512,76.8627 95.5,74.5 Z"/></g>
<g><path style="opacity:1" fill="#131824" d="M 122.5,74.5 C 126.45,77.3078 130.783,79.3078 135.5,80.5C 131.483,83.2671 127.316,85.9337 123,88.5C 122.501,83.8452 122.334,79.1785 122.5,74.5 Z"/></g>
<g><path style="opacity:1" fill="#525252" d="M 35.5,80.5 C 34.8335,92.1619 34.5001,103.995 34.5,116C 34.501,128.186 35.1676,140.019 36.5,151.5C 36.1667,152.167 35.8333,152.833 35.5,153.5C 34.1676,141.519 33.5009,129.185 33.5,116.5C 33.8333,104.167 34.1667,91.8333 34.5,79.5C 35.1067,79.6236 35.44,79.9569 35.5,80.5 Z"/></g>
<g><path style="opacity:1" fill="#f9f9f9" d="M 35.5,80.5 C 38.4931,82.6369 41.6598,84.6369 45,86.5C 45.4998,97.495 45.6665,108.495 45.5,119.5C 45.5,128.5 45.5,137.5 45.5,146.5C 42.0078,147.41 39.0078,149.076 36.5,151.5C 35.1676,140.019 34.501,128.186 34.5,116C 34.5001,103.995 34.8335,92.1619 35.5,80.5 Z"/></g>
<g><path style="opacity:1" fill="#121825" d="M 60.5,122.5 C 56.3979,125.392 52.0645,128.059 47.5,130.5C 46.8332,135.985 46.1665,141.319 45.5,146.5C 45.5,137.5 45.5,128.5 45.5,119.5C 46.3305,108.674 46.8305,97.6743 47,86.5C 50.75,88.9589 54.5834,91.2922 58.5,93.5C 59.1667,103.325 59.8334,112.992 60.5,122.5 Z"/></g>
<g><path style="opacity:1" fill="#111724" d="M 171.5,87.5 C 172.833,102.167 172.833,116.833 171.5,131.5C 167.194,129.012 162.861,126.512 158.5,124C 159.821,114.167 159.821,104.333 158.5,94.5C 162.993,92.421 167.326,90.0877 171.5,87.5 Z"/></g>
<g><path style="opacity:1" fill="#fdfdfd" d="M 71.5,101.5 C 71.5,106.5 71.5,111.5 71.5,116.5C 69.8297,116.751 68.3297,117.418 67,118.5C 66.1694,112.141 66.3361,105.807 67.5,99.5C 68.8599,100.18 70.1932,100.847 71.5,101.5 Z"/></g>
<g><path style="opacity:1" fill="#6b6b6b" d="M 152.5,98.5 C 152.666,105.841 152.5,113.174 152,120.5C 149.833,119.512 148,118.179 146.5,116.5C 146.819,111.637 146.486,106.97 145.5,102.5C 147.663,100.917 149.996,99.5839 152.5,98.5 Z"/></g>
<g><path style="opacity:1" fill="#121824" d="M 72.5,101.5 C 77.0366,103.93 81.3699,106.597 85.5,109.5C 81.2432,110.962 77.2432,112.962 73.5,115.5C 72.5067,110.88 72.1734,106.214 72.5,101.5 Z"/></g>
<g><path style="opacity:1" fill="#121724" d="M 145.5,102.5 C 146.486,106.97 146.819,111.637 146.5,116.5C 142.886,114.693 139.22,112.86 135.5,111C 134.748,110.329 134.414,109.496 134.5,108.5C 138.167,106.5 141.833,104.5 145.5,102.5 Z"/></g>
<g><path style="opacity:1" fill="#5e5e5e" d="M 107.5,108.5 C 108.833,108.5 110.167,108.5 111.5,108.5C 111.5,109.167 111.167,109.5 110.5,109.5C 109.502,142.662 109.168,175.996 109.5,209.5C 108.833,209.5 108.5,209.167 108.5,208.5C 108.826,175.094 108.493,141.76 107.5,108.5 Z"/></g>
<g><path style="opacity:1" fill="#b0b0b0" d="M 110.5,109.5 C 110.168,142.671 110.502,175.671 111.5,208.5C 111.158,209.338 110.492,209.672 109.5,209.5C 109.168,175.996 109.502,142.662 110.5,109.5 Z"/></g>
<g><path style="opacity:1" fill="#bfbfbf" d="M 158.5,94.5 C 159.821,104.333 159.821,114.167 158.5,124C 162.861,126.512 167.194,129.012 171.5,131.5C 171.666,136.179 171.499,140.845 171,145.5C 154.19,136.185 137.69,126.519 121.5,116.5C 125.63,113.597 129.963,110.93 134.5,108.5C 134.414,109.496 134.748,110.329 135.5,111C 139.22,112.86 142.886,114.693 146.5,116.5C 148,118.179 149.833,119.512 152,120.5C 152.5,113.174 152.666,105.841 152.5,98.5C 154.118,96.684 156.118,95.3507 158.5,94.5 Z"/></g>
<g><path style="opacity:1" fill="#fefefe" d="M 156.5,96.5 C 157.825,100.445 158.492,104.778 158.5,109.5C 158.167,113.833 157.833,118.167 157.5,122.5C 156.252,121.96 155.085,121.293 154,120.5C 153.333,113.167 153.333,105.833 154,98.5C 154.995,97.9341 155.828,97.2674 156.5,96.5 Z"/></g>
<g><path style="opacity:1" fill="#4c4c4c" d="M 96.5,188.5 C 97.7943,184.267 97.7943,179.934 96.5,175.5C 97.8021,170.266 97.8021,164.933 96.5,159.5C 97.7563,157.274 97.7563,154.941 96.5,152.5C 97.4682,150.393 97.8016,148.059 97.5,145.5C 97.8182,140.968 97.4849,136.634 96.5,132.5C 96.5,132.167 96.5,131.833 96.5,131.5C 97.8333,126.833 97.8333,122.167 96.5,117.5C 96.3932,115.621 96.8932,115.288 98,116.5C 98.8331,140.84 98.6665,165.174 97.5,189.5C 96.8933,189.376 96.56,189.043 96.5,188.5 Z"/></g>
<g><path style="opacity:1" fill="#d8d8d8" d="M 120.5,116.5 C 120.5,121.833 120.5,127.167 120.5,132.5C 120.5,136.833 120.5,141.167 120.5,145.5C 120.5,150.5 120.5,155.5 120.5,160.5C 120.5,165.833 120.5,171.167 120.5,176.5C 120.182,181.032 120.515,185.366 121.5,189.5C 121.44,190.043 121.107,190.376 120.5,190.5C 119.171,165.67 119.171,141.003 120.5,116.5 Z"/></g>
<g><path style="opacity:1" fill="#fbfbfb" d="M 96.5,131.5 C 96.5,131.833 96.5,132.167 96.5,132.5C 92.7004,134.234 89.0337,136.234 85.5,138.5C 83.5659,139.11 81.8993,140.11 80.5,141.5C 77.9959,142.584 75.6626,143.917 73.5,145.5C 69.326,148.088 64.9926,150.421 60.5,152.5C 55.6421,151.404 51.3088,149.238 47.5,146C 63.337,136.58 79.337,127.414 95.5,118.5C 96.4922,122.783 96.8256,127.116 96.5,131.5 Z"/></g>
<g><path style="opacity:1" fill="#717171" d="M 181.5,154.5 C 181.611,153.883 181.944,153.383 182.5,153C 179.294,150.966 175.96,149.133 172.5,147.5C 167.98,149.591 163.647,151.925 159.5,154.5C 155.17,151.697 150.67,149.03 146,146.5C 145.617,147.056 145.117,147.389 144.5,147.5C 143.015,144.917 140.682,143.584 137.5,143.5C 136.473,141.806 135.139,140.473 133.5,139.5C 129.334,136.916 125,134.583 120.5,132.5C 120.5,127.167 120.5,121.833 120.5,116.5C 120.833,116.5 121.167,116.5 121.5,116.5C 137.69,126.519 154.19,136.185 171,145.5C 171.499,140.845 171.666,136.179 171.5,131.5C 172.833,116.833 172.833,102.167 171.5,87.5C 175.517,84.7329 179.684,82.0663 184,79.5C 184.667,104.167 184.667,128.833 184,153.5C 183.329,154.252 182.496,154.586 181.5,154.5 Z"/></g>
<g><path style="opacity:1" fill="#131825" d="M 96.5,132.5 C 97.4849,136.634 97.8182,140.968 97.5,145.5C 93.1638,143.668 89.1638,141.335 85.5,138.5C 89.0337,136.234 92.7004,134.234 96.5,132.5 Z"/></g>
<g><path style="opacity:1" fill="#131823" d="M 120.5,132.5 C 125,134.583 129.334,136.916 133.5,139.5C 129.084,141.206 124.751,143.206 120.5,145.5C 120.5,141.167 120.5,136.833 120.5,132.5 Z"/></g>
<g><path style="opacity:1" fill="#b8b8b8" d="M 85.5,138.5 C 89.1638,141.335 93.1638,143.668 97.5,145.5C 97.8016,148.059 97.4682,150.393 96.5,152.5C 91.1667,148.833 85.8333,145.167 80.5,141.5C 81.8993,140.11 83.5659,139.11 85.5,138.5 Z"/></g>
<g><path style="opacity:1" fill="#b3b3b3" d="M 133.5,139.5 C 135.139,140.473 136.473,141.806 137.5,143.5C 132.508,146.97 127.341,150.304 122,153.5C 121.211,155.712 121.378,157.712 122.5,159.5C 122.158,160.338 121.492,160.672 120.5,160.5C 120.5,155.5 120.5,150.5 120.5,145.5C 124.751,143.206 129.084,141.206 133.5,139.5 Z"/></g>
<g><path style="opacity:1" fill="#6e6e6e" d="M 80.5,141.5 C 85.8333,145.167 91.1667,148.833 96.5,152.5C 97.7563,154.941 97.7563,157.274 96.5,159.5C 89.2208,155.525 81.8875,151.525 74.5,147.5C 73.7025,147.043 73.3691,146.376 73.5,145.5C 75.6626,143.917 77.9959,142.584 80.5,141.5 Z"/></g>
<g><path style="opacity:1" fill="#f5f5f5" d="M 137.5,143.5 C 140.682,143.584 143.015,144.917 144.5,147.5C 137.14,151.512 129.806,155.512 122.5,159.5C 121.378,157.712 121.211,155.712 122,153.5C 127.341,150.304 132.508,146.97 137.5,143.5 Z"/></g>
<g><path style="opacity:1" fill="#bebebe" d="M 71.5,101.5 C 71.8333,101.5 72.1667,101.5 72.5,101.5C 72.1734,106.214 72.5067,110.88 73.5,115.5C 77.2432,112.962 81.2432,110.962 85.5,109.5C 89.7363,111.445 93.4029,114.112 96.5,117.5C 97.8333,122.167 97.8333,126.833 96.5,131.5C 96.8256,127.116 96.4922,122.783 95.5,118.5C 79.337,127.414 63.337,136.58 47.5,146C 51.3088,149.238 55.6421,151.404 60.5,152.5C 59.4019,153.397 59.4019,154.23 60.5,155C 72.69,161.592 84.69,168.426 96.5,175.5C 97.7943,179.934 97.7943,184.267 96.5,188.5C 76.3376,176.584 56.0043,164.917 35.5,153.5C 35.8333,152.833 36.1667,152.167 36.5,151.5C 39.0078,149.076 42.0078,147.41 45.5,146.5C 46.1665,141.319 46.8332,135.985 47.5,130.5C 52.0645,128.059 56.3979,125.392 60.5,122.5C 64.6553,121.258 68.322,119.258 71.5,116.5C 71.5,111.5 71.5,106.5 71.5,101.5 Z"/></g>
<g><path style="opacity:1" fill="#121825" d="M 73.5,145.5 C 73.3691,146.376 73.7025,147.043 74.5,147.5C 81.8875,151.525 89.2208,155.525 96.5,159.5C 97.8021,164.933 97.8021,170.266 96.5,175.5C 84.69,168.426 72.69,161.592 60.5,155C 59.4019,154.23 59.4019,153.397 60.5,152.5C 64.9926,150.421 69.326,148.088 73.5,145.5 Z"/></g>
<g><path style="opacity:1" fill="#121825" d="M 159.5,154.5 C 146.553,161.47 133.886,168.803 121.5,176.5C 121.167,176.5 120.833,176.5 120.5,176.5C 120.5,171.167 120.5,165.833 120.5,160.5C 121.492,160.672 122.158,160.338 122.5,159.5C 129.806,155.512 137.14,151.512 144.5,147.5C 145.117,147.389 145.617,147.056 146,146.5C 150.67,149.03 155.17,151.697 159.5,154.5 Z"/></g>
<g><path style="opacity:1" fill="#bdbdbd" d="M 181.5,154.5 C 162.331,166.588 142.665,177.921 122.5,188.5C 121.517,184.702 121.183,180.702 121.5,176.5C 133.886,168.803 146.553,161.47 159.5,154.5C 163.647,151.925 167.98,149.591 172.5,147.5C 175.96,149.133 179.294,150.966 182.5,153C 181.944,153.383 181.611,153.883 181.5,154.5 Z"/></g>
<g><path style="opacity:1" fill="#7c7c7c" d="M 120.5,176.5 C 120.833,176.5 121.167,176.5 121.5,176.5C 121.183,180.702 121.517,184.702 122.5,188.5C 122.5,189.167 122.167,189.5 121.5,189.5C 120.515,185.366 120.182,181.032 120.5,176.5 Z"/></g>
</svg>
