<?xml version="1.0" encoding="UTF-8"?><svg id="Layer_2" xmlns="http://www.w3.org/2000/svg" width="107" height="150" viewBox="0 0 107 150"><defs><style>.cls-1,.cls-2{stroke-width:0px;}.cls-2{fill:#fff;}</style></defs><path class="cls-1" d="m94.9991,40.6892c-13.715-7.9192-27.4506-15.8034-41.1477-23.7531-2.7837,1.5258-5.4984,3.1752-8.257,4.7449-13.7688,7.9667-27.5232,15.9584-41.2911,23.926,16.4154,9.4665,32.8504,18.8998,49.2649,28.3699.1899.1138.4256.1505.6191.0188,16.3965-9.4745,32.7931-18.9482,49.187-28.4272-2.7514-1.6942-5.5934-3.237-8.3752-4.8793Zm-4.0971,4.9671c-12.0432,6.9534-24.098,13.8924-36.1331,20.8619-.4184.1872-.895.7185-1.3744.3754-12.2224-7.0896-24.4851-14.1119-36.7012-21.214.1012-.1971.1971-.4229.3987-.5385,10.9815-6.3379,21.9648-12.673,32.9445-19.0118v-.0009c.1281-.0735.2562-.1469.3835-.2213l3.3365-1.9289.155.0896,2.8813,1.6602c11.3721,6.561,22.738,13.1353,34.1101,19.6972.1371.0358.1201.1864-.0009.2312Z"/><path class="cls-1" d="m49.2346,27.561c1.4066-.7687,2.7559-1.636,4.1697-2.3922.0278,2.2802.0116,4.5594.0108,6.8396-5.7689,3.3822-11.5818,6.6891-17.357,10.0605-4.0407,2.2954-8.033,4.6777-12.0844,6.9534-1.9944-1.1235-3.9654-2.2873-5.9562-3.4153,10.3956-6.0314,20.8126-12.0289,31.2171-18.046Z"/><path class="cls-1" d="m54.1435,25.1778c11.7762,6.7993,23.5524,13.5967,35.3232,20.4032-1.9567,1.1988-3.9583,2.3232-5.949,3.4637-9.7756-5.682-19.5798-11.3157-29.3652-16.9816-.0323-2.2954-.0233-4.5908-.009-6.8853Z"/><path class="cls-1" d="m53.4079,32.9089c.0161,11.0326.0161,22.0651.0009,33.0977-2.282-1.2713-4.5236-2.6126-6.7957-3.9009-.0036-8.4388-.0152-16.8786.0054-25.3174,2.2936-1.24,4.511-2.6134,6.7894-3.8794Z"/><path class="cls-1" d="m54.1435,32.9689c2.2954,1.2436,4.5343,2.5884,6.7957,3.892.0027,8.4093.0161,16.8185-.0063,25.2287-2.2631,1.3-4.529,2.5955-6.7849,3.9081-.0251-11.0093-.017-22.0194-.0045-33.0287Z"/><path class="cls-1" d="m32.2629,53.8048c4.4985-2.6314,9.0176-5.2278,13.5278-7.8421.0206,1.2292.0143,2.4576.0072,3.6868-3.3642,1.9173-6.7115,3.866-10.0659,5.8003-.1792.1048-.4014.1478-.5868.0331-.9793-.5259-1.9272-1.1092-2.8822-1.6781Z"/><path class="cls-1" d="m61.7527,45.9842c3.1089,1.7856,6.2142,3.5784,9.316,5.3774,1.4084.8144,2.8428,1.5849,4.2234,2.4468-1.0079.568-2.0042,1.1576-3.0103,1.7283-.2276.1649-.4623-.0573-.6675-.1487-3.289-1.8779-6.5421-3.8203-9.849-5.6677-.0197-1.2454-.0242-2.4907-.0125-3.7361Z"/><path class="cls-1" d="m53.4912,74.7859c-12.7868-7.3449-25.5575-14.7211-38.3479-22.0616-2.2139-1.3233-4.4877-2.5427-6.6989-3.8713-1.4899-.8467-2.9629-1.7229-4.4743-2.5292-.009,19.0512-.0224,38.1024.0063,57.1536,2.0705,1.1441,4.1007,2.359,6.1497,3.5416,14.4667,8.3474,28.9029,16.7487,43.3777,25.0818-.0027-19.105.0224-38.2099-.0125-57.3149Zm-6.1685,46.6479c-5.3111-3.0041-10.5703-6.0977-15.8653-9.1305-7.1594-4.1374-14.3242-8.2659-21.4873-12.398-.0054-14.3664-.0161-28.7327.0054-43.0991,2.3196,1.2427,4.5549,2.635,6.8548,3.9135,10.1554,5.8881,20.3476,11.7117,30.4923,17.6195.0045,14.3646.0045,28.7291,0,43.0946Z"/><path class="cls-1" d="m103.3071,46.4913c-3.5076,1.9818-6.9704,4.0407-10.4717,6.0332-12.8639,7.4506-25.7465,14.869-38.6086,22.3232-.0036,19.0835-.0063,38.1669.0009,57.2504,16.3535-9.4907,32.7393-18.9258,49.0902-28.4209-.0009-19.062.0206-38.1239-.0107-57.1859Zm-6.0807,53.6944c-11.201,6.4436-22.3751,12.9311-33.5672,19.3881-1.2713.697-2.4835,1.5007-3.7764,2.1583-.0314-14.3744-.009-28.7488-.0116-43.1233,12.4553-7.1675,24.8909-14.3699,37.3453-21.5383.0278,14.3717.0081,28.7435.0099,43.1152Z"/><path class="cls-1" d="m36.1862,56.076c3.177-1.8913,6.397-3.711,9.6027-5.5521.0233,1.2265.0188,2.454.0009,3.6814-2.1735,1.1907-4.2951,2.4728-6.4463,3.7002-1.0653-.5886-2.101-1.2256-3.1573-1.8295Z"/><path class="cls-1" d="m61.7527,50.5508c3.168,1.8546,6.3594,3.6653,9.531,5.5136-.9873.689-2.0768,1.2095-3.0937,1.8483-2.1305-1.257-4.296-2.454-6.4248-3.7137-.0197-1.2158-.0233-2.4325-.0125-3.6483Z"/><path class="cls-1" d="m10.772,58.0856c1.9603,1.154,3.9367,2.2811,5.9105,3.4135.0036,11.3417.0036,22.6842,0,34.0259-1.9953,1.1504-4.0004,2.2811-5.9875,3.4449-.0305-7.7749-.0063-15.5499-.0125-23.3248.181-5.8514.0475-11.7063.0896-17.5595Z"/><path class="cls-1" d="m90.5221,61.784c1.9782-1.0966,3.909-2.2766,5.8863-3.3768.034,5.0889.0045,10.1778.0143,15.2668.0161,2.7765-.0555,5.5566.0824,8.3313.017,5.7663.0036,11.5325.0054,17.2988-2.0069-1.1271-4.0039-2.2721-5.9992-3.4207.0036-11.3668-.017-22.7326.0108-34.0994Z"/><path class="cls-1" d="m25.0183,66.3229c1.0438.6003,2.0992,1.1817,3.1313,1.8044.0054,4.0559.0045,8.1127,0,12.1695-1.0402.6074-2.0974,1.1862-3.1295,1.8062-.0072-5.26-.0036-10.5201-.0018-15.7801Z"/><path class="cls-1" d="m79.141,68.3253c1.0527-.5582,2.0768-1.1683,3.1134-1.756.0206,5.2753.0215,10.5515,0,15.8267-1.0527-.5582-2.0759-1.1692-3.1098-1.7614-.0251-4.1034-.0188-8.2068-.0036-12.3093Z"/><path class="cls-1" d="m28.8718,68.5573c1.0357.5358,2.0221,1.1593,3.0381,1.7318.0063,2.6117.0161,5.2242-.0045,7.8368-1.025.5322-1.9755,1.1979-3.0175,1.6996-.0412-3.7567-.0108-7.5124-.0161-11.2682Z"/><path class="cls-1" d="m75.5501,70.4531c.9165-.5537,1.8367-1.1011,2.772-1.6234,0,3.7728.0143,7.5465-.0081,11.3193-.9318-.5008-1.8412-1.0411-2.7622-1.558-.009-2.7129-.0072-5.4249-.0018-8.1378Z"/><path class="cls-1" d="m39.4331,74.6542c2.264,1.2785,4.5191,2.5731,6.7598,3.8928-2.8321,1.7336-5.7618,3.3006-8.6117,5.0038-4.1975,2.3957-8.3824,4.8112-12.5655,7.2311-2.5516,1.4147-5.0289,2.9611-7.6011,4.3381-.0278-2.5785-.0116-5.157-.0108-7.7346,5.7017-3.3669,11.4689-6.6255,17.1939-9.9548,1.601-.9434,3.229-1.8412,4.8354-2.7765Z"/><path class="cls-1" d="m67.1274,75.2858c.1729-.0923.3396-.2141.5349-.2598.7176.2338,1.3349.6854,1.9935,1.0456,6.7106,3.8328,13.4176,7.6737,20.1335,11.5003.0081,2.626.0045,5.252.0018,7.8789-6.1416-3.5067-12.2806-7.017-18.4205-10.5246-3.4825-2.0087-6.9982-3.9618-10.4601-6.0046,2.0418-1.2624,4.1518-2.411,6.2169-3.6357Z"/><path class="cls-1" d="m17.8356,95.7804c9.5543-5.502,19.0996-11.0209,28.6691-16.4969.0296,2.6394.0108,5.278.0125,7.9174-5.1937,3.0274-10.4242,5.992-15.6207,9.0149-1.8429,1.0518-3.6966,2.0875-5.5118,3.1877-.2715.1165-.5859.4381-.8995.2473-2.2076-1.3045-4.451-2.5498-6.6496-3.8704Z"/><path class="cls-1" d="m60.6749,79.6795c9.5462,5.5181,19.1453,10.9457,28.7022,16.444-2.0598,1.1898-4.1168,2.385-6.1766,3.5757-.2912.1165-.6101.43-.9291.2222-7.2069-4.1061-14.4013-8.2364-21.5921-12.3702-.0108-2.6242-.0045-5.2484-.0045-7.8717Z"/><path class="cls-1" d="m36.9997,93.5835c.9076-.5895,1.8618-1.0993,2.798-1.6387,2.2291,1.2785,4.4895,2.4997,6.7079,3.7979.0188,1.1056.0179,2.2121.0045,3.3186-3.1842-1.799-6.3432-3.6465-9.5104-5.4778Z"/><path class="cls-1" d="m66.3829,92.2773c.2231-.1075.4883-.3073.7356-.1362.9309.4435,1.8017,1.0061,2.7057,1.5034.0672.0036.3467.1846.1738.2688-3.1152,1.7811-6.2214,3.5784-9.3222,5.3837-.0081-1.2203-.0027-2.4387.0054-3.6572,1.9146-1.0957,3.8113-2.2237,5.7017-3.3625Z"/><path class="cls-1" d="m33.0397,95.8467c1.0482-.6325,2.1279-1.2104,3.1752-1.8438,3.4323,1.9791,6.853,3.978,10.2997,5.932.0072,1.2525.0099,2.505.0018,3.7594-2.4835-1.4263-4.9465-2.8885-7.4363-4.3032-1.9988-1.2059-4.0667-2.2981-6.0404-3.5443Z"/><path class="cls-1" d="m70.8742,94.268c1.0868.6218,2.1789,1.2346,3.2603,1.868-4.4877,2.5785-8.9585,5.1857-13.4453,7.7651-.0278-1.2552-.0188-2.5095-.0009-3.7629,3.4028-1.9433,6.7876-3.9188,10.1859-5.8702Z"/><path class="cls-1" d="m15.0681,97.3223c.6567-.3548,1.2686-.8019,1.972-1.0617.7015.2527,1.3081.7176,1.9558,1.0823,9.1753,5.2816,18.3291,10.6016,27.5071,15.8778.0278,2.2963.0224,4.5935.0063,6.8915-11.632-6.7052-23.2558-13.4256-34.8779-20.1487-.1855-.1093-.37-.2204-.5519-.3351,1.3341-.7607,2.6466-1.5589,3.9887-2.3061Z"/><path class="cls-1" d="m88.9802,97.2246c.3826-.207.7311-.5205,1.1692-.6021.3808.1174.7248.336,1.0715.5313,1.6118.947,3.2496,1.8483,4.8623,2.7953-11.7887,6.8539-23.6106,13.6514-35.4101,20.4865.0054-2.2891-.0116-4.5773.0134-6.8647,9.4315-5.4482,18.8622-10.8982,28.2937-16.3464Z"/><path class="cls-2" d="m100.5134,42.931c-15.5499-8.9854-31.1195-17.9385-46.6649-26.931h-.1075c-2.6206,1.6261-5.3335,3.0999-7.9855,4.6732-14.1988,8.2095-28.3806,16.4494-42.5749,24.6661v58.4214c1.5786.9936,3.2334,1.8636,4.8327,2.824,15.1163,8.747,30.2325,17.4941,45.3488,26.2393.2141.0833.4533.2992.697.1756,16.7003-9.6466,33.3853-19.3281,50.0936-28.9639v-58.9733c-1.1674-.7848-2.428-1.4183-3.6393-2.1314Zm-46.9847,89.1045c-14.4748-8.3331-28.911-16.7343-43.3777-25.0818-2.049-1.1826-4.0792-2.3975-6.1497-3.5416-.0287-19.0512-.0152-38.1024-.0063-57.1536,1.5114.8063,2.9844,1.6826,4.4743,2.5292,2.2112,1.3287,4.4851,2.548,6.6989,3.8713,12.7904,7.3404,25.5611,14.7167,38.3479,22.0616.0349,19.105.0099,38.2099.0125,57.3149Zm49.8141-28.4236c-16.3508,9.4951-32.7366,18.9303-49.0902,28.4209-.0072-19.0835-.0045-38.1669-.0009-57.2504,12.8621-7.4542,25.7448-14.8726,38.6086-22.3232,3.5013-1.9926,6.9641-4.0514,10.4717-6.0332.0313,19.062.0098,38.1239.0107,57.1859Zm-49.1305-29.6815c-.1935.1317-.4292.095-.6191-.0188-16.4145-9.4701-32.8495-18.9034-49.2649-28.3699,13.7679-7.9676,27.5223-15.9593,41.2911-23.926,2.7586-1.5697,5.4733-3.2191,8.257-4.7449,13.6971,7.9496,27.4327,15.8339,41.1477,23.7531,2.7819,1.6422,5.6238,3.1851,8.3752,4.8793-16.3939,9.479-32.7904,18.9527-49.187,28.4272Z"/><path class="cls-2" d="m90.9278,45.3599c-11.5594-6.6703-23.1125-13.3531-34.6728-20.0224l-.0108-.0063c-.3396-.1962-.68-.3924-1.0196-.5886l-.0824-.0475-1.016-.5815-.3333-.1908-.0134-.008-.3629.2123-.0421.0242-.3557.2079.0063.0009-.2634.1496-.5833.3324c-11.6857,6.7464-23.375,13.4892-35.0616,20.2339-.2016.1156-.2975.3414-.3987.5385,12.2161,7.1021,24.4788,14.1245,36.7012,21.214.4793.3431.956-.1882,1.3744-.3754,12.0351-6.9695,24.09-13.9085,36.1331-20.8619.1209-.0448.138-.1953.0009-.2312Zm-59.7895,7.7284c-1.2615-.7006-2.5024-1.438-3.7459-2.1682-.8646-.5089-1.7677-.9542-2.5902-1.5303,6.9991-4.0684,14.0214-8.0975,21.0223-12.1624.0054,2.5973.0072,5.1955-.0009,7.7929-4.3256,2.5176-8.6673,5.0065-12.9875,7.5304-.4041.2177-.7759.4999-1.205.6675-.1738.0806-.3422-.0735-.4928-.1299Zm4.0317,2.3294c-.9793-.5259-1.9272-1.1092-2.8822-1.6781,4.4985-2.6314,9.0176-5.2278,13.5278-7.8421.0206,1.2292.0143,2.4576.0072,3.6868-3.3642,1.9173-6.7115,3.866-10.0659,5.8003-.1792.1048-.4014.1478-.5868.0331Zm10.6482,6.1282c-.7221-.379-1.4281-.7866-2.1234-1.2122-1.1782-.7096-2.4047-1.3358-3.564-2.0759,1.903-1.0877,3.797-2.1933,5.6937-3.2917.0027,2.1933.0125,4.3865-.0063,6.5798Zm-.0036-7.4058c-2.1735,1.1907-4.2951,2.4728-6.4463,3.7002-1.0653-.5886-2.101-1.2256-3.1573-1.8295,3.177-1.8913,6.397-3.711,9.6027-5.5521.0233,1.2265.0188,2.454.0009,3.6814Zm7.6191,11.8013c-2.282-1.2713-4.5236-2.6126-6.7957-3.9009-.0036-8.4388-.0152-16.8786.0054-25.3174,2.2936-1.24,4.511-2.6135,6.7894-3.8794.0161,11.0326.0161,22.0651.0009,33.0977Zm.0063-33.9981c-5.7689,3.3822-11.5818,6.6891-17.357,10.0605-4.0407,2.2954-8.033,4.6777-12.0844,6.9534-1.9944-1.1235-3.9654-2.2873-5.9562-3.4153,10.3956-6.0315,20.8126-12.0289,31.2171-18.046,1.4066-.7687,2.7559-1.636,4.1697-2.3922.0278,2.2802.0116,4.5594.0108,6.8396Zm7.5178,30.0811c-2.2631,1.3-4.529,2.5955-6.7849,3.9081-.0251-11.0093-.017-22.0195-.0045-33.0287,2.2954,1.2436,4.5343,2.5884,6.7957,3.892.0027,8.4093.0161,16.8185-.0063,25.2287Zm.8198-.5035c-.0045-2.161-.0116-4.322.0063-6.4821,1.9084,1.0285,3.7746,2.135,5.6471,3.2272-1.8662,1.1154-3.7576,2.1888-5.6534,3.2549Zm6.4373-3.6733c-2.1305-1.257-4.296-2.454-6.4248-3.7137-.0197-1.2158-.0233-2.4325-.0125-3.6483,3.168,1.8546,6.3594,3.6653,9.531,5.5136-.9873.689-2.0768,1.2095-3.0937,1.8483Zm4.0917-2.376c-.2276.1649-.4623-.0573-.6675-.1487-3.289-1.8779-6.5421-3.8203-9.849-5.6677-.0197-1.2454-.0242-2.4907-.0125-3.7361,3.1089,1.7856,6.2142,3.5784,9.316,5.3774,1.4084.8144,2.8428,1.5849,4.2234,2.4468-1.0079.568-2.0042,1.1575-3.0104,1.7283Zm10.1178-5.8272c-2.0624,1.1504-4.0864,2.3706-6.1443,3.5282-.2464.164-.499-.0493-.715-.1568-3.3051-1.929-6.6201-3.8409-9.9413-5.7421-1.291-.7087-2.5239-1.5195-3.8337-2.1915-.0287-2.5946-.0206-5.1893-.0063-7.7839,3.3768,1.8591,6.6729,3.8597,10.0291,5.7537,3.6321,2.1261,7.2965,4.1984,10.9251,6.3298-.0923.1012-.1998.189-.3136.2625Zm1.1181-.6648c-9.7756-5.682-19.5798-11.3157-29.3652-16.9816-.0323-2.2954-.0233-4.5908-.009-6.8853,11.7762,6.7993,23.5524,13.5967,35.3232,20.4032-1.9567,1.1988-3.9583,2.3232-5.949,3.4637Z"/><path class="cls-2" d="m53.3746,24.1512c-.1201.069-.2392.138-.3593.2079-.0851.0484-.1693.0977-.2544.1469-.1944.112-.3879.224-.5824.336l.5833-.3324.2634-.1496-.0063-.0009.3557-.2079Z"/><path class="cls-2" d="m47.3476,78.2739c-10.1447-5.9078-20.3369-11.7314-30.4923-17.6195-2.2999-1.2785-4.5352-2.6708-6.8548-3.9135-.0215,14.3664-.0108,28.7327-.0054,43.0991,7.163,4.1321,14.3278,8.2605,21.4873,12.398,5.295,3.0328,10.5541,6.1264,15.8653,9.1305.0045-14.3655.0045-28.73,0-43.0946Zm-.8037,34.0367c-7.0053-4.0514-14.0116-8.0993-21.0196-12.1444.336-.2401.6926-.4471,1.0474-.654,1.9146-1.0706,3.7764-2.2327,5.7134-3.2639,4.7637,2.7093,9.4692,5.5226,14.2445,8.2113.0305,2.617.009,5.2341.0143,7.8511Zm-.0045-12.441c.0072,1.2525.0099,2.505.0018,3.7594-2.4835-1.4263-4.9465-2.8885-7.4363-4.3032-1.9988-1.2059-4.0667-2.2981-6.0404-3.5443,1.0482-.6325,2.1279-1.2104,3.1752-1.8438,3.4323,1.9791,6.853,3.978,10.2997,5.932Zm-9.5149-6.3513c.9076-.5895,1.8618-1.0993,2.798-1.6387,2.2291,1.2785,4.4895,2.4997,6.7079,3.7979.0188,1.1056.0179,2.2121.0045,3.3185-3.1842-1.799-6.3432-3.6465-9.5104-5.4778Zm9.5068,1.2642c-1.8546-.9596-3.6375-2.0508-5.4697-3.0516-.103-.1272-.4318-.1335-.3951-.3396,1.9442-1.1387,3.917-2.23,5.8684-3.358.0134,2.2497.0206,4.4994-.0036,6.7491Zm.0108-7.6468c-5.1937,3.0274-10.4242,5.992-15.6207,9.0149-1.8429,1.0518-3.6966,2.0875-5.5118,3.1877-.2715.1165-.5859.4381-.8995.2473-2.2076-1.3045-4.451-2.5498-6.6496-3.8704,9.5543-5.5019,19.0996-11.0209,28.6691-16.4969.0296,2.6394.0108,5.278.0125,7.9174Zm-.3243-8.6539c-2.8321,1.7336-5.7618,3.3006-8.6117,5.0038-4.1975,2.3957-8.3824,4.8112-12.5655,7.2311-2.5516,1.4147-5.0289,2.9611-7.6011,4.3381-.0278-2.5785-.0116-5.157-.0108-7.7346,5.7017-3.3669,11.4689-6.6255,17.1939-9.9548,1.601-.9434,3.229-1.8411,4.8354-2.7765,2.264,1.2785,4.5191,2.5731,6.7598,3.8928Zm-13.4606-7.7642c1.5097.8037,2.9494,1.7301,4.4501,2.5507.5026.2849,1.0124.5644,1.4828.9022-2.0006,1.0939-3.9385,2.299-5.941,3.3902-.0027-2.2819-.0134-4.563.0081-6.8432Zm-3.8606-2.2255c1.0357.5358,2.0221,1.1593,3.0381,1.7318.0063,2.6117.0161,5.2242-.0045,7.8368-1.025.5322-1.9755,1.1979-3.0175,1.6996-.0412-3.7567-.0108-7.5124-.0161-11.2682Zm-3.8534-2.2345c1.0438.6003,2.0992,1.1817,3.1313,1.8044.0054,4.0559.0045,8.1127,0,12.1695-1.0402.6074-2.0974,1.1862-3.1295,1.8062-.0072-5.26-.0036-10.5201-.0018-15.7801Zm-7.6074,7.9774c.1675-4.0998.0331-8.2041.0878-12.3057,2.2461,1.2507,4.4528,2.574,6.6953,3.831.0349,5.5709.0099,11.1428.0134,16.7137-2.2416,1.3385-4.5137,2.6287-6.7876,3.9099-.0358-4.0496-.0224-8.0993-.009-12.1489Zm-6.7285,1.3448c.181-5.8514.0475-11.7063.0896-17.5595,1.9603,1.154,3.9367,2.2811,5.9105,3.4135.0036,11.3417.0036,22.6842,0,34.0259-1.9952,1.1504-4.0004,2.2811-5.9875,3.4449-.0305-7.7749-.0063-15.5499-.0125-23.3248Zm35.8267,44.4672c-11.632-6.7052-23.2558-13.4256-34.8779-20.1487-.1855-.1093-.37-.2204-.5519-.3351,1.3341-.7606,2.6466-1.5589,3.9887-2.3061.6567-.3548,1.2686-.8019,1.972-1.0617.7015.2527,1.3081.7176,1.9558,1.0823,9.1753,5.2816,18.3291,10.6016,27.5071,15.8778.0278,2.2963.0224,4.5935.0063,6.8915Z"/><path class="cls-2" d="m97.2415,57.0053c-12.4544,7.1684-24.89,14.3708-37.3453,21.5383.0027,14.3744-.0197,28.7488.0116,43.1233,1.2928-.6576,2.505-1.4613,3.7764-2.1583,11.192-6.457,22.3662-12.9445,33.5672-19.3881-.0018-14.3717.0179-28.7435-.0099-43.1152Zm-14.1325,9.0158c2.1977-1.2731,4.3999-2.5418,6.6075-3.7979.0376,5.5279-.017,11.0559.026,16.5829.1183,2.6054.078,5.2135.0627,7.8215-2.2524-1.2355-4.4636-2.5445-6.7034-3.8015-.0018-5.6014-.0152-11.2037.0072-16.8051Zm-3.943,2.2389c1.0527-.5582,2.0768-1.1683,3.1134-1.756.0206,5.2753.0215,10.5514,0,15.8267-1.0527-.5582-2.0759-1.1692-3.1098-1.7614-.0251-4.1034-.0188-8.2068-.0036-12.3093Zm-3.5909,2.1279c.9165-.5537,1.8367-1.1011,2.772-1.6234,0,3.7728.0143,7.5465-.0081,11.3193-.9318-.5008-1.8411-1.0411-2.7622-1.558-.009-2.7129-.0072-5.4249-.0018-8.1378Zm-.7347.4059c.0305,2.4343.0134,4.8685.0116,7.3028-2.127-1.1952-4.2414-2.4128-6.3576-3.6277,2.0929-1.2633,4.2396-2.4343,6.3459-3.6751Zm-7.688,4.4268c.1729-.0923.3396-.2141.5349-.2598.7176.2338,1.3349.6854,1.9935,1.0456,6.7106,3.8328,13.4176,7.6737,20.1335,11.5002.0081,2.626.0045,5.252.0018,7.8789-6.1416-3.5067-12.2806-7.017-18.4205-10.5246-3.4825-2.0087-6.9982-3.9618-10.4601-6.0046,2.0418-1.2624,4.1518-2.411,6.2169-3.6357Zm-6.4525,4.3937c9.5462,5.5181,19.1453,10.9457,28.7022,16.444-2.0598,1.1898-4.1168,2.385-6.1766,3.5757-.2912.1165-.6101.4301-.9291.2222-7.2069-4.1061-14.4013-8.2364-21.5921-12.3702-.0108-2.6242-.0045-5.2484-.0045-7.8717Zm21.0877,20.8225c-5.1203,3.0148-10.2872,5.9499-15.4218,8.9423-1.8994,1.05-3.7352,2.213-5.6534,3.229-.026-2.6349-.0108-5.269-.0099-7.9022,4.7547-2.7066,9.4584-5.5046,14.2257-8.1898,2.2972,1.2884,4.5845,2.5946,6.8593,3.9206Zm-11.7646-6.5887c-3.1152,1.7811-6.2214,3.5784-9.3222,5.3837-.0081-1.2203-.0027-2.4387.0054-3.6572,1.9146-1.0957,3.8113-2.2237,5.7017-3.3624.2231-.1075.4883-.3073.7356-.1362.9309.4435,1.8017,1.0061,2.7057,1.5034.0672.0036.3467.1846.1738.2688Zm-9.3204-5.4661c1.8429,1.0115,3.6626,2.0651,5.4795,3.1241-1.8331,1.0456-3.6357,2.1449-5.467,3.1949-.0296-2.1063-.0143-4.2127-.0125-6.319Zm.0108,11.6911c3.4028-1.9433,6.7876-3.9188,10.1859-5.8702,1.0868.6218,2.1789,1.2346,3.2603,1.868-4.4877,2.5785-8.9585,5.1857-13.4453,7.7651-.0278-1.2552-.0188-2.5095-.0009-3.7629Zm-.0152,20.2975c.0054-2.2891-.0116-4.5773.0134-6.8647,9.4315-5.4482,18.8622-10.8982,28.2937-16.3464.3826-.207.7311-.5205,1.1692-.6021.3808.1174.7248.336,1.0715.5313,1.6118.947,3.2496,1.8483,4.8622,2.7953-11.7887,6.8539-23.6106,13.6514-35.4101,20.4865Zm35.8375-21.1316c-2.0069-1.1271-4.0039-2.2721-5.9992-3.4207.0036-11.3668-.017-22.7326.0108-34.0994,1.9782-1.0966,3.909-2.2766,5.8863-3.3768.034,5.0889.0045,10.1779.0143,15.2668.0161,2.7765-.0555,5.5566.0824,8.3313.017,5.7663.0036,11.5325.0054,17.2988Z"/></svg>