                        <svg
                            xmlns="http://www.w3.org/2000/svg"
                            viewBox="0 0 50 50"
                            fill="#FFFFFF"
                        >
                            <path
                                d="M15.059 43.898h-3.196a.827.827 0 000 1.653h3.196a.826.826 0 100-1.653zM38.851 8.781a.826.826 0 00-1.42.577v4.015H13.847a.827.827 0 100 1.654h24.411c.457 0 .826-.37.826-.827v-2.805l5.548 5.707-5.548 5.389V19.27a.826.826 0 00-.826-.826H15.5a.826.826 0 000 1.653h9.419v3.881a.826.826 0 101.653 0v-3.881h10.859v4.35a.828.828 0 001.402.594l7.545-7.328a.826.826 0 00.016-1.169l-7.543-7.763zM9.99 13.372a.827.827 0 100 1.654h.661a.827.827 0 000-1.654H9.99zm38.792 12.895h-.771a.826.826 0 100 1.653h.771a.827.827 0 000-1.653z"
                            ></path>
                            <path
                                d="M45.035 26.267H20.68V21.89a.827.827 0 00-1.403-.593l-7.543 7.327a.827.827 0 00-.016 1.169l7.543 7.76a.824.824 0 00.904.19.829.829 0 00.516-.767v-3.988h4.239v6.943H1.988V7.641h22.931v3.941a.826.826 0 001.653 0v-6.01A4.667 4.667 0 0021.91.91H4.997A4.667 4.667 0 00.335 5.572v34.803a.81.81 0 00-.099.383c0 .14.038.27.099.384v3.445a4.668 4.668 0 004.662 4.663h16.912a4.668 4.668 0 004.662-4.663V32.988h14.276a.826.826 0 100-1.653H19.853a.827.827 0 00-.827.827v2.779l-5.548-5.708 5.548-5.388v3.248c0 .456.37.827.827.827h25.182a.826.826 0 000-1.653zM4.997 2.563h16.912c1.66 0 3.009 1.35 3.009 3.009v.416H1.988v-.416a3.013 3.013 0 013.009-3.009zm16.912 45.034H4.997a3.013 3.013 0 01-3.009-3.01v-3.002h22.931v3.002a3.014 3.014 0 01-3.01 3.01z"
                            ></path>
                        </svg>
